<?xml version="1.0" encoding="utf-8"?>
<svg xmlns="http://www.w3.org/2000/svg" xmlns:xlink="http://www.w3.org/1999/xlink" width="600" height="400" viewBox="0 0 2400 1600">
<defs>
  <clipPath id="clip040">
    <rect x="0" y="0" width="2400" height="1600"/>
  </clipPath>
</defs>
<path clip-path="url(#clip040)" d="
M0 1600 L2400 1600 L2400 0 L0 0  Z
  " fill="#ffffff" fill-rule="evenodd" fill-opacity="1"/>
<defs>
  <clipPath id="clip041">
    <rect x="480" y="0" width="1681" height="1600"/>
  </clipPath>
</defs>
<path clip-path="url(#clip040)" d="
M201.019 1486.45 L2352.76 1486.45 L2352.76 47.2441 L201.019 47.2441  Z
  " fill="#ffffff" fill-rule="evenodd" fill-opacity="1"/>
<defs>
  <clipPath id="clip042">
    <rect x="201" y="47" width="2153" height="1440"/>
  </clipPath>
</defs>
<polyline clip-path="url(#clip042)" style="stroke:#000000; stroke-linecap:butt; stroke-linejoin:round; stroke-width:2; stroke-opacity:0.1; fill:none" points="
  261.917,1486.45 261.917,47.2441 
  "/>
<polyline clip-path="url(#clip042)" style="stroke:#000000; stroke-linecap:butt; stroke-linejoin:round; stroke-width:2; stroke-opacity:0.1; fill:none" points="
  803.235,1486.45 803.235,47.2441 
  "/>
<polyline clip-path="url(#clip042)" style="stroke:#000000; stroke-linecap:butt; stroke-linejoin:round; stroke-width:2; stroke-opacity:0.1; fill:none" points="
  1344.55,1486.45 1344.55,47.2441 
  "/>
<polyline clip-path="url(#clip042)" style="stroke:#000000; stroke-linecap:butt; stroke-linejoin:round; stroke-width:2; stroke-opacity:0.1; fill:none" points="
  1885.87,1486.45 1885.87,47.2441 
  "/>
<polyline clip-path="url(#clip040)" style="stroke:#000000; stroke-linecap:butt; stroke-linejoin:round; stroke-width:4; stroke-opacity:1; fill:none" points="
  201.019,1486.45 2352.76,1486.45 
  "/>
<polyline clip-path="url(#clip040)" style="stroke:#000000; stroke-linecap:butt; stroke-linejoin:round; stroke-width:4; stroke-opacity:1; fill:none" points="
  261.917,1486.45 261.917,1469.18 
  "/>
<polyline clip-path="url(#clip040)" style="stroke:#000000; stroke-linecap:butt; stroke-linejoin:round; stroke-width:4; stroke-opacity:1; fill:none" points="
  803.235,1486.45 803.235,1469.18 
  "/>
<polyline clip-path="url(#clip040)" style="stroke:#000000; stroke-linecap:butt; stroke-linejoin:round; stroke-width:4; stroke-opacity:1; fill:none" points="
  1344.55,1486.45 1344.55,1469.18 
  "/>
<polyline clip-path="url(#clip040)" style="stroke:#000000; stroke-linecap:butt; stroke-linejoin:round; stroke-width:4; stroke-opacity:1; fill:none" points="
  1885.87,1486.45 1885.87,1469.18 
  "/>
<path clip-path="url(#clip040)" d="M133.191 1543.18 L149.511 1543.18 L149.511 1547.12 L127.566 1547.12 L127.566 1543.18 Q130.228 1540.43 134.812 1535.8 Q139.418 1531.15 140.599 1529.81 Q142.844 1527.28 143.724 1525.55 Q144.626 1523.79 144.626 1522.1 Q144.626 1519.34 142.682 1517.61 Q140.761 1515.87 137.659 1515.87 Q135.46 1515.87 133.006 1516.63 Q130.576 1517.4 127.798 1518.95 L127.798 1514.23 Q130.622 1513.09 133.076 1512.51 Q135.529 1511.93 137.566 1511.93 Q142.937 1511.93 146.131 1514.62 Q149.326 1517.31 149.326 1521.8 Q149.326 1523.93 148.515 1525.85 Q147.728 1527.74 145.622 1530.34 Q145.043 1531.01 141.941 1534.23 Q138.839 1537.42 133.191 1543.18 Z" fill="#000000" fill-rule="evenodd" fill-opacity="1" /><path clip-path="url(#clip040)" d="M169.325 1515.64 Q165.714 1515.64 163.886 1519.2 Q162.08 1522.75 162.08 1529.87 Q162.08 1536.98 163.886 1540.55 Q165.714 1544.09 169.325 1544.09 Q172.96 1544.09 174.765 1540.55 Q176.594 1536.98 176.594 1529.87 Q176.594 1522.75 174.765 1519.2 Q172.96 1515.64 169.325 1515.64 M169.325 1511.93 Q175.136 1511.93 178.191 1516.54 Q181.27 1521.12 181.27 1529.87 Q181.27 1538.6 178.191 1543.21 Q175.136 1547.79 169.325 1547.79 Q163.515 1547.79 160.437 1543.21 Q157.381 1538.6 157.381 1529.87 Q157.381 1521.12 160.437 1516.54 Q163.515 1511.93 169.325 1511.93 Z" fill="#000000" fill-rule="evenodd" fill-opacity="1" /><path clip-path="url(#clip040)" d="M193.515 1543.18 L209.834 1543.18 L209.834 1547.12 L187.89 1547.12 L187.89 1543.18 Q190.552 1540.43 195.135 1535.8 Q199.742 1531.15 200.922 1529.81 Q203.168 1527.28 204.047 1525.55 Q204.95 1523.79 204.95 1522.1 Q204.95 1519.34 203.006 1517.61 Q201.084 1515.87 197.983 1515.87 Q195.784 1515.87 193.33 1516.63 Q190.899 1517.4 188.122 1518.95 L188.122 1514.23 Q190.946 1513.09 193.399 1512.51 Q195.853 1511.93 197.89 1511.93 Q203.26 1511.93 206.455 1514.62 Q209.649 1517.31 209.649 1521.8 Q209.649 1523.93 208.839 1525.85 Q208.052 1527.74 205.946 1530.34 Q205.367 1531.01 202.265 1534.23 Q199.163 1537.42 193.515 1543.18 Z" fill="#000000" fill-rule="evenodd" fill-opacity="1" /><path clip-path="url(#clip040)" d="M220.459 1543.18 L228.098 1543.18 L228.098 1516.82 L219.788 1518.49 L219.788 1514.23 L228.052 1512.56 L232.728 1512.56 L232.728 1543.18 L240.367 1543.18 L240.367 1547.12 L220.459 1547.12 L220.459 1543.18 Z" fill="#000000" fill-rule="evenodd" fill-opacity="1" /><path clip-path="url(#clip040)" d="M247.056 1532.24 L259.533 1532.24 L259.533 1536.03 L247.056 1536.03 L247.056 1532.24 Z" fill="#000000" fill-rule="evenodd" fill-opacity="1" /><path clip-path="url(#clip040)" d="M276.917 1515.64 Q273.306 1515.64 271.478 1519.2 Q269.672 1522.75 269.672 1529.87 Q269.672 1536.98 271.478 1540.55 Q273.306 1544.09 276.917 1544.09 Q280.552 1544.09 282.357 1540.55 Q284.186 1536.98 284.186 1529.87 Q284.186 1522.75 282.357 1519.2 Q280.552 1515.64 276.917 1515.64 M276.917 1511.93 Q282.728 1511.93 285.783 1516.54 Q288.862 1521.12 288.862 1529.87 Q288.862 1538.6 285.783 1543.21 Q282.728 1547.79 276.917 1547.79 Q271.107 1547.79 268.029 1543.21 Q264.973 1538.6 264.973 1529.87 Q264.973 1521.12 268.029 1516.54 Q271.107 1511.93 276.917 1511.93 Z" fill="#000000" fill-rule="evenodd" fill-opacity="1" /><path clip-path="url(#clip040)" d="M297.126 1512.56 L315.482 1512.56 L315.482 1516.5 L301.408 1516.5 L301.408 1524.97 Q302.427 1524.62 303.445 1524.46 Q304.464 1524.27 305.482 1524.27 Q311.269 1524.27 314.649 1527.44 Q318.028 1530.62 318.028 1536.03 Q318.028 1541.61 314.556 1544.71 Q311.084 1547.79 304.764 1547.79 Q302.589 1547.79 300.32 1547.42 Q298.075 1547.05 295.667 1546.31 L295.667 1541.61 Q297.751 1542.74 299.973 1543.3 Q302.195 1543.86 304.672 1543.86 Q308.677 1543.86 311.014 1541.75 Q313.352 1539.64 313.352 1536.03 Q313.352 1532.42 311.014 1530.31 Q308.677 1528.21 304.672 1528.21 Q302.797 1528.21 300.922 1528.62 Q299.07 1529.04 297.126 1529.92 L297.126 1512.56 Z" fill="#000000" fill-rule="evenodd" fill-opacity="1" /><path clip-path="url(#clip040)" d="M324.487 1532.24 L336.963 1532.24 L336.963 1536.03 L324.487 1536.03 L324.487 1532.24 Z" fill="#000000" fill-rule="evenodd" fill-opacity="1" /><path clip-path="url(#clip040)" d="M345.158 1543.18 L352.797 1543.18 L352.797 1516.82 L344.487 1518.49 L344.487 1514.23 L352.75 1512.56 L357.426 1512.56 L357.426 1543.18 L365.065 1543.18 L365.065 1547.12 L345.158 1547.12 L345.158 1543.18 Z" fill="#000000" fill-rule="evenodd" fill-opacity="1" /><path clip-path="url(#clip040)" d="M374.648 1546.4 L374.648 1542.14 Q376.408 1542.98 378.213 1543.42 Q380.019 1543.86 381.755 1543.86 Q386.384 1543.86 388.815 1540.75 Q391.269 1537.63 391.616 1531.29 Q390.273 1533.28 388.213 1534.34 Q386.153 1535.41 383.653 1535.41 Q378.468 1535.41 375.435 1532.28 Q372.426 1529.13 372.426 1523.69 Q372.426 1518.37 375.574 1515.15 Q378.722 1511.93 383.954 1511.93 Q389.949 1511.93 393.097 1516.54 Q396.269 1521.12 396.269 1529.87 Q396.269 1538.05 392.38 1542.93 Q388.514 1547.79 381.963 1547.79 Q380.204 1547.79 378.398 1547.44 Q376.593 1547.1 374.648 1546.4 M383.954 1531.75 Q387.102 1531.75 388.931 1529.6 Q390.783 1527.44 390.783 1523.69 Q390.783 1519.97 388.931 1517.81 Q387.102 1515.64 383.954 1515.64 Q380.806 1515.64 378.954 1517.81 Q377.125 1519.97 377.125 1523.69 Q377.125 1527.44 378.954 1529.6 Q380.806 1531.75 383.954 1531.75 Z" fill="#000000" fill-rule="evenodd" fill-opacity="1" /><path clip-path="url(#clip040)" d="M674.868 1543.18 L691.187 1543.18 L691.187 1547.12 L669.243 1547.12 L669.243 1543.18 Q671.905 1540.43 676.488 1535.8 Q681.094 1531.15 682.275 1529.81 Q684.52 1527.28 685.4 1525.55 Q686.303 1523.79 686.303 1522.1 Q686.303 1519.34 684.358 1517.61 Q682.437 1515.87 679.335 1515.87 Q677.136 1515.87 674.682 1516.63 Q672.252 1517.4 669.474 1518.95 L669.474 1514.23 Q672.298 1513.09 674.752 1512.51 Q677.205 1511.93 679.242 1511.93 Q684.613 1511.93 687.807 1514.62 Q691.002 1517.31 691.002 1521.8 Q691.002 1523.93 690.192 1525.85 Q689.404 1527.74 687.298 1530.34 Q686.719 1531.01 683.617 1534.23 Q680.516 1537.42 674.868 1543.18 Z" fill="#000000" fill-rule="evenodd" fill-opacity="1" /><path clip-path="url(#clip040)" d="M711.002 1515.64 Q707.39 1515.64 705.562 1519.2 Q703.756 1522.75 703.756 1529.87 Q703.756 1536.98 705.562 1540.55 Q707.39 1544.09 711.002 1544.09 Q714.636 1544.09 716.441 1540.55 Q718.27 1536.98 718.27 1529.87 Q718.27 1522.75 716.441 1519.2 Q714.636 1515.64 711.002 1515.64 M711.002 1511.93 Q716.812 1511.93 719.867 1516.54 Q722.946 1521.12 722.946 1529.87 Q722.946 1538.6 719.867 1543.21 Q716.812 1547.79 711.002 1547.79 Q705.191 1547.79 702.113 1543.21 Q699.057 1538.6 699.057 1529.87 Q699.057 1521.12 702.113 1516.54 Q705.191 1511.93 711.002 1511.93 Z" fill="#000000" fill-rule="evenodd" fill-opacity="1" /><path clip-path="url(#clip040)" d="M735.191 1543.18 L751.511 1543.18 L751.511 1547.12 L729.566 1547.12 L729.566 1543.18 Q732.228 1540.43 736.812 1535.8 Q741.418 1531.15 742.599 1529.81 Q744.844 1527.28 745.724 1525.55 Q746.626 1523.79 746.626 1522.1 Q746.626 1519.34 744.682 1517.61 Q742.761 1515.87 739.659 1515.87 Q737.46 1515.87 735.006 1516.63 Q732.576 1517.4 729.798 1518.95 L729.798 1514.23 Q732.622 1513.09 735.076 1512.51 Q737.529 1511.93 739.566 1511.93 Q744.937 1511.93 748.131 1514.62 Q751.325 1517.31 751.325 1521.8 Q751.325 1523.93 750.515 1525.85 Q749.728 1527.74 747.622 1530.34 Q747.043 1531.01 743.941 1534.23 Q740.839 1537.42 735.191 1543.18 Z" fill="#000000" fill-rule="evenodd" fill-opacity="1" /><path clip-path="url(#clip040)" d="M762.136 1543.18 L769.774 1543.18 L769.774 1516.82 L761.464 1518.49 L761.464 1514.23 L769.728 1512.56 L774.404 1512.56 L774.404 1543.18 L782.043 1543.18 L782.043 1547.12 L762.136 1547.12 L762.136 1543.18 Z" fill="#000000" fill-rule="evenodd" fill-opacity="1" /><path clip-path="url(#clip040)" d="M788.733 1532.24 L801.209 1532.24 L801.209 1536.03 L788.733 1536.03 L788.733 1532.24 Z" fill="#000000" fill-rule="evenodd" fill-opacity="1" /><path clip-path="url(#clip040)" d="M818.594 1515.64 Q814.983 1515.64 813.154 1519.2 Q811.348 1522.75 811.348 1529.87 Q811.348 1536.98 813.154 1540.55 Q814.983 1544.09 818.594 1544.09 Q822.228 1544.09 824.033 1540.55 Q825.862 1536.98 825.862 1529.87 Q825.862 1522.75 824.033 1519.2 Q822.228 1515.64 818.594 1515.64 M818.594 1511.93 Q824.404 1511.93 827.459 1516.54 Q830.538 1521.12 830.538 1529.87 Q830.538 1538.6 827.459 1543.21 Q824.404 1547.79 818.594 1547.79 Q812.783 1547.79 809.705 1543.21 Q806.649 1538.6 806.649 1529.87 Q806.649 1521.12 809.705 1516.54 Q812.783 1511.93 818.594 1511.93 Z" fill="#000000" fill-rule="evenodd" fill-opacity="1" /><path clip-path="url(#clip040)" d="M838.802 1512.56 L857.158 1512.56 L857.158 1516.5 L843.084 1516.5 L843.084 1524.97 Q844.103 1524.62 845.121 1524.46 Q846.14 1524.27 847.158 1524.27 Q852.945 1524.27 856.325 1527.44 Q859.704 1530.62 859.704 1536.03 Q859.704 1541.61 856.232 1544.71 Q852.76 1547.79 846.441 1547.79 Q844.265 1547.79 841.996 1547.42 Q839.751 1547.05 837.343 1546.31 L837.343 1541.61 Q839.427 1542.74 841.649 1543.3 Q843.871 1543.86 846.348 1543.86 Q850.353 1543.86 852.691 1541.75 Q855.029 1539.64 855.029 1536.03 Q855.029 1532.42 852.691 1530.31 Q850.353 1528.21 846.348 1528.21 Q844.473 1528.21 842.598 1528.62 Q840.746 1529.04 838.802 1529.92 L838.802 1512.56 Z" fill="#000000" fill-rule="evenodd" fill-opacity="1" /><path clip-path="url(#clip040)" d="M866.163 1532.24 L878.64 1532.24 L878.64 1536.03 L866.163 1536.03 L866.163 1532.24 Z" fill="#000000" fill-rule="evenodd" fill-opacity="1" /><path clip-path="url(#clip040)" d="M890.052 1543.18 L906.371 1543.18 L906.371 1547.12 L884.427 1547.12 L884.427 1543.18 Q887.089 1540.43 891.672 1535.8 Q896.278 1531.15 897.459 1529.81 Q899.704 1527.28 900.584 1525.55 Q901.487 1523.79 901.487 1522.1 Q901.487 1519.34 899.542 1517.61 Q897.621 1515.87 894.519 1515.87 Q892.32 1515.87 889.866 1516.63 Q887.436 1517.4 884.658 1518.95 L884.658 1514.23 Q887.482 1513.09 889.936 1512.51 Q892.39 1511.93 894.427 1511.93 Q899.797 1511.93 902.991 1514.62 Q906.186 1517.31 906.186 1521.8 Q906.186 1523.93 905.376 1525.85 Q904.589 1527.74 902.482 1530.34 Q901.903 1531.01 898.802 1534.23 Q895.7 1537.42 890.052 1543.18 Z" fill="#000000" fill-rule="evenodd" fill-opacity="1" /><path clip-path="url(#clip040)" d="M915.005 1512.56 L937.227 1512.56 L937.227 1514.55 L924.681 1547.12 L919.797 1547.12 L931.602 1516.5 L915.005 1516.5 L915.005 1512.56 Z" fill="#000000" fill-rule="evenodd" fill-opacity="1" /><path clip-path="url(#clip040)" d="M1215.49 1543.18 L1231.81 1543.18 L1231.81 1547.12 L1209.87 1547.12 L1209.87 1543.18 Q1212.53 1540.43 1217.11 1535.8 Q1221.72 1531.15 1222.9 1529.81 Q1225.14 1527.28 1226.02 1525.55 Q1226.93 1523.79 1226.93 1522.1 Q1226.93 1519.34 1224.98 1517.61 Q1223.06 1515.87 1219.96 1515.87 Q1217.76 1515.87 1215.31 1516.63 Q1212.87 1517.4 1210.1 1518.95 L1210.1 1514.23 Q1212.92 1513.09 1215.37 1512.51 Q1217.83 1511.93 1219.87 1511.93 Q1225.24 1511.93 1228.43 1514.62 Q1231.62 1517.31 1231.62 1521.8 Q1231.62 1523.93 1230.81 1525.85 Q1230.03 1527.74 1227.92 1530.34 Q1227.34 1531.01 1224.24 1534.23 Q1221.14 1537.42 1215.49 1543.18 Z" fill="#000000" fill-rule="evenodd" fill-opacity="1" /><path clip-path="url(#clip040)" d="M1251.62 1515.64 Q1248.01 1515.64 1246.18 1519.2 Q1244.38 1522.75 1244.38 1529.87 Q1244.38 1536.98 1246.18 1540.55 Q1248.01 1544.09 1251.62 1544.09 Q1255.26 1544.09 1257.06 1540.55 Q1258.89 1536.98 1258.89 1529.87 Q1258.89 1522.75 1257.06 1519.2 Q1255.26 1515.64 1251.62 1515.64 M1251.62 1511.93 Q1257.43 1511.93 1260.49 1516.54 Q1263.57 1521.12 1263.57 1529.87 Q1263.57 1538.6 1260.49 1543.21 Q1257.43 1547.79 1251.62 1547.79 Q1245.81 1547.79 1242.74 1543.21 Q1239.68 1538.6 1239.68 1529.87 Q1239.68 1521.12 1242.74 1516.54 Q1245.81 1511.93 1251.62 1511.93 Z" fill="#000000" fill-rule="evenodd" fill-opacity="1" /><path clip-path="url(#clip040)" d="M1275.81 1543.18 L1292.13 1543.18 L1292.13 1547.12 L1270.19 1547.12 L1270.19 1543.18 Q1272.85 1540.43 1277.43 1535.8 Q1282.04 1531.15 1283.22 1529.81 Q1285.47 1527.28 1286.35 1525.55 Q1287.25 1523.79 1287.25 1522.1 Q1287.25 1519.34 1285.3 1517.61 Q1283.38 1515.87 1280.28 1515.87 Q1278.08 1515.87 1275.63 1516.63 Q1273.2 1517.4 1270.42 1518.95 L1270.42 1514.23 Q1273.24 1513.09 1275.7 1512.51 Q1278.15 1511.93 1280.19 1511.93 Q1285.56 1511.93 1288.75 1514.62 Q1291.95 1517.31 1291.95 1521.8 Q1291.95 1523.93 1291.14 1525.85 Q1290.35 1527.74 1288.24 1530.34 Q1287.67 1531.01 1284.56 1534.23 Q1281.46 1537.42 1275.81 1543.18 Z" fill="#000000" fill-rule="evenodd" fill-opacity="1" /><path clip-path="url(#clip040)" d="M1302.76 1543.18 L1310.4 1543.18 L1310.4 1516.82 L1302.09 1518.49 L1302.09 1514.23 L1310.35 1512.56 L1315.03 1512.56 L1315.03 1543.18 L1322.67 1543.18 L1322.67 1547.12 L1302.76 1547.12 L1302.76 1543.18 Z" fill="#000000" fill-rule="evenodd" fill-opacity="1" /><path clip-path="url(#clip040)" d="M1329.36 1532.24 L1341.83 1532.24 L1341.83 1536.03 L1329.36 1536.03 L1329.36 1532.24 Z" fill="#000000" fill-rule="evenodd" fill-opacity="1" /><path clip-path="url(#clip040)" d="M1359.22 1515.64 Q1355.61 1515.64 1353.78 1519.2 Q1351.97 1522.75 1351.97 1529.87 Q1351.97 1536.98 1353.78 1540.55 Q1355.61 1544.09 1359.22 1544.09 Q1362.85 1544.09 1364.66 1540.55 Q1366.49 1536.98 1366.49 1529.87 Q1366.49 1522.75 1364.66 1519.2 Q1362.85 1515.64 1359.22 1515.64 M1359.22 1511.93 Q1365.03 1511.93 1368.08 1516.54 Q1371.16 1521.12 1371.16 1529.87 Q1371.16 1538.6 1368.08 1543.21 Q1365.03 1547.79 1359.22 1547.79 Q1353.41 1547.79 1350.33 1543.21 Q1347.27 1538.6 1347.27 1529.87 Q1347.27 1521.12 1350.33 1516.54 Q1353.41 1511.93 1359.22 1511.93 Z" fill="#000000" fill-rule="evenodd" fill-opacity="1" /><path clip-path="url(#clip040)" d="M1389.96 1527.98 Q1386.81 1527.98 1384.96 1530.13 Q1383.13 1532.28 1383.13 1536.03 Q1383.13 1539.76 1384.96 1541.93 Q1386.81 1544.09 1389.96 1544.09 Q1393.11 1544.09 1394.93 1541.93 Q1396.79 1539.76 1396.79 1536.03 Q1396.79 1532.28 1394.93 1530.13 Q1393.11 1527.98 1389.96 1527.98 M1399.24 1513.32 L1399.24 1517.58 Q1397.48 1516.75 1395.67 1516.31 Q1393.89 1515.87 1392.13 1515.87 Q1387.5 1515.87 1385.05 1519 Q1382.62 1522.12 1382.27 1528.44 Q1383.64 1526.43 1385.7 1525.36 Q1387.76 1524.27 1390.23 1524.27 Q1395.44 1524.27 1398.45 1527.44 Q1401.48 1530.59 1401.48 1536.03 Q1401.48 1541.36 1398.34 1544.57 Q1395.19 1547.79 1389.96 1547.79 Q1383.96 1547.79 1380.79 1543.21 Q1377.62 1538.6 1377.62 1529.87 Q1377.62 1521.68 1381.51 1516.82 Q1385.4 1511.93 1391.95 1511.93 Q1393.71 1511.93 1395.49 1512.28 Q1397.3 1512.63 1399.24 1513.32 Z" fill="#000000" fill-rule="evenodd" fill-opacity="1" /><path clip-path="url(#clip040)" d="M1406.79 1532.24 L1419.26 1532.24 L1419.26 1536.03 L1406.79 1536.03 L1406.79 1532.24 Z" fill="#000000" fill-rule="evenodd" fill-opacity="1" /><path clip-path="url(#clip040)" d="M1436.65 1515.64 Q1433.04 1515.64 1431.21 1519.2 Q1429.4 1522.75 1429.4 1529.87 Q1429.4 1536.98 1431.21 1540.55 Q1433.04 1544.09 1436.65 1544.09 Q1440.28 1544.09 1442.09 1540.55 Q1443.92 1536.98 1443.92 1529.87 Q1443.92 1522.75 1442.09 1519.2 Q1440.28 1515.64 1436.65 1515.64 M1436.65 1511.93 Q1442.46 1511.93 1445.51 1516.54 Q1448.59 1521.12 1448.59 1529.87 Q1448.59 1538.6 1445.51 1543.21 Q1442.46 1547.79 1436.65 1547.79 Q1430.84 1547.79 1427.76 1543.21 Q1424.7 1538.6 1424.7 1529.87 Q1424.7 1521.12 1427.76 1516.54 Q1430.84 1511.93 1436.65 1511.93 Z" fill="#000000" fill-rule="evenodd" fill-opacity="1" /><path clip-path="url(#clip040)" d="M1469.66 1516.63 L1457.85 1535.08 L1469.66 1535.08 L1469.66 1516.63 M1468.43 1512.56 L1474.31 1512.56 L1474.31 1535.08 L1479.24 1535.08 L1479.24 1538.97 L1474.31 1538.97 L1474.31 1547.12 L1469.66 1547.12 L1469.66 1538.97 L1454.05 1538.97 L1454.05 1534.46 L1468.43 1512.56 Z" fill="#000000" fill-rule="evenodd" fill-opacity="1" /><path clip-path="url(#clip040)" d="M1757.85 1543.18 L1774.17 1543.18 L1774.17 1547.12 L1752.22 1547.12 L1752.22 1543.18 Q1754.89 1540.43 1759.47 1535.8 Q1764.08 1531.15 1765.26 1529.81 Q1767.5 1527.28 1768.38 1525.55 Q1769.28 1523.79 1769.28 1522.1 Q1769.28 1519.34 1767.34 1517.61 Q1765.42 1515.87 1762.32 1515.87 Q1760.12 1515.87 1757.66 1516.63 Q1755.23 1517.4 1752.46 1518.95 L1752.46 1514.23 Q1755.28 1513.09 1757.73 1512.51 Q1760.19 1511.93 1762.22 1511.93 Q1767.59 1511.93 1770.79 1514.62 Q1773.98 1517.31 1773.98 1521.8 Q1773.98 1523.93 1773.17 1525.85 Q1772.39 1527.74 1770.28 1530.34 Q1769.7 1531.01 1766.6 1534.23 Q1763.5 1537.42 1757.85 1543.18 Z" fill="#000000" fill-rule="evenodd" fill-opacity="1" /><path clip-path="url(#clip040)" d="M1793.98 1515.64 Q1790.37 1515.64 1788.54 1519.2 Q1786.74 1522.75 1786.74 1529.87 Q1786.74 1536.98 1788.54 1540.55 Q1790.37 1544.09 1793.98 1544.09 Q1797.62 1544.09 1799.42 1540.55 Q1801.25 1536.98 1801.25 1529.87 Q1801.25 1522.75 1799.42 1519.2 Q1797.62 1515.64 1793.98 1515.64 M1793.98 1511.93 Q1799.79 1511.93 1802.85 1516.54 Q1805.93 1521.12 1805.93 1529.87 Q1805.93 1538.6 1802.85 1543.21 Q1799.79 1547.79 1793.98 1547.79 Q1788.17 1547.79 1785.09 1543.21 Q1782.04 1538.6 1782.04 1529.87 Q1782.04 1521.12 1785.09 1516.54 Q1788.17 1511.93 1793.98 1511.93 Z" fill="#000000" fill-rule="evenodd" fill-opacity="1" /><path clip-path="url(#clip040)" d="M1818.17 1543.18 L1834.49 1543.18 L1834.49 1547.12 L1812.55 1547.12 L1812.55 1543.18 Q1815.21 1540.43 1819.79 1535.8 Q1824.4 1531.15 1825.58 1529.81 Q1827.83 1527.28 1828.71 1525.55 Q1829.61 1523.79 1829.61 1522.1 Q1829.61 1519.34 1827.66 1517.61 Q1825.74 1515.87 1822.64 1515.87 Q1820.44 1515.87 1817.99 1516.63 Q1815.56 1517.4 1812.78 1518.95 L1812.78 1514.23 Q1815.6 1513.09 1818.06 1512.51 Q1820.51 1511.93 1822.55 1511.93 Q1827.92 1511.93 1831.11 1514.62 Q1834.31 1517.31 1834.31 1521.8 Q1834.31 1523.93 1833.5 1525.85 Q1832.71 1527.74 1830.6 1530.34 Q1830.03 1531.01 1826.92 1534.23 Q1823.82 1537.42 1818.17 1543.18 Z" fill="#000000" fill-rule="evenodd" fill-opacity="1" /><path clip-path="url(#clip040)" d="M1845.12 1543.18 L1852.76 1543.18 L1852.76 1516.82 L1844.45 1518.49 L1844.45 1514.23 L1852.71 1512.56 L1857.39 1512.56 L1857.39 1543.18 L1865.02 1543.18 L1865.02 1547.12 L1845.12 1547.12 L1845.12 1543.18 Z" fill="#000000" fill-rule="evenodd" fill-opacity="1" /><path clip-path="url(#clip040)" d="M1871.71 1532.24 L1884.19 1532.24 L1884.19 1536.03 L1871.71 1536.03 L1871.71 1532.24 Z" fill="#000000" fill-rule="evenodd" fill-opacity="1" /><path clip-path="url(#clip040)" d="M1901.58 1515.64 Q1897.96 1515.64 1896.14 1519.2 Q1894.33 1522.75 1894.33 1529.87 Q1894.33 1536.98 1896.14 1540.55 Q1897.96 1544.09 1901.58 1544.09 Q1905.21 1544.09 1907.02 1540.55 Q1908.84 1536.98 1908.84 1529.87 Q1908.84 1522.75 1907.02 1519.2 Q1905.21 1515.64 1901.58 1515.64 M1901.58 1511.93 Q1907.39 1511.93 1910.44 1516.54 Q1913.52 1521.12 1913.52 1529.87 Q1913.52 1538.6 1910.44 1543.21 Q1907.39 1547.79 1901.58 1547.79 Q1895.77 1547.79 1892.69 1543.21 Q1889.63 1538.6 1889.63 1529.87 Q1889.63 1521.12 1892.69 1516.54 Q1895.77 1511.93 1901.58 1511.93 Z" fill="#000000" fill-rule="evenodd" fill-opacity="1" /><path clip-path="url(#clip040)" d="M1932.32 1527.98 Q1929.17 1527.98 1927.32 1530.13 Q1925.49 1532.28 1925.49 1536.03 Q1925.49 1539.76 1927.32 1541.93 Q1929.17 1544.09 1932.32 1544.09 Q1935.46 1544.09 1937.29 1541.93 Q1939.14 1539.76 1939.14 1536.03 Q1939.14 1532.28 1937.29 1530.13 Q1935.46 1527.98 1932.32 1527.98 M1941.6 1513.32 L1941.6 1517.58 Q1939.84 1516.75 1938.03 1516.31 Q1936.25 1515.87 1934.49 1515.87 Q1929.86 1515.87 1927.41 1519 Q1924.98 1522.12 1924.63 1528.44 Q1926 1526.43 1928.06 1525.36 Q1930.12 1524.27 1932.59 1524.27 Q1937.8 1524.27 1940.81 1527.44 Q1943.84 1530.59 1943.84 1536.03 Q1943.84 1541.36 1940.7 1544.57 Q1937.55 1547.79 1932.32 1547.79 Q1926.32 1547.79 1923.15 1543.21 Q1919.98 1538.6 1919.98 1529.87 Q1919.98 1521.68 1923.87 1516.82 Q1927.76 1511.93 1934.31 1511.93 Q1936.07 1511.93 1937.85 1512.28 Q1939.65 1512.63 1941.6 1513.32 Z" fill="#000000" fill-rule="evenodd" fill-opacity="1" /><path clip-path="url(#clip040)" d="M1949.14 1532.24 L1961.62 1532.24 L1961.62 1536.03 L1949.14 1536.03 L1949.14 1532.24 Z" fill="#000000" fill-rule="evenodd" fill-opacity="1" /><path clip-path="url(#clip040)" d="M1969.82 1543.18 L1977.45 1543.18 L1977.45 1516.82 L1969.14 1518.49 L1969.14 1514.23 L1977.41 1512.56 L1982.08 1512.56 L1982.08 1543.18 L1989.72 1543.18 L1989.72 1547.12 L1969.82 1547.12 L1969.82 1543.18 Z" fill="#000000" fill-rule="evenodd" fill-opacity="1" /><path clip-path="url(#clip040)" d="M2003.2 1543.18 L2019.51 1543.18 L2019.51 1547.12 L1997.57 1547.12 L1997.57 1543.18 Q2000.23 1540.43 2004.82 1535.8 Q2009.42 1531.15 2010.6 1529.81 Q2012.85 1527.28 2013.73 1525.55 Q2014.63 1523.79 2014.63 1522.1 Q2014.63 1519.34 2012.69 1517.61 Q2010.76 1515.87 2007.66 1515.87 Q2005.46 1515.87 2003.01 1516.63 Q2000.58 1517.4 1997.8 1518.95 L1997.8 1514.23 Q2000.63 1513.09 2003.08 1512.51 Q2005.53 1511.93 2007.57 1511.93 Q2012.94 1511.93 2016.14 1514.62 Q2019.33 1517.31 2019.33 1521.8 Q2019.33 1523.93 2018.52 1525.85 Q2017.73 1527.74 2015.63 1530.34 Q2015.05 1531.01 2011.95 1534.23 Q2008.84 1537.42 2003.2 1543.18 Z" fill="#000000" fill-rule="evenodd" fill-opacity="1" /><polyline clip-path="url(#clip042)" style="stroke:#000000; stroke-linecap:butt; stroke-linejoin:round; stroke-width:2; stroke-opacity:0.1; fill:none" points="
  201.019,1269.08 2352.76,1269.08 
  "/>
<polyline clip-path="url(#clip042)" style="stroke:#000000; stroke-linecap:butt; stroke-linejoin:round; stroke-width:2; stroke-opacity:0.1; fill:none" points="
  201.019,1026.98 2352.76,1026.98 
  "/>
<polyline clip-path="url(#clip042)" style="stroke:#000000; stroke-linecap:butt; stroke-linejoin:round; stroke-width:2; stroke-opacity:0.1; fill:none" points="
  201.019,784.882 2352.76,784.882 
  "/>
<polyline clip-path="url(#clip042)" style="stroke:#000000; stroke-linecap:butt; stroke-linejoin:round; stroke-width:2; stroke-opacity:0.1; fill:none" points="
  201.019,542.783 2352.76,542.783 
  "/>
<polyline clip-path="url(#clip042)" style="stroke:#000000; stroke-linecap:butt; stroke-linejoin:round; stroke-width:2; stroke-opacity:0.1; fill:none" points="
  201.019,300.684 2352.76,300.684 
  "/>
<polyline clip-path="url(#clip042)" style="stroke:#000000; stroke-linecap:butt; stroke-linejoin:round; stroke-width:2; stroke-opacity:0.1; fill:none" points="
  201.019,58.5851 2352.76,58.5851 
  "/>
<polyline clip-path="url(#clip040)" style="stroke:#000000; stroke-linecap:butt; stroke-linejoin:round; stroke-width:4; stroke-opacity:1; fill:none" points="
  201.019,1486.45 201.019,47.2441 
  "/>
<polyline clip-path="url(#clip040)" style="stroke:#000000; stroke-linecap:butt; stroke-linejoin:round; stroke-width:4; stroke-opacity:1; fill:none" points="
  201.019,1269.08 226.84,1269.08 
  "/>
<polyline clip-path="url(#clip040)" style="stroke:#000000; stroke-linecap:butt; stroke-linejoin:round; stroke-width:4; stroke-opacity:1; fill:none" points="
  201.019,1026.98 226.84,1026.98 
  "/>
<polyline clip-path="url(#clip040)" style="stroke:#000000; stroke-linecap:butt; stroke-linejoin:round; stroke-width:4; stroke-opacity:1; fill:none" points="
  201.019,784.882 226.84,784.882 
  "/>
<polyline clip-path="url(#clip040)" style="stroke:#000000; stroke-linecap:butt; stroke-linejoin:round; stroke-width:4; stroke-opacity:1; fill:none" points="
  201.019,542.783 226.84,542.783 
  "/>
<polyline clip-path="url(#clip040)" style="stroke:#000000; stroke-linecap:butt; stroke-linejoin:round; stroke-width:4; stroke-opacity:1; fill:none" points="
  201.019,300.684 226.84,300.684 
  "/>
<polyline clip-path="url(#clip040)" style="stroke:#000000; stroke-linecap:butt; stroke-linejoin:round; stroke-width:4; stroke-opacity:1; fill:none" points="
  201.019,58.5851 226.84,58.5851 
  "/>
<path clip-path="url(#clip040)" d="M56.6171 1282.43 L72.9365 1282.43 L72.9365 1286.36 L50.9921 1286.36 L50.9921 1282.43 Q53.6541 1279.67 58.2375 1275.04 Q62.8439 1270.39 64.0245 1269.05 Q66.2698 1266.52 67.1494 1264.79 Q68.0522 1263.03 68.0522 1261.34 Q68.0522 1258.58 66.1078 1256.85 Q64.1865 1255.11 61.0847 1255.11 Q58.8856 1255.11 56.4319 1255.87 Q54.0014 1256.64 51.2236 1258.19 L51.2236 1253.47 Q54.0477 1252.33 56.5014 1251.75 Q58.955 1251.18 60.9921 1251.18 Q66.3624 1251.18 69.5568 1253.86 Q72.7513 1256.55 72.7513 1261.04 Q72.7513 1263.17 71.9411 1265.09 Q71.1541 1266.99 69.0476 1269.58 Q68.4689 1270.25 65.367 1273.47 Q62.2652 1276.66 56.6171 1282.43 Z" fill="#000000" fill-rule="evenodd" fill-opacity="1" /><path clip-path="url(#clip040)" d="M96.9178 1267.73 Q100.274 1268.44 102.149 1270.71 Q104.047 1272.98 104.047 1276.31 Q104.047 1281.43 100.529 1284.23 Q97.0104 1287.03 90.529 1287.03 Q88.353 1287.03 86.0382 1286.59 Q83.7466 1286.18 81.2929 1285.32 L81.2929 1280.8 Q83.2373 1281.94 85.5521 1282.52 Q87.8669 1283.1 90.3901 1283.1 Q94.7882 1283.1 97.0798 1281.36 Q99.3946 1279.62 99.3946 1276.31 Q99.3946 1273.26 97.2419 1271.55 Q95.1123 1269.81 91.2928 1269.81 L87.2651 1269.81 L87.2651 1265.97 L91.478 1265.97 Q94.9271 1265.97 96.7558 1264.6 Q98.5845 1263.21 98.5845 1260.62 Q98.5845 1257.96 96.6863 1256.55 Q94.8113 1255.11 91.2928 1255.11 Q89.3715 1255.11 87.1725 1255.53 Q84.9734 1255.94 82.3346 1256.82 L82.3346 1252.66 Q84.9966 1251.92 87.3114 1251.55 Q89.6493 1251.18 91.7095 1251.18 Q97.0335 1251.18 100.135 1253.61 Q103.237 1256.01 103.237 1260.13 Q103.237 1263 101.594 1264.99 Q99.9502 1266.96 96.9178 1267.73 Z" fill="#000000" fill-rule="evenodd" fill-opacity="1" /><path clip-path="url(#clip040)" d="M122.913 1254.88 Q119.302 1254.88 117.473 1258.44 Q115.668 1261.99 115.668 1269.12 Q115.668 1276.22 117.473 1279.79 Q119.302 1283.33 122.913 1283.33 Q126.547 1283.33 128.353 1279.79 Q130.182 1276.22 130.182 1269.12 Q130.182 1261.99 128.353 1258.44 Q126.547 1254.88 122.913 1254.88 M122.913 1251.18 Q128.723 1251.18 131.779 1255.78 Q134.857 1260.37 134.857 1269.12 Q134.857 1277.84 131.779 1282.45 Q128.723 1287.03 122.913 1287.03 Q117.103 1287.03 114.024 1282.45 Q110.969 1277.84 110.969 1269.12 Q110.969 1260.37 114.024 1255.78 Q117.103 1251.18 122.913 1251.18 Z" fill="#000000" fill-rule="evenodd" fill-opacity="1" /><path clip-path="url(#clip040)" d="M153.075 1254.88 Q149.464 1254.88 147.635 1258.44 Q145.83 1261.99 145.83 1269.12 Q145.83 1276.22 147.635 1279.79 Q149.464 1283.33 153.075 1283.33 Q156.709 1283.33 158.515 1279.79 Q160.343 1276.22 160.343 1269.12 Q160.343 1261.99 158.515 1258.44 Q156.709 1254.88 153.075 1254.88 M153.075 1251.18 Q158.885 1251.18 161.941 1255.78 Q165.019 1260.37 165.019 1269.12 Q165.019 1277.84 161.941 1282.45 Q158.885 1287.03 153.075 1287.03 Q147.265 1287.03 144.186 1282.45 Q141.131 1277.84 141.131 1269.12 Q141.131 1260.37 144.186 1255.78 Q147.265 1251.18 153.075 1251.18 Z" fill="#000000" fill-rule="evenodd" fill-opacity="1" /><path clip-path="url(#clip040)" d="M56.6171 1040.33 L72.9365 1040.33 L72.9365 1044.26 L50.9921 1044.26 L50.9921 1040.33 Q53.6541 1037.57 58.2375 1032.94 Q62.8439 1028.29 64.0245 1026.95 Q66.2698 1024.42 67.1494 1022.69 Q68.0522 1020.93 68.0522 1019.24 Q68.0522 1016.48 66.1078 1014.75 Q64.1865 1013.01 61.0847 1013.01 Q58.8856 1013.01 56.4319 1013.78 Q54.0014 1014.54 51.2236 1016.09 L51.2236 1011.37 Q54.0477 1010.23 56.5014 1009.65 Q58.955 1009.08 60.9921 1009.08 Q66.3624 1009.08 69.5568 1011.76 Q72.7513 1014.45 72.7513 1018.94 Q72.7513 1021.07 71.9411 1022.99 Q71.1541 1024.89 69.0476 1027.48 Q68.4689 1028.15 65.367 1031.37 Q62.2652 1034.56 56.6171 1040.33 Z" fill="#000000" fill-rule="evenodd" fill-opacity="1" /><path clip-path="url(#clip040)" d="M96.9178 1025.63 Q100.274 1026.34 102.149 1028.61 Q104.047 1030.88 104.047 1034.22 Q104.047 1039.33 100.529 1042.13 Q97.0104 1044.93 90.529 1044.93 Q88.353 1044.93 86.0382 1044.49 Q83.7466 1044.08 81.2929 1043.22 L81.2929 1038.71 Q83.2373 1039.84 85.5521 1040.42 Q87.8669 1041 90.3901 1041 Q94.7882 1041 97.0798 1039.26 Q99.3946 1037.53 99.3946 1034.22 Q99.3946 1031.16 97.2419 1029.45 Q95.1123 1027.71 91.2928 1027.71 L87.2651 1027.71 L87.2651 1023.87 L91.478 1023.87 Q94.9271 1023.87 96.7558 1022.5 Q98.5845 1021.11 98.5845 1018.52 Q98.5845 1015.86 96.6863 1014.45 Q94.8113 1013.01 91.2928 1013.01 Q89.3715 1013.01 87.1725 1013.43 Q84.9734 1013.84 82.3346 1014.72 L82.3346 1010.56 Q84.9966 1009.82 87.3114 1009.45 Q89.6493 1009.08 91.7095 1009.08 Q97.0335 1009.08 100.135 1011.51 Q103.237 1013.91 103.237 1018.03 Q103.237 1020.9 101.594 1022.9 Q99.9502 1024.86 96.9178 1025.63 Z" fill="#000000" fill-rule="evenodd" fill-opacity="1" /><path clip-path="url(#clip040)" d="M112.959 1009.7 L131.316 1009.7 L131.316 1013.64 L117.242 1013.64 L117.242 1022.11 Q118.26 1021.76 119.279 1021.6 Q120.297 1021.41 121.316 1021.41 Q127.103 1021.41 130.482 1024.59 Q133.862 1027.76 133.862 1033.17 Q133.862 1038.75 130.39 1041.85 Q126.918 1044.93 120.598 1044.93 Q118.422 1044.93 116.154 1044.56 Q113.908 1044.19 111.501 1043.45 L111.501 1038.75 Q113.584 1039.89 115.807 1040.44 Q118.029 1041 120.506 1041 Q124.51 1041 126.848 1038.89 Q129.186 1036.78 129.186 1033.17 Q129.186 1029.56 126.848 1027.46 Q124.51 1025.35 120.506 1025.35 Q118.631 1025.35 116.756 1025.77 Q114.904 1026.18 112.959 1027.06 L112.959 1009.7 Z" fill="#000000" fill-rule="evenodd" fill-opacity="1" /><path clip-path="url(#clip040)" d="M153.075 1012.78 Q149.464 1012.78 147.635 1016.34 Q145.83 1019.89 145.83 1027.02 Q145.83 1034.12 147.635 1037.69 Q149.464 1041.23 153.075 1041.23 Q156.709 1041.23 158.515 1037.69 Q160.343 1034.12 160.343 1027.02 Q160.343 1019.89 158.515 1016.34 Q156.709 1012.78 153.075 1012.78 M153.075 1009.08 Q158.885 1009.08 161.941 1013.68 Q165.019 1018.27 165.019 1027.02 Q165.019 1035.74 161.941 1040.35 Q158.885 1044.93 153.075 1044.93 Q147.265 1044.93 144.186 1040.35 Q141.131 1035.74 141.131 1027.02 Q141.131 1018.27 144.186 1013.68 Q147.265 1009.08 153.075 1009.08 Z" fill="#000000" fill-rule="evenodd" fill-opacity="1" /><path clip-path="url(#clip040)" d="M56.6171 798.227 L72.9365 798.227 L72.9365 802.162 L50.9921 802.162 L50.9921 798.227 Q53.6541 795.472 58.2375 790.843 Q62.8439 786.19 64.0245 784.848 Q66.2698 782.324 67.1494 780.588 Q68.0522 778.829 68.0522 777.139 Q68.0522 774.385 66.1078 772.649 Q64.1865 770.912 61.0847 770.912 Q58.8856 770.912 56.4319 771.676 Q54.0014 772.44 51.2236 773.991 L51.2236 769.269 Q54.0477 768.135 56.5014 767.556 Q58.955 766.977 60.9921 766.977 Q66.3624 766.977 69.5568 769.662 Q72.7513 772.348 72.7513 776.838 Q72.7513 778.968 71.9411 780.889 Q71.1541 782.787 69.0476 785.38 Q68.4689 786.051 65.367 789.269 Q62.2652 792.463 56.6171 798.227 Z" fill="#000000" fill-rule="evenodd" fill-opacity="1" /><path clip-path="url(#clip040)" d="M95.5984 771.676 L83.7929 790.125 L95.5984 790.125 L95.5984 771.676 M94.3715 767.602 L100.251 767.602 L100.251 790.125 L105.182 790.125 L105.182 794.014 L100.251 794.014 L100.251 802.162 L95.5984 802.162 L95.5984 794.014 L79.9966 794.014 L79.9966 789.5 L94.3715 767.602 Z" fill="#000000" fill-rule="evenodd" fill-opacity="1" /><path clip-path="url(#clip040)" d="M122.913 770.681 Q119.302 770.681 117.473 774.246 Q115.668 777.787 115.668 784.917 Q115.668 792.023 117.473 795.588 Q119.302 799.13 122.913 799.13 Q126.547 799.13 128.353 795.588 Q130.182 792.023 130.182 784.917 Q130.182 777.787 128.353 774.246 Q126.547 770.681 122.913 770.681 M122.913 766.977 Q128.723 766.977 131.779 771.584 Q134.857 776.167 134.857 784.917 Q134.857 793.644 131.779 798.25 Q128.723 802.834 122.913 802.834 Q117.103 802.834 114.024 798.25 Q110.969 793.644 110.969 784.917 Q110.969 776.167 114.024 771.584 Q117.103 766.977 122.913 766.977 Z" fill="#000000" fill-rule="evenodd" fill-opacity="1" /><path clip-path="url(#clip040)" d="M153.075 770.681 Q149.464 770.681 147.635 774.246 Q145.83 777.787 145.83 784.917 Q145.83 792.023 147.635 795.588 Q149.464 799.13 153.075 799.13 Q156.709 799.13 158.515 795.588 Q160.343 792.023 160.343 784.917 Q160.343 777.787 158.515 774.246 Q156.709 770.681 153.075 770.681 M153.075 766.977 Q158.885 766.977 161.941 771.584 Q165.019 776.167 165.019 784.917 Q165.019 793.644 161.941 798.25 Q158.885 802.834 153.075 802.834 Q147.265 802.834 144.186 798.25 Q141.131 793.644 141.131 784.917 Q141.131 776.167 144.186 771.584 Q147.265 766.977 153.075 766.977 Z" fill="#000000" fill-rule="evenodd" fill-opacity="1" /><path clip-path="url(#clip040)" d="M56.6171 556.128 L72.9365 556.128 L72.9365 560.063 L50.9921 560.063 L50.9921 556.128 Q53.6541 553.373 58.2375 548.744 Q62.8439 544.091 64.0245 542.748 Q66.2698 540.225 67.1494 538.489 Q68.0522 536.73 68.0522 535.04 Q68.0522 532.286 66.1078 530.549 Q64.1865 528.813 61.0847 528.813 Q58.8856 528.813 56.4319 529.577 Q54.0014 530.341 51.2236 531.892 L51.2236 527.17 Q54.0477 526.036 56.5014 525.457 Q58.955 524.878 60.9921 524.878 Q66.3624 524.878 69.5568 527.563 Q72.7513 530.249 72.7513 534.739 Q72.7513 536.869 71.9411 538.79 Q71.1541 540.688 69.0476 543.281 Q68.4689 543.952 65.367 547.17 Q62.2652 550.364 56.6171 556.128 Z" fill="#000000" fill-rule="evenodd" fill-opacity="1" /><path clip-path="url(#clip040)" d="M95.5984 529.577 L83.7929 548.026 L95.5984 548.026 L95.5984 529.577 M94.3715 525.503 L100.251 525.503 L100.251 548.026 L105.182 548.026 L105.182 551.915 L100.251 551.915 L100.251 560.063 L95.5984 560.063 L95.5984 551.915 L79.9966 551.915 L79.9966 547.401 L94.3715 525.503 Z" fill="#000000" fill-rule="evenodd" fill-opacity="1" /><path clip-path="url(#clip040)" d="M112.959 525.503 L131.316 525.503 L131.316 529.438 L117.242 529.438 L117.242 537.911 Q118.26 537.563 119.279 537.401 Q120.297 537.216 121.316 537.216 Q127.103 537.216 130.482 540.387 Q133.862 543.559 133.862 548.975 Q133.862 554.554 130.39 557.656 Q126.918 560.734 120.598 560.734 Q118.422 560.734 116.154 560.364 Q113.908 559.994 111.501 559.253 L111.501 554.554 Q113.584 555.688 115.807 556.244 Q118.029 556.799 120.506 556.799 Q124.51 556.799 126.848 554.693 Q129.186 552.586 129.186 548.975 Q129.186 545.364 126.848 543.258 Q124.51 541.151 120.506 541.151 Q118.631 541.151 116.756 541.568 Q114.904 541.985 112.959 542.864 L112.959 525.503 Z" fill="#000000" fill-rule="evenodd" fill-opacity="1" /><path clip-path="url(#clip040)" d="M153.075 528.582 Q149.464 528.582 147.635 532.147 Q145.83 535.688 145.83 542.818 Q145.83 549.924 147.635 553.489 Q149.464 557.031 153.075 557.031 Q156.709 557.031 158.515 553.489 Q160.343 549.924 160.343 542.818 Q160.343 535.688 158.515 532.147 Q156.709 528.582 153.075 528.582 M153.075 524.878 Q158.885 524.878 161.941 529.485 Q165.019 534.068 165.019 542.818 Q165.019 551.545 161.941 556.151 Q158.885 560.734 153.075 560.734 Q147.265 560.734 144.186 556.151 Q141.131 551.545 141.131 542.818 Q141.131 534.068 144.186 529.485 Q147.265 524.878 153.075 524.878 Z" fill="#000000" fill-rule="evenodd" fill-opacity="1" /><path clip-path="url(#clip040)" d="M56.6171 314.029 L72.9365 314.029 L72.9365 317.964 L50.9921 317.964 L50.9921 314.029 Q53.6541 311.274 58.2375 306.645 Q62.8439 301.992 64.0245 300.649 Q66.2698 298.126 67.1494 296.39 Q68.0522 294.631 68.0522 292.941 Q68.0522 290.187 66.1078 288.45 Q64.1865 286.714 61.0847 286.714 Q58.8856 286.714 56.4319 287.478 Q54.0014 288.242 51.2236 289.793 L51.2236 285.071 Q54.0477 283.937 56.5014 283.358 Q58.955 282.779 60.9921 282.779 Q66.3624 282.779 69.5568 285.464 Q72.7513 288.15 72.7513 292.64 Q72.7513 294.77 71.9411 296.691 Q71.1541 298.589 69.0476 301.182 Q68.4689 301.853 65.367 305.071 Q62.2652 308.265 56.6171 314.029 Z" fill="#000000" fill-rule="evenodd" fill-opacity="1" /><path clip-path="url(#clip040)" d="M82.7975 283.404 L101.154 283.404 L101.154 287.339 L87.0799 287.339 L87.0799 295.812 Q88.0984 295.464 89.1169 295.302 Q90.1354 295.117 91.1539 295.117 Q96.941 295.117 100.321 298.288 Q103.7 301.46 103.7 306.876 Q103.7 312.455 100.228 315.557 Q96.7558 318.635 90.4364 318.635 Q88.2604 318.635 85.9919 318.265 Q83.7466 317.895 81.3392 317.154 L81.3392 312.455 Q83.4225 313.589 85.6447 314.145 Q87.8669 314.7 90.3438 314.7 Q94.3484 314.7 96.6863 312.594 Q99.0243 310.487 99.0243 306.876 Q99.0243 303.265 96.6863 301.159 Q94.3484 299.052 90.3438 299.052 Q88.4688 299.052 86.5938 299.469 Q84.7419 299.886 82.7975 300.765 L82.7975 283.404 Z" fill="#000000" fill-rule="evenodd" fill-opacity="1" /><path clip-path="url(#clip040)" d="M122.913 286.483 Q119.302 286.483 117.473 290.048 Q115.668 293.589 115.668 300.719 Q115.668 307.825 117.473 311.39 Q119.302 314.932 122.913 314.932 Q126.547 314.932 128.353 311.39 Q130.182 307.825 130.182 300.719 Q130.182 293.589 128.353 290.048 Q126.547 286.483 122.913 286.483 M122.913 282.779 Q128.723 282.779 131.779 287.386 Q134.857 291.969 134.857 300.719 Q134.857 309.446 131.779 314.052 Q128.723 318.635 122.913 318.635 Q117.103 318.635 114.024 314.052 Q110.969 309.446 110.969 300.719 Q110.969 291.969 114.024 287.386 Q117.103 282.779 122.913 282.779 Z" fill="#000000" fill-rule="evenodd" fill-opacity="1" /><path clip-path="url(#clip040)" d="M153.075 286.483 Q149.464 286.483 147.635 290.048 Q145.83 293.589 145.83 300.719 Q145.83 307.825 147.635 311.39 Q149.464 314.932 153.075 314.932 Q156.709 314.932 158.515 311.39 Q160.343 307.825 160.343 300.719 Q160.343 293.589 158.515 290.048 Q156.709 286.483 153.075 286.483 M153.075 282.779 Q158.885 282.779 161.941 287.386 Q165.019 291.969 165.019 300.719 Q165.019 309.446 161.941 314.052 Q158.885 318.635 153.075 318.635 Q147.265 318.635 144.186 314.052 Q141.131 309.446 141.131 300.719 Q141.131 291.969 144.186 287.386 Q147.265 282.779 153.075 282.779 Z" fill="#000000" fill-rule="evenodd" fill-opacity="1" /><path clip-path="url(#clip040)" d="M56.6171 71.93 L72.9365 71.93 L72.9365 75.8651 L50.9921 75.8651 L50.9921 71.93 Q53.6541 69.1753 58.2375 64.5457 Q62.8439 59.893 64.0245 58.5504 Q66.2698 56.0273 67.1494 54.2912 Q68.0522 52.5319 68.0522 50.8421 Q68.0522 48.0875 66.1078 46.3514 Q64.1865 44.6153 61.0847 44.6153 Q58.8856 44.6153 56.4319 45.3792 Q54.0014 46.1431 51.2236 47.694 L51.2236 42.9718 Q54.0477 41.8375 56.5014 41.2588 Q58.955 40.6801 60.9921 40.6801 Q66.3624 40.6801 69.5568 43.3653 Q72.7513 46.0505 72.7513 50.5412 Q72.7513 52.6708 71.9411 54.5921 Q71.1541 56.4902 69.0476 59.0828 Q68.4689 59.7541 65.367 62.9717 Q62.2652 66.1661 56.6171 71.93 Z" fill="#000000" fill-rule="evenodd" fill-opacity="1" /><path clip-path="url(#clip040)" d="M82.7975 41.3051 L101.154 41.3051 L101.154 45.2403 L87.0799 45.2403 L87.0799 53.7125 Q88.0984 53.3652 89.1169 53.2032 Q90.1354 53.018 91.1539 53.018 Q96.941 53.018 100.321 56.1893 Q103.7 59.3606 103.7 64.7772 Q103.7 70.3559 100.228 73.4577 Q96.7558 76.5364 90.4364 76.5364 Q88.2604 76.5364 85.9919 76.166 Q83.7466 75.7957 81.3392 75.0549 L81.3392 70.3559 Q83.4225 71.4901 85.6447 72.0457 Q87.8669 72.6013 90.3438 72.6013 Q94.3484 72.6013 96.6863 70.4948 Q99.0243 68.3883 99.0243 64.7772 Q99.0243 61.1661 96.6863 59.0597 Q94.3484 56.9532 90.3438 56.9532 Q88.4688 56.9532 86.5938 57.3699 Q84.7419 57.7865 82.7975 58.6661 L82.7975 41.3051 Z" fill="#000000" fill-rule="evenodd" fill-opacity="1" /><path clip-path="url(#clip040)" d="M112.959 41.3051 L131.316 41.3051 L131.316 45.2403 L117.242 45.2403 L117.242 53.7125 Q118.26 53.3652 119.279 53.2032 Q120.297 53.018 121.316 53.018 Q127.103 53.018 130.482 56.1893 Q133.862 59.3606 133.862 64.7772 Q133.862 70.3559 130.39 73.4577 Q126.918 76.5364 120.598 76.5364 Q118.422 76.5364 116.154 76.166 Q113.908 75.7957 111.501 75.0549 L111.501 70.3559 Q113.584 71.4901 115.807 72.0457 Q118.029 72.6013 120.506 72.6013 Q124.51 72.6013 126.848 70.4948 Q129.186 68.3883 129.186 64.7772 Q129.186 61.1661 126.848 59.0597 Q124.51 56.9532 120.506 56.9532 Q118.631 56.9532 116.756 57.3699 Q114.904 57.7865 112.959 58.6661 L112.959 41.3051 Z" fill="#000000" fill-rule="evenodd" fill-opacity="1" /><path clip-path="url(#clip040)" d="M153.075 44.3838 Q149.464 44.3838 147.635 47.9486 Q145.83 51.4903 145.83 58.6198 Q145.83 65.7263 147.635 69.2911 Q149.464 72.8327 153.075 72.8327 Q156.709 72.8327 158.515 69.2911 Q160.343 65.7263 160.343 58.6198 Q160.343 51.4903 158.515 47.9486 Q156.709 44.3838 153.075 44.3838 M153.075 40.6801 Q158.885 40.6801 161.941 45.2866 Q165.019 49.8699 165.019 58.6198 Q165.019 67.3467 161.941 71.9531 Q158.885 76.5364 153.075 76.5364 Q147.265 76.5364 144.186 71.9531 Q141.131 67.3467 141.131 58.6198 Q141.131 49.8699 144.186 45.2866 Q147.265 40.6801 153.075 40.6801 Z" fill="#000000" fill-rule="evenodd" fill-opacity="1" /><polyline clip-path="url(#clip042)" style="stroke:#009af9; stroke-linecap:butt; stroke-linejoin:round; stroke-width:4; stroke-opacity:1; fill:none" points="
  261.917,1441.46 329.582,1133.31 397.247,949.558 600.241,944.668 667.906,688.043 735.57,722.736 803.235,606.02 870.9,678.553 1141.56,678.359 1209.22,613.912 
  1276.89,808.995 1344.55,675.841 1547.55,536.391 1615.21,398.008 1682.88,303.105 1750.54,329.688 1818.2,180.022 2021.2,235.851 2088.86,153.295 2156.53,179.877 
  2224.19,250.037 2291.86,232.363 
  "/>
<polyline clip-path="url(#clip042)" style="stroke:#e26f46; stroke-linecap:butt; stroke-linejoin:round; stroke-width:4; stroke-opacity:1; fill:none" points="
  261.917,1187.93 329.582,976.915 397.247,934.984 600.241,695.403 667.906,625.63 735.57,576.948 803.235,591.203 870.9,648.629 1141.56,601.028 1209.22,581.519 
  1276.89,737.697 1344.55,524.099 1547.55,455.628 1615.21,327.339 1682.88,276.474 1750.54,188.06 1818.2,169.999 2021.2,163.995 2088.86,120.369 2156.53,153.149 
  2224.19,87.9763 2291.86,179.635 
  "/>
<polyline clip-path="url(#clip042)" style="stroke:#3da44d; stroke-linecap:butt; stroke-linejoin:round; stroke-width:4; stroke-opacity:1; fill:none" points="
  261.917,1445.72 329.582,1166.96 397.247,1063.93 600.241,978.028 667.906,770.405 735.57,724.285 803.235,775.198 870.9,747.648 1141.56,761.254 1209.22,764.546 
  1276.89,868.019 1344.55,698.84 1547.55,586.008 1615.21,454.466 1682.88,362.032 1750.54,329.736 1818.2,308.964 2021.2,296.133 2088.86,237.884 2156.53,383.003 
  2224.19,250.812 2291.86,338.935 
  "/>
<polyline clip-path="url(#clip042)" style="stroke:#c271d2; stroke-linecap:butt; stroke-linejoin:round; stroke-width:4; stroke-opacity:1; fill:none" points="
  261.917,1226.91 329.582,997.493 397.247,1050.71 600.241,752.587 667.906,740.965 735.57,622.53 803.235,772.729 870.9,728.909 1141.56,640.543 1209.22,681.845 
  1276.89,762.56 1344.55,534.261 1547.55,464.875 1615.21,383.724 1682.88,342.326 1750.54,196.097 1818.2,233.236 2021.2,169.757 2088.86,200.649 2156.53,233.236 
  2224.19,167.917 2291.86,245.727 
  "/>
<path clip-path="url(#clip040)" d="
M1917.99 397.618 L2281.03 397.618 L2281.03 95.2176 L1917.99 95.2176  Z
  " fill="#ffffff" fill-rule="evenodd" fill-opacity="1"/>
<polyline clip-path="url(#clip040)" style="stroke:#000000; stroke-linecap:butt; stroke-linejoin:round; stroke-width:4; stroke-opacity:1; fill:none" points="
  1917.99,397.618 2281.03,397.618 2281.03,95.2176 1917.99,95.2176 1917.99,397.618 
  "/>
<polyline clip-path="url(#clip040)" style="stroke:#009af9; stroke-linecap:butt; stroke-linejoin:round; stroke-width:4; stroke-opacity:1; fill:none" points="
  1941.9,155.698 2085.35,155.698 
  "/>
<path clip-path="url(#clip040)" d="M2125.28 141.589 Q2120.18 141.589 2117.17 145.385 Q2114.19 149.181 2114.19 155.732 Q2114.19 162.26 2117.17 166.056 Q2120.18 169.853 2125.28 169.853 Q2130.37 169.853 2133.33 166.056 Q2136.32 162.26 2136.32 155.732 Q2136.32 149.181 2133.33 145.385 Q2130.37 141.589 2125.28 141.589 M2125.28 137.793 Q2132.54 137.793 2136.9 142.677 Q2141.25 147.538 2141.25 155.732 Q2141.25 163.904 2136.9 168.788 Q2132.54 173.649 2125.28 173.649 Q2117.98 173.649 2113.61 168.788 Q2109.26 163.927 2109.26 155.732 Q2109.26 147.538 2113.61 142.677 Q2117.98 137.793 2125.28 137.793 Z" fill="#000000" fill-rule="evenodd" fill-opacity="1" /><path clip-path="url(#clip040)" d="M2152.5 169.089 L2152.5 182.839 L2148.22 182.839 L2148.22 147.052 L2152.5 147.052 L2152.5 150.987 Q2153.84 148.672 2155.88 147.561 Q2157.94 146.427 2160.78 146.427 Q2165.51 146.427 2168.45 150.177 Q2171.41 153.927 2171.41 160.038 Q2171.41 166.149 2168.45 169.899 Q2165.51 173.649 2160.78 173.649 Q2157.94 173.649 2155.88 172.538 Q2153.84 171.403 2152.5 169.089 M2166.99 160.038 Q2166.99 155.339 2165.04 152.677 Q2163.12 149.992 2159.74 149.992 Q2156.36 149.992 2154.42 152.677 Q2152.5 155.339 2152.5 160.038 Q2152.5 164.737 2154.42 167.422 Q2156.36 170.084 2159.74 170.084 Q2163.12 170.084 2165.04 167.422 Q2166.99 164.737 2166.99 160.038 Z" fill="#000000" fill-rule="evenodd" fill-opacity="1" /><path clip-path="url(#clip040)" d="M2200.65 158.95 L2200.65 161.033 L2181.06 161.033 Q2181.34 165.431 2183.7 167.746 Q2186.09 170.038 2190.32 170.038 Q2192.78 170.038 2195.07 169.436 Q2197.38 168.834 2199.65 167.63 L2199.65 171.658 Q2197.36 172.63 2194.95 173.14 Q2192.54 173.649 2190.07 173.649 Q2183.86 173.649 2180.23 170.038 Q2176.62 166.427 2176.62 160.269 Q2176.62 153.904 2180.04 150.177 Q2183.49 146.427 2189.33 146.427 Q2194.56 146.427 2197.59 149.806 Q2200.65 153.163 2200.65 158.95 M2196.39 157.7 Q2196.34 154.205 2194.42 152.121 Q2192.52 150.038 2189.37 150.038 Q2185.81 150.038 2183.66 152.052 Q2181.53 154.066 2181.2 157.723 L2196.39 157.7 Z" fill="#000000" fill-rule="evenodd" fill-opacity="1" /><path clip-path="url(#clip040)" d="M2229.19 157.329 L2229.19 172.978 L2224.93 172.978 L2224.93 157.468 Q2224.93 153.788 2223.49 151.959 Q2222.06 150.13 2219.19 150.13 Q2215.74 150.13 2213.75 152.33 Q2211.76 154.529 2211.76 158.325 L2211.76 172.978 L2207.47 172.978 L2207.47 147.052 L2211.76 147.052 L2211.76 151.08 Q2213.28 148.742 2215.34 147.584 Q2217.43 146.427 2220.14 146.427 Q2224.6 146.427 2226.9 149.205 Q2229.19 151.959 2229.19 157.329 Z" fill="#000000" fill-rule="evenodd" fill-opacity="1" /><polyline clip-path="url(#clip040)" style="stroke:#e26f46; stroke-linecap:butt; stroke-linejoin:round; stroke-width:4; stroke-opacity:1; fill:none" points="
  1941.9,216.178 2085.35,216.178 
  "/>
<path clip-path="url(#clip040)" d="M2109.26 198.898 L2113.93 198.898 L2113.93 213.064 L2130.92 213.064 L2130.92 198.898 L2135.6 198.898 L2135.6 233.458 L2130.92 233.458 L2130.92 216.999 L2113.93 216.999 L2113.93 233.458 L2109.26 233.458 L2109.26 198.898 Z" fill="#000000" fill-rule="evenodd" fill-opacity="1" /><path clip-path="url(#clip040)" d="M2144.72 207.532 L2148.98 207.532 L2148.98 233.458 L2144.72 233.458 L2144.72 207.532 M2144.72 197.439 L2148.98 197.439 L2148.98 202.833 L2144.72 202.833 L2144.72 197.439 Z" fill="#000000" fill-rule="evenodd" fill-opacity="1" /><path clip-path="url(#clip040)" d="M2174.95 220.194 Q2174.95 215.564 2173.03 213.018 Q2171.13 210.472 2167.68 210.472 Q2164.26 210.472 2162.34 213.018 Q2160.44 215.564 2160.44 220.194 Q2160.44 224.8 2162.34 227.346 Q2164.26 229.893 2167.68 229.893 Q2171.13 229.893 2173.03 227.346 Q2174.95 224.8 2174.95 220.194 M2179.21 230.24 Q2179.21 236.86 2176.27 240.078 Q2173.33 243.319 2167.27 243.319 Q2165.02 243.319 2163.03 242.971 Q2161.04 242.647 2159.16 241.953 L2159.16 237.809 Q2161.04 238.828 2162.87 239.314 Q2164.7 239.8 2166.59 239.8 Q2170.78 239.8 2172.87 237.601 Q2174.95 235.425 2174.95 231.004 L2174.95 228.897 Q2173.63 231.189 2171.57 232.323 Q2169.51 233.458 2166.64 233.458 Q2161.87 233.458 2158.96 229.823 Q2156.04 226.189 2156.04 220.194 Q2156.04 214.175 2158.96 210.541 Q2161.87 206.907 2166.64 206.907 Q2169.51 206.907 2171.57 208.041 Q2173.63 209.175 2174.95 211.467 L2174.95 207.532 L2179.21 207.532 L2179.21 230.24 Z" fill="#000000" fill-rule="evenodd" fill-opacity="1" /><path clip-path="url(#clip040)" d="M2209.53 217.809 L2209.53 233.458 L2205.28 233.458 L2205.28 217.948 Q2205.28 214.268 2203.84 212.439 Q2202.4 210.61 2199.53 210.61 Q2196.09 210.61 2194.09 212.81 Q2192.1 215.009 2192.1 218.805 L2192.1 233.458 L2187.82 233.458 L2187.82 197.439 L2192.1 197.439 L2192.1 211.56 Q2193.63 209.222 2195.69 208.064 Q2197.78 206.907 2200.48 206.907 Q2204.95 206.907 2207.24 209.685 Q2209.53 212.439 2209.53 217.809 Z" fill="#000000" fill-rule="evenodd" fill-opacity="1" /><polyline clip-path="url(#clip040)" style="stroke:#3da44d; stroke-linecap:butt; stroke-linejoin:round; stroke-width:4; stroke-opacity:1; fill:none" points="
  1941.9,276.658 2085.35,276.658 
  "/>
<path clip-path="url(#clip040)" d="M2109.26 259.378 L2113.93 259.378 L2113.93 290.002 L2130.76 290.002 L2130.76 293.938 L2109.26 293.938 L2109.26 259.378 Z" fill="#000000" fill-rule="evenodd" fill-opacity="1" /><path clip-path="url(#clip040)" d="M2144.7 270.998 Q2141.27 270.998 2139.28 273.683 Q2137.29 276.345 2137.29 280.998 Q2137.29 285.651 2139.26 288.336 Q2141.25 290.998 2144.7 290.998 Q2148.1 290.998 2150.09 288.313 Q2152.08 285.627 2152.08 280.998 Q2152.08 276.391 2150.09 273.706 Q2148.1 270.998 2144.7 270.998 M2144.7 267.387 Q2150.25 267.387 2153.42 270.998 Q2156.6 274.609 2156.6 280.998 Q2156.6 287.364 2153.42 290.998 Q2150.25 294.609 2144.7 294.609 Q2139.12 294.609 2135.95 290.998 Q2132.8 287.364 2132.8 280.998 Q2132.8 274.609 2135.95 270.998 Q2139.12 267.387 2144.7 267.387 Z" fill="#000000" fill-rule="evenodd" fill-opacity="1" /><path clip-path="url(#clip040)" d="M2161.18 268.012 L2165.44 268.012 L2170.76 288.243 L2176.06 268.012 L2181.09 268.012 L2186.41 288.243 L2191.71 268.012 L2195.97 268.012 L2189.19 293.938 L2184.16 293.938 L2178.59 272.688 L2172.98 293.938 L2167.96 293.938 L2161.18 268.012 Z" fill="#000000" fill-rule="evenodd" fill-opacity="1" /><polyline clip-path="url(#clip040)" style="stroke:#c271d2; stroke-linecap:butt; stroke-linejoin:round; stroke-width:4; stroke-opacity:1; fill:none" points="
  1941.9,337.138 2085.35,337.138 
  "/>
<path clip-path="url(#clip040)" d="M2137.13 322.52 L2137.13 327.45 Q2134.77 325.251 2132.08 324.163 Q2129.42 323.075 2126.41 323.075 Q2120.48 323.075 2117.34 326.709 Q2114.19 330.32 2114.19 337.172 Q2114.19 344.001 2117.34 347.635 Q2120.48 351.246 2126.41 351.246 Q2129.42 351.246 2132.08 350.158 Q2134.77 349.07 2137.13 346.871 L2137.13 351.756 Q2134.67 353.422 2131.92 354.256 Q2129.19 355.089 2126.13 355.089 Q2118.29 355.089 2113.77 350.297 Q2109.26 345.482 2109.26 337.172 Q2109.26 328.839 2113.77 324.047 Q2118.29 319.233 2126.13 319.233 Q2129.23 319.233 2131.97 320.066 Q2134.72 320.876 2137.13 322.52 Z" fill="#000000" fill-rule="evenodd" fill-opacity="1" /><path clip-path="url(#clip040)" d="M2144.16 318.399 L2148.42 318.399 L2148.42 354.418 L2144.16 354.418 L2144.16 318.399 Z" fill="#000000" fill-rule="evenodd" fill-opacity="1" /><path clip-path="url(#clip040)" d="M2167.38 331.478 Q2163.96 331.478 2161.97 334.163 Q2159.97 336.825 2159.97 341.478 Q2159.97 346.131 2161.94 348.816 Q2163.93 351.478 2167.38 351.478 Q2170.78 351.478 2172.78 348.793 Q2174.77 346.107 2174.77 341.478 Q2174.77 336.871 2172.78 334.186 Q2170.78 331.478 2167.38 331.478 M2167.38 327.867 Q2172.94 327.867 2176.11 331.478 Q2179.28 335.089 2179.28 341.478 Q2179.28 347.844 2176.11 351.478 Q2172.94 355.089 2167.38 355.089 Q2161.8 355.089 2158.63 351.478 Q2155.48 347.844 2155.48 341.478 Q2155.48 335.089 2158.63 331.478 Q2161.8 327.867 2167.38 327.867 Z" fill="#000000" fill-rule="evenodd" fill-opacity="1" /><path clip-path="url(#clip040)" d="M2202.87 329.256 L2202.87 333.283 Q2201.06 332.357 2199.12 331.895 Q2197.17 331.432 2195.09 331.432 Q2191.92 331.432 2190.32 332.404 Q2188.75 333.376 2188.75 335.32 Q2188.75 336.802 2189.88 337.658 Q2191.02 338.492 2194.44 339.256 L2195.9 339.58 Q2200.44 340.552 2202.34 342.334 Q2204.26 344.094 2204.26 347.265 Q2204.26 350.876 2201.39 352.982 Q2198.54 355.089 2193.54 355.089 Q2191.46 355.089 2189.19 354.672 Q2186.94 354.279 2184.44 353.468 L2184.44 349.07 Q2186.8 350.297 2189.09 350.922 Q2191.39 351.524 2193.63 351.524 Q2196.64 351.524 2198.26 350.506 Q2199.88 349.464 2199.88 347.589 Q2199.88 345.853 2198.7 344.927 Q2197.54 344.001 2193.59 343.144 L2192.1 342.797 Q2188.15 341.964 2186.39 340.251 Q2184.63 338.515 2184.63 335.506 Q2184.63 331.848 2187.22 329.858 Q2189.81 327.867 2194.58 327.867 Q2196.94 327.867 2199.03 328.214 Q2201.11 328.561 2202.87 329.256 Z" fill="#000000" fill-rule="evenodd" fill-opacity="1" /><path clip-path="url(#clip040)" d="M2233.21 340.39 L2233.21 342.473 L2213.63 342.473 Q2213.91 346.871 2216.27 349.186 Q2218.65 351.478 2222.89 351.478 Q2225.34 351.478 2227.64 350.876 Q2229.95 350.274 2232.22 349.07 L2232.22 353.098 Q2229.93 354.07 2227.52 354.58 Q2225.11 355.089 2222.64 355.089 Q2216.43 355.089 2212.8 351.478 Q2209.19 347.867 2209.19 341.709 Q2209.19 335.344 2212.61 331.617 Q2216.06 327.867 2221.9 327.867 Q2227.13 327.867 2230.16 331.246 Q2233.21 334.603 2233.21 340.39 M2228.96 339.14 Q2228.91 335.645 2226.99 333.561 Q2225.09 331.478 2221.94 331.478 Q2218.38 331.478 2216.22 333.492 Q2214.09 335.506 2213.77 339.163 L2228.96 339.14 Z" fill="#000000" fill-rule="evenodd" fill-opacity="1" /></svg>
