<?xml version="1.0" encoding="utf-8"?>
<svg xmlns="http://www.w3.org/2000/svg" xmlns:xlink="http://www.w3.org/1999/xlink" width="600" height="400" viewBox="0 0 2400 1600">
<defs>
  <clipPath id="clip130">
    <rect x="0" y="0" width="2400" height="1600"/>
  </clipPath>
</defs>
<path clip-path="url(#clip130)" d="
M0 1600 L2400 1600 L2400 0 L0 0  Z
  " fill="#ffffff" fill-rule="evenodd" fill-opacity="1"/>
<defs>
  <clipPath id="clip131">
    <rect x="480" y="0" width="1681" height="1600"/>
  </clipPath>
</defs>
<path clip-path="url(#clip130)" d="
M201.019 1330.92 L2352.76 1330.92 L2352.76 47.2441 L201.019 47.2441  Z
  " fill="#ffffff" fill-rule="evenodd" fill-opacity="1"/>
<defs>
  <clipPath id="clip132">
    <rect x="201" y="47" width="2153" height="1285"/>
  </clipPath>
</defs>
<polyline clip-path="url(#clip132)" style="stroke:#000000; stroke-linecap:butt; stroke-linejoin:round; stroke-width:2; stroke-opacity:0.1; fill:none" points="
  303.629,1330.92 303.629,47.2441 
  "/>
<polyline clip-path="url(#clip132)" style="stroke:#000000; stroke-linecap:butt; stroke-linejoin:round; stroke-width:2; stroke-opacity:0.1; fill:none" points="
  396.32,1330.92 396.32,47.2441 
  "/>
<polyline clip-path="url(#clip132)" style="stroke:#000000; stroke-linecap:butt; stroke-linejoin:round; stroke-width:2; stroke-opacity:0.1; fill:none" points="
  489.011,1330.92 489.011,47.2441 
  "/>
<polyline clip-path="url(#clip132)" style="stroke:#000000; stroke-linecap:butt; stroke-linejoin:round; stroke-width:2; stroke-opacity:0.1; fill:none" points="
  581.703,1330.92 581.703,47.2441 
  "/>
<polyline clip-path="url(#clip132)" style="stroke:#000000; stroke-linecap:butt; stroke-linejoin:round; stroke-width:2; stroke-opacity:0.1; fill:none" points="
  674.394,1330.92 674.394,47.2441 
  "/>
<polyline clip-path="url(#clip132)" style="stroke:#000000; stroke-linecap:butt; stroke-linejoin:round; stroke-width:2; stroke-opacity:0.1; fill:none" points="
  767.085,1330.92 767.085,47.2441 
  "/>
<polyline clip-path="url(#clip132)" style="stroke:#000000; stroke-linecap:butt; stroke-linejoin:round; stroke-width:2; stroke-opacity:0.1; fill:none" points="
  859.777,1330.92 859.777,47.2441 
  "/>
<polyline clip-path="url(#clip132)" style="stroke:#000000; stroke-linecap:butt; stroke-linejoin:round; stroke-width:2; stroke-opacity:0.1; fill:none" points="
  952.468,1330.92 952.468,47.2441 
  "/>
<polyline clip-path="url(#clip132)" style="stroke:#000000; stroke-linecap:butt; stroke-linejoin:round; stroke-width:2; stroke-opacity:0.1; fill:none" points="
  1045.16,1330.92 1045.16,47.2441 
  "/>
<polyline clip-path="url(#clip132)" style="stroke:#000000; stroke-linecap:butt; stroke-linejoin:round; stroke-width:2; stroke-opacity:0.1; fill:none" points="
  1137.85,1330.92 1137.85,47.2441 
  "/>
<polyline clip-path="url(#clip132)" style="stroke:#000000; stroke-linecap:butt; stroke-linejoin:round; stroke-width:2; stroke-opacity:0.1; fill:none" points="
  1230.54,1330.92 1230.54,47.2441 
  "/>
<polyline clip-path="url(#clip132)" style="stroke:#000000; stroke-linecap:butt; stroke-linejoin:round; stroke-width:2; stroke-opacity:0.1; fill:none" points="
  1323.23,1330.92 1323.23,47.2441 
  "/>
<polyline clip-path="url(#clip132)" style="stroke:#000000; stroke-linecap:butt; stroke-linejoin:round; stroke-width:2; stroke-opacity:0.1; fill:none" points="
  1415.92,1330.92 1415.92,47.2441 
  "/>
<polyline clip-path="url(#clip132)" style="stroke:#000000; stroke-linecap:butt; stroke-linejoin:round; stroke-width:2; stroke-opacity:0.1; fill:none" points="
  1508.62,1330.92 1508.62,47.2441 
  "/>
<polyline clip-path="url(#clip132)" style="stroke:#000000; stroke-linecap:butt; stroke-linejoin:round; stroke-width:2; stroke-opacity:0.1; fill:none" points="
  1601.31,1330.92 1601.31,47.2441 
  "/>
<polyline clip-path="url(#clip132)" style="stroke:#000000; stroke-linecap:butt; stroke-linejoin:round; stroke-width:2; stroke-opacity:0.1; fill:none" points="
  1694,1330.92 1694,47.2441 
  "/>
<polyline clip-path="url(#clip132)" style="stroke:#000000; stroke-linecap:butt; stroke-linejoin:round; stroke-width:2; stroke-opacity:0.1; fill:none" points="
  1786.69,1330.92 1786.69,47.2441 
  "/>
<polyline clip-path="url(#clip132)" style="stroke:#000000; stroke-linecap:butt; stroke-linejoin:round; stroke-width:2; stroke-opacity:0.1; fill:none" points="
  1879.38,1330.92 1879.38,47.2441 
  "/>
<polyline clip-path="url(#clip132)" style="stroke:#000000; stroke-linecap:butt; stroke-linejoin:round; stroke-width:2; stroke-opacity:0.1; fill:none" points="
  1972.07,1330.92 1972.07,47.2441 
  "/>
<polyline clip-path="url(#clip132)" style="stroke:#000000; stroke-linecap:butt; stroke-linejoin:round; stroke-width:2; stroke-opacity:0.1; fill:none" points="
  2064.76,1330.92 2064.76,47.2441 
  "/>
<polyline clip-path="url(#clip132)" style="stroke:#000000; stroke-linecap:butt; stroke-linejoin:round; stroke-width:2; stroke-opacity:0.1; fill:none" points="
  2157.46,1330.92 2157.46,47.2441 
  "/>
<polyline clip-path="url(#clip132)" style="stroke:#000000; stroke-linecap:butt; stroke-linejoin:round; stroke-width:2; stroke-opacity:0.1; fill:none" points="
  2250.15,1330.92 2250.15,47.2441 
  "/>
<polyline clip-path="url(#clip130)" style="stroke:#000000; stroke-linecap:butt; stroke-linejoin:round; stroke-width:4; stroke-opacity:1; fill:none" points="
  201.019,1330.92 2352.76,1330.92 
  "/>
<polyline clip-path="url(#clip130)" style="stroke:#000000; stroke-linecap:butt; stroke-linejoin:round; stroke-width:4; stroke-opacity:1; fill:none" points="
  303.629,1330.92 303.629,1315.52 
  "/>
<polyline clip-path="url(#clip130)" style="stroke:#000000; stroke-linecap:butt; stroke-linejoin:round; stroke-width:4; stroke-opacity:1; fill:none" points="
  396.32,1330.92 396.32,1315.52 
  "/>
<polyline clip-path="url(#clip130)" style="stroke:#000000; stroke-linecap:butt; stroke-linejoin:round; stroke-width:4; stroke-opacity:1; fill:none" points="
  489.011,1330.92 489.011,1315.52 
  "/>
<polyline clip-path="url(#clip130)" style="stroke:#000000; stroke-linecap:butt; stroke-linejoin:round; stroke-width:4; stroke-opacity:1; fill:none" points="
  581.703,1330.92 581.703,1315.52 
  "/>
<polyline clip-path="url(#clip130)" style="stroke:#000000; stroke-linecap:butt; stroke-linejoin:round; stroke-width:4; stroke-opacity:1; fill:none" points="
  674.394,1330.92 674.394,1315.52 
  "/>
<polyline clip-path="url(#clip130)" style="stroke:#000000; stroke-linecap:butt; stroke-linejoin:round; stroke-width:4; stroke-opacity:1; fill:none" points="
  767.085,1330.92 767.085,1315.52 
  "/>
<polyline clip-path="url(#clip130)" style="stroke:#000000; stroke-linecap:butt; stroke-linejoin:round; stroke-width:4; stroke-opacity:1; fill:none" points="
  859.777,1330.92 859.777,1315.52 
  "/>
<polyline clip-path="url(#clip130)" style="stroke:#000000; stroke-linecap:butt; stroke-linejoin:round; stroke-width:4; stroke-opacity:1; fill:none" points="
  952.468,1330.92 952.468,1315.52 
  "/>
<polyline clip-path="url(#clip130)" style="stroke:#000000; stroke-linecap:butt; stroke-linejoin:round; stroke-width:4; stroke-opacity:1; fill:none" points="
  1045.16,1330.92 1045.16,1315.52 
  "/>
<polyline clip-path="url(#clip130)" style="stroke:#000000; stroke-linecap:butt; stroke-linejoin:round; stroke-width:4; stroke-opacity:1; fill:none" points="
  1137.85,1330.92 1137.85,1315.52 
  "/>
<polyline clip-path="url(#clip130)" style="stroke:#000000; stroke-linecap:butt; stroke-linejoin:round; stroke-width:4; stroke-opacity:1; fill:none" points="
  1230.54,1330.92 1230.54,1315.52 
  "/>
<polyline clip-path="url(#clip130)" style="stroke:#000000; stroke-linecap:butt; stroke-linejoin:round; stroke-width:4; stroke-opacity:1; fill:none" points="
  1323.23,1330.92 1323.23,1315.52 
  "/>
<polyline clip-path="url(#clip130)" style="stroke:#000000; stroke-linecap:butt; stroke-linejoin:round; stroke-width:4; stroke-opacity:1; fill:none" points="
  1415.92,1330.92 1415.92,1315.52 
  "/>
<polyline clip-path="url(#clip130)" style="stroke:#000000; stroke-linecap:butt; stroke-linejoin:round; stroke-width:4; stroke-opacity:1; fill:none" points="
  1508.62,1330.92 1508.62,1315.52 
  "/>
<polyline clip-path="url(#clip130)" style="stroke:#000000; stroke-linecap:butt; stroke-linejoin:round; stroke-width:4; stroke-opacity:1; fill:none" points="
  1601.31,1330.92 1601.31,1315.52 
  "/>
<polyline clip-path="url(#clip130)" style="stroke:#000000; stroke-linecap:butt; stroke-linejoin:round; stroke-width:4; stroke-opacity:1; fill:none" points="
  1694,1330.92 1694,1315.52 
  "/>
<polyline clip-path="url(#clip130)" style="stroke:#000000; stroke-linecap:butt; stroke-linejoin:round; stroke-width:4; stroke-opacity:1; fill:none" points="
  1786.69,1330.92 1786.69,1315.52 
  "/>
<polyline clip-path="url(#clip130)" style="stroke:#000000; stroke-linecap:butt; stroke-linejoin:round; stroke-width:4; stroke-opacity:1; fill:none" points="
  1879.38,1330.92 1879.38,1315.52 
  "/>
<polyline clip-path="url(#clip130)" style="stroke:#000000; stroke-linecap:butt; stroke-linejoin:round; stroke-width:4; stroke-opacity:1; fill:none" points="
  1972.07,1330.92 1972.07,1315.52 
  "/>
<polyline clip-path="url(#clip130)" style="stroke:#000000; stroke-linecap:butt; stroke-linejoin:round; stroke-width:4; stroke-opacity:1; fill:none" points="
  2064.76,1330.92 2064.76,1315.52 
  "/>
<polyline clip-path="url(#clip130)" style="stroke:#000000; stroke-linecap:butt; stroke-linejoin:round; stroke-width:4; stroke-opacity:1; fill:none" points="
  2157.46,1330.92 2157.46,1315.52 
  "/>
<polyline clip-path="url(#clip130)" style="stroke:#000000; stroke-linecap:butt; stroke-linejoin:round; stroke-width:4; stroke-opacity:1; fill:none" points="
  2250.15,1330.92 2250.15,1315.52 
  "/>
<path clip-path="url(#clip130)" d="M204.598 1596.73 L212.757 1582.59 L216.165 1584.56 L205.193 1603.56 L201.785 1601.6 Q200.731 1597.91 199.013 1591.63 Q197.287 1585.31 196.714 1583.62 Q195.652 1580.41 194.588 1578.78 Q193.516 1577.12 192.053 1576.28 Q189.667 1574.9 187.191 1575.72 Q184.727 1576.51 183.176 1579.2 Q182.077 1581.1 181.512 1583.61 Q180.958 1586.1 180.912 1589.28 L176.823 1586.92 Q177.252 1583.9 177.978 1581.49 Q178.704 1579.08 179.722 1577.31 Q182.407 1572.66 186.33 1571.24 Q190.253 1569.81 194.142 1572.06 Q195.986 1573.12 197.245 1574.79 Q198.495 1576.42 199.687 1579.54 Q199.979 1580.37 201.215 1584.67 Q202.43 1588.95 204.598 1596.73 Z" fill="#000000" fill-rule="evenodd" fill-opacity="1" /><path clip-path="url(#clip130)" d="M198.809 1551.66 Q197.004 1554.79 199.176 1558.15 Q201.341 1561.49 207.515 1565.05 Q213.67 1568.6 217.66 1568.82 Q221.641 1569.01 223.447 1565.88 Q225.264 1562.74 223.099 1559.4 Q220.927 1556.04 214.772 1552.48 Q208.598 1548.92 204.616 1548.73 Q200.626 1548.51 198.809 1551.66 M195.602 1549.81 Q198.507 1544.78 204.024 1544.43 Q209.532 1544.06 217.11 1548.43 Q224.668 1552.8 227.118 1557.77 Q229.559 1562.7 226.654 1567.74 Q223.749 1572.77 218.24 1573.14 Q212.723 1573.48 205.166 1569.12 Q197.588 1564.75 195.147 1559.81 Q192.697 1554.84 195.602 1549.81 Z" fill="#000000" fill-rule="evenodd" fill-opacity="1" /><path clip-path="url(#clip130)" d="M234.76 1544.48 L242.919 1530.35 L246.327 1532.32 L235.355 1551.32 L231.947 1549.35 Q230.893 1545.67 229.175 1539.39 Q227.449 1533.07 226.876 1531.38 Q225.814 1528.17 224.75 1526.54 Q223.678 1524.88 222.215 1524.04 Q219.829 1522.66 217.353 1523.47 Q214.889 1524.27 213.338 1526.96 Q212.239 1528.86 211.673 1531.37 Q211.12 1533.85 211.074 1537.04 L206.984 1534.67 Q207.414 1531.66 208.14 1529.25 Q208.866 1526.83 209.884 1525.07 Q212.569 1520.42 216.492 1518.99 Q220.414 1517.57 224.304 1519.82 Q226.148 1520.88 227.407 1522.54 Q228.657 1524.17 229.849 1527.29 Q230.141 1528.13 231.377 1532.43 Q232.592 1536.71 234.76 1544.48 Z" fill="#000000" fill-rule="evenodd" fill-opacity="1" /><path clip-path="url(#clip130)" d="M248.232 1521.15 L252.051 1514.53 L229.218 1501.35 L226.506 1509.38 L222.818 1507.25 L225.506 1499.26 L227.844 1495.21 L254.366 1510.52 L258.185 1503.91 L261.593 1505.88 L251.64 1523.12 L248.232 1521.15 Z" fill="#000000" fill-rule="evenodd" fill-opacity="1" /><path clip-path="url(#clip130)" d="M252.048 1492.64 L258.287 1481.84 L261.574 1483.73 L255.336 1494.54 L252.048 1492.64 Z" fill="#000000" fill-rule="evenodd" fill-opacity="1" /><path clip-path="url(#clip130)" d="M252.605 1458.48 Q250.8 1461.61 252.972 1464.97 Q255.137 1468.31 261.311 1471.87 Q267.466 1475.43 271.456 1475.65 Q275.437 1475.83 277.243 1472.71 Q279.06 1469.56 276.895 1466.22 Q274.723 1462.86 268.568 1459.3 Q262.394 1455.74 258.412 1455.55 Q254.422 1455.33 252.605 1458.48 M249.398 1456.63 Q252.303 1451.6 257.82 1451.25 Q263.328 1450.88 270.906 1455.26 Q278.464 1459.62 280.914 1464.59 Q283.355 1469.53 280.45 1474.56 Q277.545 1479.59 272.036 1479.96 Q266.519 1480.31 258.962 1475.94 Q251.384 1471.57 248.943 1466.63 Q246.493 1461.66 249.398 1456.63 Z" fill="#000000" fill-rule="evenodd" fill-opacity="1" /><path clip-path="url(#clip130)" d="M260.043 1439.44 L269.221 1423.54 L272.629 1425.51 L265.592 1437.7 L272.929 1441.94 Q273.138 1440.88 273.507 1439.92 Q273.856 1438.94 274.365 1438.06 Q277.258 1433.05 281.695 1431.71 Q286.131 1430.37 290.822 1433.08 Q295.653 1435.86 296.603 1440.42 Q297.533 1444.97 294.374 1450.44 Q293.286 1452.33 291.831 1454.11 Q290.387 1455.86 288.542 1457.58 L284.473 1455.23 Q286.497 1453.99 288.089 1452.35 Q289.681 1450.7 290.919 1448.55 Q292.922 1445.09 292.266 1442.01 Q291.611 1438.93 288.484 1437.12 Q285.357 1435.32 282.363 1436.29 Q279.37 1437.26 277.368 1440.73 Q276.43 1442.35 275.854 1444.19 Q275.289 1446 275.078 1448.12 L260.043 1439.44 Z" fill="#000000" fill-rule="evenodd" fill-opacity="1" /><path clip-path="url(#clip130)" d="M290.763 1425.58 L297.002 1414.78 L300.289 1416.68 L294.051 1427.48 L290.763 1425.58 Z" fill="#000000" fill-rule="evenodd" fill-opacity="1" /><path clip-path="url(#clip130)" d="M310.581 1413.16 L314.4 1406.54 L291.567 1393.36 L288.855 1401.39 L285.167 1399.26 L287.855 1391.27 L290.193 1387.22 L316.715 1402.53 L320.535 1395.92 L323.943 1397.88 L313.989 1415.12 L310.581 1413.16 Z" fill="#000000" fill-rule="evenodd" fill-opacity="1" /><path clip-path="url(#clip130)" d="M328.113 1389.23 L324.424 1387.1 Q326.026 1385.99 327.309 1384.65 Q328.593 1383.3 329.461 1381.8 Q331.776 1377.79 330.305 1374.13 Q328.825 1370.45 323.506 1366.97 Q324.559 1369.13 324.451 1371.45 Q324.343 1373.76 323.093 1375.93 Q320.5 1380.42 316.278 1381.48 Q312.047 1382.52 307.336 1379.8 Q302.725 1377.13 301.513 1372.8 Q300.3 1368.46 302.916 1363.93 Q305.914 1358.74 311.477 1358.32 Q317.032 1357.86 324.61 1362.24 Q331.686 1366.32 333.972 1372.13 Q336.248 1377.91 332.973 1383.59 Q332.093 1385.11 330.89 1386.5 Q329.686 1387.89 328.113 1389.23 M320.076 1373.84 Q321.65 1371.11 320.7 1368.45 Q319.762 1365.77 316.514 1363.9 Q313.286 1362.04 310.496 1362.56 Q307.697 1363.06 306.123 1365.79 Q304.549 1368.51 305.508 1371.2 Q306.458 1373.86 309.685 1375.73 Q312.933 1377.6 315.712 1377.09 Q318.502 1376.57 320.076 1373.84 Z" fill="#000000" fill-rule="evenodd" fill-opacity="1" /><path clip-path="url(#clip130)" d="M482.336 1597.31 L490.496 1583.17 L493.904 1585.14 L482.932 1604.15 L479.524 1602.18 Q478.469 1598.5 476.751 1592.21 Q475.025 1585.9 474.453 1584.2 Q473.39 1581 472.327 1579.37 Q471.255 1577.7 469.791 1576.86 Q467.406 1575.48 464.93 1576.3 Q462.466 1577.09 460.915 1579.78 Q459.815 1581.68 459.25 1584.19 Q458.696 1586.68 458.65 1589.86 L454.561 1587.5 Q454.991 1584.49 455.716 1582.07 Q456.442 1579.66 457.46 1577.89 Q460.146 1573.24 464.068 1571.82 Q467.991 1570.39 471.88 1572.64 Q473.724 1573.7 474.983 1575.37 Q476.233 1577 477.425 1580.12 Q477.717 1580.95 478.953 1585.25 Q480.169 1589.53 482.336 1597.31 Z" fill="#000000" fill-rule="evenodd" fill-opacity="1" /><path clip-path="url(#clip130)" d="M476.548 1552.24 Q474.742 1555.37 476.915 1558.73 Q479.079 1562.07 485.254 1565.63 Q491.408 1569.19 495.398 1569.4 Q499.379 1569.59 501.185 1566.46 Q503.002 1563.32 500.838 1559.98 Q498.665 1556.62 492.511 1553.06 Q486.336 1549.5 482.355 1549.31 Q478.365 1549.09 476.548 1552.24 M473.34 1550.39 Q476.245 1545.36 481.762 1545.01 Q487.271 1544.64 494.848 1549.01 Q502.406 1553.38 504.856 1558.35 Q507.298 1563.28 504.393 1568.32 Q501.487 1573.35 495.979 1573.72 Q490.462 1574.07 482.904 1569.7 Q475.326 1565.33 472.885 1560.39 Q470.435 1555.42 473.34 1550.39 Z" fill="#000000" fill-rule="evenodd" fill-opacity="1" /><path clip-path="url(#clip130)" d="M512.498 1545.06 L520.658 1530.93 L524.066 1532.9 L513.094 1551.9 L509.686 1549.94 Q508.631 1546.25 506.913 1539.97 Q505.187 1533.65 504.615 1531.96 Q503.552 1528.75 502.489 1527.12 Q501.416 1525.46 499.953 1524.62 Q497.567 1523.24 495.092 1524.06 Q492.628 1524.85 491.077 1527.54 Q489.977 1529.44 489.412 1531.95 Q488.858 1534.44 488.812 1537.62 L484.723 1535.26 Q485.153 1532.24 485.878 1529.83 Q486.604 1527.41 487.622 1525.65 Q490.308 1521 494.23 1519.58 Q498.153 1518.15 502.042 1520.4 Q503.886 1521.46 505.145 1523.12 Q506.395 1524.76 507.587 1527.88 Q507.879 1528.71 509.115 1533.01 Q510.33 1537.29 512.498 1545.06 Z" fill="#000000" fill-rule="evenodd" fill-opacity="1" /><path clip-path="url(#clip130)" d="M525.97 1521.73 L529.79 1515.11 L506.956 1501.93 L504.245 1509.96 L500.556 1507.83 L503.245 1499.84 L505.583 1495.79 L532.104 1511.11 L535.924 1504.49 L539.332 1506.46 L529.378 1523.7 L525.97 1521.73 Z" fill="#000000" fill-rule="evenodd" fill-opacity="1" /><path clip-path="url(#clip130)" d="M529.787 1493.22 L536.025 1482.42 L539.313 1484.31 L533.074 1495.12 L529.787 1493.22 Z" fill="#000000" fill-rule="evenodd" fill-opacity="1" /><path clip-path="url(#clip130)" d="M530.344 1459.06 Q528.538 1462.19 530.711 1465.56 Q532.875 1468.89 539.05 1472.46 Q545.204 1476.01 549.194 1476.23 Q553.175 1476.41 554.981 1473.29 Q556.798 1470.14 554.634 1466.81 Q552.461 1463.44 546.307 1459.89 Q540.132 1456.32 536.151 1456.13 Q532.161 1455.92 530.344 1459.06 M527.136 1457.21 Q530.041 1452.18 535.558 1451.84 Q541.067 1451.46 548.644 1455.84 Q556.202 1460.2 558.652 1465.17 Q561.094 1470.11 558.189 1475.14 Q555.283 1480.17 549.775 1480.55 Q544.258 1480.89 536.7 1476.53 Q529.122 1472.15 526.681 1467.21 Q524.231 1462.24 527.136 1457.21 Z" fill="#000000" fill-rule="evenodd" fill-opacity="1" /><path clip-path="url(#clip130)" d="M537.781 1440.02 L546.96 1424.13 L550.368 1426.09 L543.331 1438.28 L550.668 1442.52 Q550.876 1441.46 551.245 1440.5 Q551.594 1439.52 552.103 1438.64 Q554.997 1433.63 559.433 1432.29 Q563.869 1430.95 568.56 1433.66 Q573.391 1436.45 574.342 1441 Q575.272 1445.55 572.112 1451.02 Q571.024 1452.91 569.569 1454.69 Q568.126 1456.45 566.28 1458.16 L562.211 1455.81 Q564.235 1454.57 565.827 1452.93 Q567.419 1451.28 568.658 1449.14 Q570.66 1445.67 570.005 1442.59 Q569.35 1439.51 566.222 1437.71 Q563.095 1435.9 560.102 1436.87 Q557.108 1437.84 555.106 1441.31 Q554.169 1442.94 553.592 1444.77 Q553.027 1446.58 552.817 1448.7 L537.781 1440.02 Z" fill="#000000" fill-rule="evenodd" fill-opacity="1" /><path clip-path="url(#clip130)" d="M568.502 1426.17 L574.74 1415.36 L578.028 1417.26 L571.789 1428.06 L568.502 1426.17 Z" fill="#000000" fill-rule="evenodd" fill-opacity="1" /><path clip-path="url(#clip130)" d="M589.928 1410.95 L598.088 1396.82 L601.496 1398.79 L590.524 1417.79 L587.116 1415.82 Q586.061 1412.14 584.343 1405.86 Q582.617 1399.54 582.045 1397.85 Q580.982 1394.64 579.919 1393.01 Q578.847 1391.35 577.383 1390.5 Q574.998 1389.13 572.522 1389.94 Q570.058 1390.74 568.507 1393.43 Q567.407 1395.33 566.842 1397.84 Q566.288 1400.32 566.242 1403.5 L562.153 1401.14 Q562.583 1398.13 563.308 1395.72 Q564.034 1393.3 565.053 1391.54 Q567.738 1386.89 571.66 1385.46 Q575.583 1384.04 579.472 1386.28 Q581.316 1387.35 582.575 1389.01 Q583.825 1390.64 585.017 1393.76 Q585.309 1394.6 586.545 1398.89 Q587.761 1403.18 589.928 1410.95 Z" fill="#000000" fill-rule="evenodd" fill-opacity="1" /><path clip-path="url(#clip130)" d="M586.425 1363.92 L596.5 1383.37 L602.402 1373.14 L586.425 1363.92 M582.284 1362.94 L585.223 1357.85 L604.729 1369.11 L607.194 1364.84 L610.562 1366.79 L608.097 1371.06 L615.153 1375.13 L612.827 1379.16 L605.77 1375.09 L597.969 1388.6 L594.06 1386.34 L582.284 1362.94 Z" fill="#000000" fill-rule="evenodd" fill-opacity="1" /><path clip-path="url(#clip130)" d="M761.105 1596.1 L769.264 1581.97 L772.672 1583.94 L761.7 1602.94 L758.292 1600.97 Q757.238 1597.29 755.52 1591.01 Q753.794 1584.69 753.221 1583 Q752.159 1579.79 751.095 1578.16 Q750.023 1576.5 748.56 1575.66 Q746.174 1574.28 743.698 1575.1 Q741.234 1575.89 739.683 1578.58 Q738.584 1580.48 738.018 1582.99 Q737.465 1585.48 737.419 1588.66 L733.329 1586.3 Q733.759 1583.28 734.485 1580.87 Q735.21 1578.45 736.229 1576.69 Q738.914 1572.04 742.837 1570.62 Q746.759 1569.19 750.648 1571.44 Q752.493 1572.5 753.752 1574.16 Q755.002 1575.79 756.194 1578.91 Q756.486 1579.75 757.721 1584.05 Q758.937 1588.33 761.105 1596.1 Z" fill="#000000" fill-rule="evenodd" fill-opacity="1" /><path clip-path="url(#clip130)" d="M755.316 1551.04 Q753.51 1554.16 755.683 1557.53 Q757.848 1560.87 764.022 1564.43 Q770.176 1567.98 774.166 1568.2 Q778.148 1568.39 779.953 1565.26 Q781.771 1562.11 779.606 1558.78 Q777.433 1555.41 771.279 1551.86 Q765.105 1548.3 761.123 1548.11 Q757.133 1547.89 755.316 1551.04 M752.108 1549.19 Q755.014 1544.15 760.531 1543.81 Q766.039 1543.44 773.617 1547.81 Q781.175 1552.17 783.625 1557.14 Q786.066 1562.08 783.161 1567.11 Q780.256 1572.15 774.747 1572.52 Q769.23 1572.86 761.673 1568.5 Q754.095 1564.12 751.653 1559.19 Q749.203 1554.22 752.108 1549.19 Z" fill="#000000" fill-rule="evenodd" fill-opacity="1" /><path clip-path="url(#clip130)" d="M791.266 1543.86 L799.426 1529.73 L802.834 1531.7 L791.862 1550.7 L788.454 1548.73 Q787.399 1545.05 785.682 1538.77 Q783.956 1532.45 783.383 1530.76 Q782.321 1527.55 781.257 1525.92 Q780.185 1524.26 778.721 1523.41 Q776.336 1522.04 773.86 1522.85 Q771.396 1523.65 769.845 1526.34 Q768.746 1528.24 768.18 1530.75 Q767.627 1533.23 767.581 1536.41 L763.491 1534.05 Q763.921 1531.04 764.647 1528.63 Q765.372 1526.21 766.391 1524.45 Q769.076 1519.8 772.999 1518.37 Q776.921 1516.95 780.81 1519.19 Q782.655 1520.26 783.913 1521.92 Q785.164 1523.55 786.356 1526.67 Q786.648 1527.51 787.883 1531.8 Q789.099 1536.09 791.266 1543.86 Z" fill="#000000" fill-rule="evenodd" fill-opacity="1" /><path clip-path="url(#clip130)" d="M804.739 1520.53 L808.558 1513.91 L785.725 1500.73 L783.013 1508.76 L779.324 1506.63 L782.013 1498.64 L784.351 1494.59 L810.873 1509.9 L814.692 1503.29 L818.1 1505.25 L808.147 1522.49 L804.739 1520.53 Z" fill="#000000" fill-rule="evenodd" fill-opacity="1" /><path clip-path="url(#clip130)" d="M808.555 1492.02 L814.793 1481.21 L818.081 1483.11 L811.843 1493.92 L808.555 1492.02 Z" fill="#000000" fill-rule="evenodd" fill-opacity="1" /><path clip-path="url(#clip130)" d="M809.112 1457.86 Q807.306 1460.99 809.479 1464.35 Q811.644 1467.69 817.818 1471.25 Q823.972 1474.81 827.962 1475.02 Q831.944 1475.21 833.749 1472.08 Q835.567 1468.94 833.402 1465.6 Q831.229 1462.24 825.075 1458.68 Q818.901 1455.12 814.919 1454.93 Q810.929 1454.71 809.112 1457.86 M805.904 1456.01 Q808.81 1450.98 814.327 1450.63 Q819.835 1450.26 827.413 1454.63 Q834.971 1459 837.421 1463.97 Q839.862 1468.9 836.957 1473.94 Q834.052 1478.97 828.543 1479.34 Q823.026 1479.69 815.469 1475.32 Q807.891 1470.95 805.449 1466.01 Q802.999 1461.04 805.904 1456.01 Z" fill="#000000" fill-rule="evenodd" fill-opacity="1" /><path clip-path="url(#clip130)" d="M816.55 1438.82 L825.728 1422.92 L829.136 1424.89 L822.099 1437.08 L829.436 1441.31 Q829.645 1440.26 830.014 1439.3 Q830.362 1438.32 830.872 1437.44 Q833.765 1432.43 838.201 1431.09 Q842.638 1429.75 847.329 1432.45 Q852.16 1435.24 853.11 1439.8 Q854.04 1444.35 850.88 1449.82 Q849.793 1451.7 848.338 1453.48 Q846.894 1455.24 845.049 1456.96 L840.979 1454.61 Q843.003 1453.37 844.596 1451.72 Q846.188 1450.08 847.426 1447.93 Q849.429 1444.46 848.773 1441.39 Q848.118 1438.31 844.991 1436.5 Q841.863 1434.7 838.87 1435.67 Q835.877 1436.64 833.875 1440.11 Q832.937 1441.73 832.36 1443.56 Q831.795 1445.38 831.585 1447.5 L816.55 1438.82 Z" fill="#000000" fill-rule="evenodd" fill-opacity="1" /><path clip-path="url(#clip130)" d="M847.27 1424.96 L853.509 1414.16 L856.796 1416.06 L850.558 1426.86 L847.27 1424.96 Z" fill="#000000" fill-rule="evenodd" fill-opacity="1" /><path clip-path="url(#clip130)" d="M868.697 1409.75 L876.856 1395.62 L880.264 1397.58 L869.292 1416.59 L865.884 1414.62 Q864.83 1410.94 863.112 1404.65 Q861.386 1398.34 860.813 1396.64 Q859.751 1393.44 858.687 1391.81 Q857.615 1390.15 856.152 1389.3 Q853.766 1387.92 851.29 1388.74 Q848.826 1389.54 847.275 1392.22 Q846.176 1394.13 845.61 1396.63 Q845.057 1399.12 845.011 1402.3 L840.921 1399.94 Q841.351 1396.93 842.077 1394.51 Q842.802 1392.1 843.821 1390.33 Q846.506 1385.68 850.429 1384.26 Q854.351 1382.84 858.24 1385.08 Q860.085 1386.15 861.344 1387.81 Q862.594 1389.44 863.786 1392.56 Q864.078 1393.4 865.313 1397.69 Q866.529 1401.98 868.697 1409.75 Z" fill="#000000" fill-rule="evenodd" fill-opacity="1" /><path clip-path="url(#clip130)" d="M854.652 1372.83 L865.763 1353.58 L867.487 1354.58 L889.419 1381.73 L886.977 1385.96 L866.358 1360.42 L858.059 1374.79 L854.652 1372.83 Z" fill="#000000" fill-rule="evenodd" fill-opacity="1" /><path clip-path="url(#clip130)" d="M1039.53 1595.5 L1047.69 1581.37 L1051.09 1583.34 L1040.12 1602.34 L1036.71 1600.37 Q1035.66 1596.69 1033.94 1590.41 Q1032.21 1584.09 1031.64 1582.4 Q1030.58 1579.19 1029.52 1577.56 Q1028.44 1575.9 1026.98 1575.06 Q1024.6 1573.68 1022.12 1574.49 Q1019.66 1575.29 1018.1 1577.98 Q1017 1579.88 1016.44 1582.39 Q1015.89 1584.87 1015.84 1588.06 L1011.75 1585.69 Q1012.18 1582.68 1012.91 1580.27 Q1013.63 1577.85 1014.65 1576.09 Q1017.34 1571.44 1021.26 1570.01 Q1025.18 1568.59 1029.07 1570.84 Q1030.91 1571.9 1032.17 1573.56 Q1033.42 1575.19 1034.62 1578.31 Q1034.91 1579.15 1036.14 1583.45 Q1037.36 1587.73 1039.53 1595.5 Z" fill="#000000" fill-rule="evenodd" fill-opacity="1" /><path clip-path="url(#clip130)" d="M1033.74 1550.44 Q1031.93 1553.56 1034.1 1556.93 Q1036.27 1560.26 1042.44 1563.83 Q1048.6 1567.38 1052.59 1567.6 Q1056.57 1567.79 1058.37 1564.66 Q1060.19 1561.51 1058.03 1558.18 Q1055.85 1554.81 1049.7 1551.26 Q1043.53 1547.69 1039.54 1547.51 Q1035.55 1547.29 1033.74 1550.44 M1030.53 1548.58 Q1033.43 1543.55 1038.95 1543.21 Q1044.46 1542.83 1052.04 1547.21 Q1059.6 1551.57 1062.05 1556.54 Q1064.49 1561.48 1061.58 1566.51 Q1058.68 1571.54 1053.17 1571.92 Q1047.65 1572.26 1040.09 1567.9 Q1032.52 1563.52 1030.07 1558.59 Q1027.62 1553.62 1030.53 1548.58 Z" fill="#000000" fill-rule="evenodd" fill-opacity="1" /><path clip-path="url(#clip130)" d="M1069.69 1543.26 L1077.85 1529.13 L1081.26 1531.09 L1070.28 1550.1 L1066.88 1548.13 Q1065.82 1544.45 1064.1 1538.16 Q1062.38 1531.85 1061.8 1530.16 Q1060.74 1526.95 1059.68 1525.32 Q1058.61 1523.66 1057.14 1522.81 Q1054.76 1521.44 1052.28 1522.25 Q1049.82 1523.05 1048.27 1525.73 Q1047.17 1527.64 1046.6 1530.15 Q1046.05 1532.63 1046 1535.81 L1041.91 1533.45 Q1042.34 1530.44 1043.07 1528.02 Q1043.79 1525.61 1044.81 1523.85 Q1047.5 1519.2 1051.42 1517.77 Q1055.34 1516.35 1059.23 1518.59 Q1061.08 1519.66 1062.33 1521.32 Q1063.58 1522.95 1064.78 1526.07 Q1065.07 1526.91 1066.3 1531.2 Q1067.52 1535.49 1069.69 1543.26 Z" fill="#000000" fill-rule="evenodd" fill-opacity="1" /><path clip-path="url(#clip130)" d="M1083.16 1519.93 L1086.98 1513.31 L1064.15 1500.13 L1061.43 1508.16 L1057.75 1506.03 L1060.43 1498.04 L1062.77 1493.99 L1089.29 1509.3 L1093.11 1502.69 L1096.52 1504.65 L1086.57 1521.89 L1083.16 1519.93 Z" fill="#000000" fill-rule="evenodd" fill-opacity="1" /><path clip-path="url(#clip130)" d="M1086.98 1491.42 L1093.21 1480.61 L1096.5 1482.51 L1090.26 1493.32 L1086.98 1491.42 Z" fill="#000000" fill-rule="evenodd" fill-opacity="1" /><path clip-path="url(#clip130)" d="M1087.53 1457.26 Q1085.73 1460.39 1087.9 1463.75 Q1090.06 1467.09 1096.24 1470.65 Q1102.39 1474.2 1106.38 1474.42 Q1110.37 1474.61 1112.17 1471.48 Q1113.99 1468.34 1111.82 1465 Q1109.65 1461.64 1103.5 1458.08 Q1097.32 1454.52 1093.34 1454.33 Q1089.35 1454.11 1087.53 1457.26 M1084.33 1455.41 Q1087.23 1450.38 1092.75 1450.03 Q1098.26 1449.66 1105.83 1454.03 Q1113.39 1458.4 1115.84 1463.37 Q1118.28 1468.3 1115.38 1473.33 Q1112.47 1478.37 1106.96 1478.74 Q1101.45 1479.08 1093.89 1474.72 Q1086.31 1470.35 1083.87 1465.41 Q1081.42 1460.44 1084.33 1455.41 Z" fill="#000000" fill-rule="evenodd" fill-opacity="1" /><path clip-path="url(#clip130)" d="M1113.59 1436.81 Q1112.01 1439.53 1112.95 1442.21 Q1113.9 1444.87 1117.15 1446.75 Q1120.38 1448.61 1123.18 1448.11 Q1125.97 1447.59 1127.54 1444.86 Q1129.12 1442.13 1128.17 1439.47 Q1127.21 1436.78 1123.98 1434.92 Q1120.73 1433.04 1117.94 1433.57 Q1115.16 1434.08 1113.59 1436.81 M1105.54 1421.44 L1109.23 1423.57 Q1107.63 1424.68 1106.34 1426.02 Q1105.07 1427.34 1104.19 1428.87 Q1101.88 1432.88 1103.36 1436.56 Q1104.85 1440.23 1110.15 1443.69 Q1109.09 1441.5 1109.19 1439.19 Q1109.28 1436.86 1110.52 1434.71 Q1113.12 1430.2 1117.38 1429.18 Q1121.62 1428.13 1126.33 1430.85 Q1130.94 1433.51 1132.15 1437.85 Q1133.36 1442.18 1130.75 1446.71 Q1127.75 1451.9 1122.2 1452.36 Q1116.62 1452.8 1109.06 1448.44 Q1101.97 1444.34 1099.7 1438.54 Q1097.42 1432.73 1100.69 1427.06 Q1101.57 1425.54 1102.76 1424.17 Q1103.97 1422.78 1105.54 1421.44 Z" fill="#000000" fill-rule="evenodd" fill-opacity="1" /><path clip-path="url(#clip130)" d="M1125.69 1424.36 L1131.93 1413.56 L1135.22 1415.45 L1128.98 1426.26 L1125.69 1424.36 Z" fill="#000000" fill-rule="evenodd" fill-opacity="1" /><path clip-path="url(#clip130)" d="M1126.25 1390.2 Q1124.44 1393.33 1126.62 1396.7 Q1128.78 1400.03 1134.95 1403.59 Q1141.11 1407.15 1145.1 1407.37 Q1149.08 1407.55 1150.89 1404.43 Q1152.7 1401.28 1150.54 1397.94 Q1148.37 1394.58 1142.21 1391.03 Q1136.04 1387.46 1132.06 1387.27 Q1128.07 1387.05 1126.25 1390.2 M1123.04 1388.35 Q1125.95 1383.32 1131.46 1382.98 Q1136.97 1382.6 1144.55 1386.98 Q1152.11 1391.34 1154.56 1396.31 Q1157 1401.25 1154.09 1406.28 Q1151.19 1411.31 1145.68 1411.68 Q1140.16 1412.03 1132.6 1407.66 Q1125.03 1403.29 1122.59 1398.35 Q1120.14 1393.38 1123.04 1388.35 Z" fill="#000000" fill-rule="evenodd" fill-opacity="1" /><path clip-path="url(#clip130)" d="M1162.2 1383.03 L1170.36 1368.89 L1173.77 1370.86 L1162.79 1389.87 L1159.39 1387.9 Q1158.33 1384.22 1156.61 1377.93 Q1154.89 1371.62 1154.32 1369.92 Q1153.25 1366.72 1152.19 1365.09 Q1151.12 1363.42 1149.65 1362.58 Q1147.27 1361.2 1144.79 1362.02 Q1142.33 1362.81 1140.78 1365.5 Q1139.68 1367.4 1139.11 1369.91 Q1138.56 1372.4 1138.51 1375.58 L1134.42 1373.22 Q1134.85 1370.21 1135.58 1367.79 Q1136.3 1365.38 1137.32 1363.61 Q1140.01 1358.96 1143.93 1357.54 Q1147.85 1356.11 1151.74 1358.36 Q1153.59 1359.42 1154.85 1361.09 Q1156.1 1362.72 1157.29 1365.84 Q1157.58 1366.67 1158.82 1370.97 Q1160.03 1375.25 1162.2 1383.03 Z" fill="#000000" fill-rule="evenodd" fill-opacity="1" /><path clip-path="url(#clip130)" d="M1317.25 1596.1 L1325.41 1581.97 L1328.82 1583.94 L1317.85 1602.94 L1314.44 1600.97 Q1313.39 1597.29 1311.67 1591.01 Q1309.94 1584.69 1309.37 1583 Q1308.31 1579.79 1307.24 1578.16 Q1306.17 1576.5 1304.71 1575.66 Q1302.32 1574.28 1299.85 1575.1 Q1297.38 1575.89 1295.83 1578.58 Q1294.73 1580.48 1294.17 1582.99 Q1293.61 1585.48 1293.57 1588.66 L1289.48 1586.3 Q1289.91 1583.28 1290.63 1580.87 Q1291.36 1578.45 1292.38 1576.69 Q1295.06 1572.04 1298.98 1570.62 Q1302.91 1569.19 1306.8 1571.44 Q1308.64 1572.5 1309.9 1574.16 Q1311.15 1575.79 1312.34 1578.91 Q1312.63 1579.75 1313.87 1584.05 Q1315.09 1588.33 1317.25 1596.1 Z" fill="#000000" fill-rule="evenodd" fill-opacity="1" /><path clip-path="url(#clip130)" d="M1311.46 1551.04 Q1309.66 1554.16 1311.83 1557.53 Q1314 1560.87 1320.17 1564.43 Q1326.32 1567.98 1330.31 1568.2 Q1334.3 1568.39 1336.1 1565.26 Q1337.92 1562.11 1335.75 1558.78 Q1333.58 1555.41 1327.43 1551.86 Q1321.25 1548.3 1317.27 1548.11 Q1313.28 1547.89 1311.46 1551.04 M1308.26 1549.19 Q1311.16 1544.15 1316.68 1543.81 Q1322.19 1543.44 1329.76 1547.81 Q1337.32 1552.17 1339.77 1557.14 Q1342.21 1562.08 1339.31 1567.11 Q1336.4 1572.15 1330.9 1572.52 Q1325.38 1572.86 1317.82 1568.5 Q1310.24 1564.12 1307.8 1559.19 Q1305.35 1554.22 1308.26 1549.19 Z" fill="#000000" fill-rule="evenodd" fill-opacity="1" /><path clip-path="url(#clip130)" d="M1347.41 1543.86 L1355.57 1529.73 L1358.98 1531.7 L1348.01 1550.7 L1344.6 1548.73 Q1343.55 1545.05 1341.83 1538.77 Q1340.1 1532.45 1339.53 1530.76 Q1338.47 1527.55 1337.41 1525.92 Q1336.33 1524.26 1334.87 1523.41 Q1332.48 1522.04 1330.01 1522.85 Q1327.54 1523.65 1325.99 1526.34 Q1324.89 1528.24 1324.33 1530.75 Q1323.77 1533.23 1323.73 1536.41 L1319.64 1534.05 Q1320.07 1531.04 1320.79 1528.63 Q1321.52 1526.21 1322.54 1524.45 Q1325.22 1519.8 1329.15 1518.37 Q1333.07 1516.95 1336.96 1519.19 Q1338.8 1520.26 1340.06 1521.92 Q1341.31 1523.55 1342.5 1526.67 Q1342.8 1527.51 1344.03 1531.8 Q1345.25 1536.09 1347.41 1543.86 Z" fill="#000000" fill-rule="evenodd" fill-opacity="1" /><path clip-path="url(#clip130)" d="M1360.89 1520.53 L1364.71 1513.91 L1341.87 1500.73 L1339.16 1508.76 L1335.47 1506.63 L1338.16 1498.64 L1340.5 1494.59 L1367.02 1509.9 L1370.84 1503.29 L1374.25 1505.25 L1364.29 1522.49 L1360.89 1520.53 Z" fill="#000000" fill-rule="evenodd" fill-opacity="1" /><path clip-path="url(#clip130)" d="M1364.7 1492.02 L1370.94 1481.21 L1374.23 1483.11 L1367.99 1493.92 L1364.7 1492.02 Z" fill="#000000" fill-rule="evenodd" fill-opacity="1" /><path clip-path="url(#clip130)" d="M1365.26 1457.86 Q1363.45 1460.99 1365.63 1464.35 Q1367.79 1467.69 1373.97 1471.25 Q1380.12 1474.81 1384.11 1475.02 Q1388.09 1475.21 1389.9 1472.08 Q1391.71 1468.94 1389.55 1465.6 Q1387.38 1462.24 1381.22 1458.68 Q1375.05 1455.12 1371.07 1454.93 Q1367.08 1454.71 1365.26 1457.86 M1362.05 1456.01 Q1364.96 1450.98 1370.47 1450.63 Q1375.98 1450.26 1383.56 1454.63 Q1391.12 1459 1393.57 1463.97 Q1396.01 1468.9 1393.1 1473.94 Q1390.2 1478.97 1384.69 1479.34 Q1379.17 1479.69 1371.62 1475.32 Q1364.04 1470.95 1361.6 1466.01 Q1359.15 1461.04 1362.05 1456.01 Z" fill="#000000" fill-rule="evenodd" fill-opacity="1" /><path clip-path="url(#clip130)" d="M1391.32 1437.41 Q1389.74 1440.13 1390.68 1442.81 Q1391.63 1445.47 1394.88 1447.35 Q1398.1 1449.21 1400.9 1448.72 Q1403.69 1448.19 1405.27 1445.46 Q1406.84 1442.74 1405.89 1440.08 Q1404.93 1437.38 1401.71 1435.52 Q1398.46 1433.65 1395.67 1434.17 Q1392.89 1434.68 1391.32 1437.41 M1383.27 1422.04 L1386.96 1424.17 Q1385.35 1425.28 1384.07 1426.62 Q1382.8 1427.95 1381.92 1429.47 Q1379.6 1433.48 1381.08 1437.17 Q1382.57 1440.83 1387.87 1444.29 Q1386.81 1442.1 1386.92 1439.79 Q1387.01 1437.46 1388.25 1435.31 Q1390.85 1430.8 1395.1 1429.78 Q1399.34 1428.73 1404.06 1431.45 Q1408.67 1434.11 1409.88 1438.45 Q1411.09 1442.78 1408.48 1447.31 Q1405.48 1452.51 1399.92 1452.96 Q1394.35 1453.4 1386.79 1449.04 Q1379.69 1444.94 1377.43 1439.15 Q1375.14 1433.34 1378.42 1427.66 Q1379.3 1426.14 1380.49 1424.77 Q1381.69 1423.38 1383.27 1422.04 Z" fill="#000000" fill-rule="evenodd" fill-opacity="1" /><path clip-path="url(#clip130)" d="M1403.42 1424.96 L1409.66 1414.16 L1412.94 1416.06 L1406.71 1426.86 L1403.42 1424.96 Z" fill="#000000" fill-rule="evenodd" fill-opacity="1" /><path clip-path="url(#clip130)" d="M1403.98 1390.8 Q1402.17 1393.93 1404.34 1397.3 Q1406.51 1400.63 1412.68 1404.2 Q1418.84 1407.75 1422.83 1407.97 Q1426.81 1408.16 1428.61 1405.03 Q1430.43 1401.88 1428.27 1398.55 Q1426.09 1395.18 1419.94 1391.63 Q1413.76 1388.06 1409.78 1387.87 Q1405.79 1387.66 1403.98 1390.8 M1400.77 1388.95 Q1403.67 1383.92 1409.19 1383.58 Q1414.7 1383.2 1422.28 1387.58 Q1429.83 1391.94 1432.28 1396.91 Q1434.73 1401.85 1431.82 1406.88 Q1428.91 1411.91 1423.41 1412.29 Q1417.89 1412.63 1410.33 1408.27 Q1402.75 1403.89 1400.31 1398.95 Q1397.86 1393.98 1400.77 1388.95 Z" fill="#000000" fill-rule="evenodd" fill-opacity="1" /><path clip-path="url(#clip130)" d="M1410.8 1372.83 L1421.91 1353.58 L1423.63 1354.58 L1445.57 1381.73 L1443.13 1385.96 L1422.51 1360.42 L1414.21 1374.79 L1410.8 1372.83 Z" fill="#000000" fill-rule="evenodd" fill-opacity="1" /><path clip-path="url(#clip130)" d="M1594.88 1596.89 L1603.03 1582.75 L1606.44 1584.72 L1595.47 1603.72 L1592.06 1601.76 Q1591.01 1598.07 1589.29 1591.79 Q1587.56 1585.47 1586.99 1583.78 Q1585.93 1580.57 1584.87 1578.94 Q1583.79 1577.28 1582.33 1576.44 Q1579.94 1575.06 1577.47 1575.88 Q1575 1576.67 1573.45 1579.36 Q1572.35 1581.26 1571.79 1583.77 Q1571.24 1586.26 1571.19 1589.44 L1567.1 1587.08 Q1567.53 1584.06 1568.26 1581.65 Q1568.98 1579.24 1570 1577.47 Q1572.68 1572.82 1576.61 1571.4 Q1580.53 1569.97 1584.42 1572.22 Q1586.26 1573.28 1587.52 1574.95 Q1588.77 1576.58 1589.96 1579.7 Q1590.26 1580.53 1591.49 1584.83 Q1592.71 1589.11 1594.88 1596.89 Z" fill="#000000" fill-rule="evenodd" fill-opacity="1" /><path clip-path="url(#clip130)" d="M1589.09 1551.82 Q1587.28 1554.95 1589.45 1558.31 Q1591.62 1561.65 1597.79 1565.21 Q1603.95 1568.77 1607.94 1568.98 Q1611.92 1569.17 1613.72 1566.04 Q1615.54 1562.9 1613.38 1559.56 Q1611.2 1556.2 1605.05 1552.64 Q1598.88 1549.08 1594.89 1548.89 Q1590.9 1548.67 1589.09 1551.82 M1585.88 1549.97 Q1588.78 1544.94 1594.3 1544.59 Q1599.81 1544.22 1607.39 1548.59 Q1614.95 1552.96 1617.4 1557.93 Q1619.84 1562.86 1616.93 1567.9 Q1614.03 1572.93 1608.52 1573.3 Q1603 1573.64 1595.44 1569.28 Q1587.87 1564.91 1585.42 1559.97 Q1582.97 1555 1585.88 1549.97 Z" fill="#000000" fill-rule="evenodd" fill-opacity="1" /><path clip-path="url(#clip130)" d="M1625.04 1544.64 L1633.2 1530.51 L1636.6 1532.48 L1625.63 1551.48 L1622.22 1549.51 Q1621.17 1545.83 1619.45 1539.55 Q1617.73 1533.23 1617.15 1531.54 Q1616.09 1528.33 1615.03 1526.7 Q1613.96 1525.04 1612.49 1524.2 Q1610.11 1522.82 1607.63 1523.64 Q1605.17 1524.43 1603.62 1527.12 Q1602.52 1529.02 1601.95 1531.53 Q1601.4 1534.02 1601.35 1537.2 L1597.26 1534.84 Q1597.69 1531.82 1598.42 1529.41 Q1599.14 1526.99 1600.16 1525.23 Q1602.85 1520.58 1606.77 1519.16 Q1610.69 1517.73 1614.58 1519.98 Q1616.43 1521.04 1617.68 1522.7 Q1618.93 1524.33 1620.13 1527.45 Q1620.42 1528.29 1621.65 1532.59 Q1622.87 1536.87 1625.04 1544.64 Z" fill="#000000" fill-rule="evenodd" fill-opacity="1" /><path clip-path="url(#clip130)" d="M1638.51 1521.31 L1642.33 1514.69 L1619.5 1501.51 L1616.78 1509.54 L1613.1 1507.41 L1615.78 1499.42 L1618.12 1495.37 L1644.64 1510.68 L1648.46 1504.07 L1651.87 1506.04 L1641.92 1523.28 L1638.51 1521.31 Z" fill="#000000" fill-rule="evenodd" fill-opacity="1" /><path clip-path="url(#clip130)" d="M1642.33 1492.8 L1648.56 1482 L1651.85 1483.89 L1645.61 1494.7 L1642.33 1492.8 Z" fill="#000000" fill-rule="evenodd" fill-opacity="1" /><path clip-path="url(#clip130)" d="M1642.88 1458.64 Q1641.08 1461.77 1643.25 1465.14 Q1645.41 1468.47 1651.59 1472.03 Q1657.74 1475.59 1661.73 1475.81 Q1665.71 1475.99 1667.52 1472.87 Q1669.34 1469.72 1667.17 1466.38 Q1665 1463.02 1658.85 1459.47 Q1652.67 1455.9 1648.69 1455.71 Q1644.7 1455.49 1642.88 1458.64 M1639.68 1456.79 Q1642.58 1451.76 1648.1 1451.42 Q1653.61 1451.04 1661.18 1455.42 Q1668.74 1459.78 1671.19 1464.75 Q1673.63 1469.69 1670.73 1474.72 Q1667.82 1479.75 1662.31 1480.12 Q1656.8 1480.47 1649.24 1476.1 Q1641.66 1471.73 1639.22 1466.79 Q1636.77 1461.82 1639.68 1456.79 Z" fill="#000000" fill-rule="evenodd" fill-opacity="1" /><path clip-path="url(#clip130)" d="M1668.94 1438.19 Q1667.36 1440.92 1668.3 1443.6 Q1669.25 1446.26 1672.5 1448.13 Q1675.73 1449.99 1678.53 1449.5 Q1681.32 1448.97 1682.89 1446.24 Q1684.46 1443.52 1683.51 1440.86 Q1682.56 1438.17 1679.33 1436.3 Q1676.08 1434.43 1673.29 1434.96 Q1670.51 1435.46 1668.94 1438.19 M1660.89 1422.82 L1664.58 1424.95 Q1662.98 1426.06 1661.69 1427.4 Q1660.42 1428.73 1659.54 1430.25 Q1657.23 1434.26 1658.71 1437.95 Q1660.2 1441.62 1665.5 1445.08 Q1664.43 1442.89 1664.54 1440.57 Q1664.63 1438.24 1665.87 1436.1 Q1668.47 1431.59 1672.72 1430.57 Q1676.97 1429.51 1681.68 1432.23 Q1686.29 1434.9 1687.5 1439.23 Q1688.71 1443.57 1686.1 1448.1 Q1683.1 1453.29 1677.55 1453.74 Q1671.97 1454.19 1664.41 1449.82 Q1657.32 1445.73 1655.05 1439.93 Q1652.77 1434.12 1656.04 1428.44 Q1656.92 1426.92 1658.11 1425.55 Q1659.32 1424.16 1660.89 1422.82 Z" fill="#000000" fill-rule="evenodd" fill-opacity="1" /><path clip-path="url(#clip130)" d="M1681.04 1425.74 L1687.28 1414.94 L1690.57 1416.84 L1684.33 1427.64 L1681.04 1425.74 Z" fill="#000000" fill-rule="evenodd" fill-opacity="1" /><path clip-path="url(#clip130)" d="M1700.86 1413.32 L1704.68 1406.7 L1681.84 1393.52 L1679.13 1401.55 L1675.44 1399.42 L1678.13 1391.43 L1680.47 1387.38 L1706.99 1402.69 L1710.81 1396.08 L1714.22 1398.04 L1704.27 1415.28 L1700.86 1413.32 Z" fill="#000000" fill-rule="evenodd" fill-opacity="1" /><path clip-path="url(#clip130)" d="M1696.68 1365.46 Q1694.87 1368.59 1697.05 1371.96 Q1699.21 1375.29 1705.38 1378.86 Q1711.54 1382.41 1715.53 1382.63 Q1719.51 1382.82 1721.32 1379.69 Q1723.13 1376.54 1720.97 1373.21 Q1718.8 1369.84 1712.64 1366.29 Q1706.47 1362.72 1702.49 1362.54 Q1698.5 1362.32 1696.68 1365.46 M1693.47 1363.61 Q1696.38 1358.58 1701.89 1358.24 Q1707.4 1357.86 1714.98 1362.24 Q1722.54 1366.6 1724.99 1371.57 Q1727.43 1376.51 1724.52 1381.54 Q1721.62 1386.57 1716.11 1386.95 Q1710.59 1387.29 1703.04 1382.93 Q1695.46 1378.55 1693.02 1373.61 Q1690.57 1368.64 1693.47 1363.61 Z" fill="#000000" fill-rule="evenodd" fill-opacity="1" /><path clip-path="url(#clip130)" d="M1873.45 1596.02 L1881.61 1581.89 L1885.01 1583.86 L1874.04 1602.86 L1870.63 1600.89 Q1869.58 1597.21 1867.86 1590.93 Q1866.14 1584.61 1865.56 1582.92 Q1864.5 1579.71 1863.44 1578.08 Q1862.37 1576.42 1860.9 1575.58 Q1858.52 1574.2 1856.04 1575.01 Q1853.58 1575.81 1852.03 1578.5 Q1850.93 1580.4 1850.36 1582.91 Q1849.81 1585.4 1849.76 1588.58 L1845.67 1586.22 Q1846.1 1583.2 1846.83 1580.79 Q1847.55 1578.37 1848.57 1576.61 Q1851.26 1571.96 1855.18 1570.53 Q1859.1 1569.11 1862.99 1571.36 Q1864.84 1572.42 1866.09 1574.08 Q1867.34 1575.71 1868.54 1578.83 Q1868.83 1579.67 1870.06 1583.97 Q1871.28 1588.25 1873.45 1596.02 Z" fill="#000000" fill-rule="evenodd" fill-opacity="1" /><path clip-path="url(#clip130)" d="M1867.66 1550.96 Q1865.85 1554.08 1868.03 1557.45 Q1870.19 1560.79 1876.36 1564.35 Q1882.52 1567.9 1886.51 1568.12 Q1890.49 1568.31 1892.3 1565.18 Q1894.11 1562.03 1891.95 1558.7 Q1889.78 1555.33 1883.62 1551.78 Q1877.45 1548.22 1873.47 1548.03 Q1869.48 1547.81 1867.66 1550.96 M1864.45 1549.11 Q1867.36 1544.07 1872.87 1543.73 Q1878.38 1543.36 1885.96 1547.73 Q1893.52 1552.09 1895.97 1557.06 Q1898.41 1562 1895.5 1567.03 Q1892.6 1572.07 1887.09 1572.44 Q1881.57 1572.78 1874.01 1568.42 Q1866.44 1564.04 1864 1559.11 Q1861.55 1554.14 1864.45 1549.11 Z" fill="#000000" fill-rule="evenodd" fill-opacity="1" /><path clip-path="url(#clip130)" d="M1903.61 1543.78 L1911.77 1529.65 L1915.18 1531.62 L1904.2 1550.62 L1900.8 1548.65 Q1899.74 1544.97 1898.02 1538.69 Q1896.3 1532.37 1895.73 1530.68 Q1894.66 1527.47 1893.6 1525.84 Q1892.53 1524.18 1891.06 1523.33 Q1888.68 1521.96 1886.2 1522.77 Q1883.74 1523.57 1882.19 1526.26 Q1881.09 1528.16 1880.52 1530.67 Q1879.97 1533.15 1879.92 1536.33 L1875.83 1533.97 Q1876.26 1530.96 1876.99 1528.55 Q1877.71 1526.13 1878.73 1524.37 Q1881.42 1519.72 1885.34 1518.29 Q1889.26 1516.87 1893.15 1519.11 Q1895 1520.18 1896.26 1521.84 Q1897.51 1523.47 1898.7 1526.59 Q1898.99 1527.43 1900.23 1531.72 Q1901.44 1536.01 1903.61 1543.78 Z" fill="#000000" fill-rule="evenodd" fill-opacity="1" /><path clip-path="url(#clip130)" d="M1917.08 1520.45 L1920.9 1513.83 L1898.07 1500.65 L1895.36 1508.68 L1891.67 1506.55 L1894.36 1498.56 L1896.69 1494.51 L1923.22 1509.82 L1927.03 1503.21 L1930.44 1505.17 L1920.49 1522.41 L1917.08 1520.45 Z" fill="#000000" fill-rule="evenodd" fill-opacity="1" /><path clip-path="url(#clip130)" d="M1920.9 1491.94 L1927.14 1481.13 L1930.42 1483.03 L1924.19 1493.84 L1920.9 1491.94 Z" fill="#000000" fill-rule="evenodd" fill-opacity="1" /><path clip-path="url(#clip130)" d="M1921.45 1457.78 Q1919.65 1460.91 1921.82 1464.27 Q1923.99 1467.61 1930.16 1471.17 Q1936.31 1474.73 1940.3 1474.94 Q1944.29 1475.13 1946.09 1472 Q1947.91 1468.86 1945.74 1465.52 Q1943.57 1462.16 1937.42 1458.6 Q1931.24 1455.04 1927.26 1454.85 Q1923.27 1454.63 1921.45 1457.78 M1918.25 1455.93 Q1921.15 1450.9 1926.67 1450.55 Q1932.18 1450.18 1939.76 1454.55 Q1947.31 1458.92 1949.76 1463.89 Q1952.2 1468.82 1949.3 1473.86 Q1946.39 1478.89 1940.89 1479.26 Q1935.37 1479.61 1927.81 1475.24 Q1920.23 1470.87 1917.79 1465.93 Q1915.34 1460.96 1918.25 1455.93 Z" fill="#000000" fill-rule="evenodd" fill-opacity="1" /><path clip-path="url(#clip130)" d="M1947.51 1437.33 Q1945.94 1440.05 1946.87 1442.73 Q1947.82 1445.39 1951.07 1447.27 Q1954.3 1449.13 1957.1 1448.64 Q1959.89 1448.11 1961.46 1445.38 Q1963.04 1442.66 1962.09 1440 Q1961.13 1437.3 1957.9 1435.44 Q1954.65 1433.57 1951.86 1434.09 Q1949.08 1434.6 1947.51 1437.33 M1939.46 1421.96 L1943.15 1424.09 Q1941.55 1425.2 1940.26 1426.54 Q1938.99 1427.87 1938.11 1429.39 Q1935.8 1433.4 1937.28 1437.09 Q1938.77 1440.75 1944.07 1444.21 Q1943.01 1442.02 1943.11 1439.71 Q1943.2 1437.38 1944.44 1435.23 Q1947.05 1430.72 1951.3 1429.7 Q1955.54 1428.65 1960.25 1431.37 Q1964.86 1434.03 1966.07 1438.37 Q1967.29 1442.7 1964.67 1447.23 Q1961.67 1452.43 1956.12 1452.88 Q1950.54 1453.32 1942.98 1448.96 Q1935.89 1444.86 1933.62 1439.07 Q1931.34 1433.26 1934.61 1427.58 Q1935.49 1426.06 1936.68 1424.69 Q1937.89 1423.3 1939.46 1421.96 Z" fill="#000000" fill-rule="evenodd" fill-opacity="1" /><path clip-path="url(#clip130)" d="M1959.61 1424.88 L1965.85 1414.08 L1969.14 1415.98 L1962.9 1426.78 L1959.61 1424.88 Z" fill="#000000" fill-rule="evenodd" fill-opacity="1" /><path clip-path="url(#clip130)" d="M1979.43 1412.46 L1983.25 1405.84 L1960.42 1392.66 L1957.7 1400.69 L1954.02 1398.56 L1956.7 1390.57 L1959.04 1386.52 L1985.56 1401.83 L1989.38 1395.21 L1992.79 1397.18 L1982.84 1414.42 L1979.43 1412.46 Z" fill="#000000" fill-rule="evenodd" fill-opacity="1" /><path clip-path="url(#clip130)" d="M1967.61 1371.68 L1976.79 1355.79 L1980.19 1357.75 L1973.16 1369.94 L1980.49 1374.18 Q1980.7 1373.12 1981.07 1372.16 Q1981.42 1371.18 1981.93 1370.3 Q1984.82 1365.29 1989.26 1363.95 Q1993.7 1362.61 1998.39 1365.32 Q2003.22 1368.11 2004.17 1372.66 Q2005.1 1377.21 2001.94 1382.68 Q2000.85 1384.57 1999.39 1386.35 Q1997.95 1388.11 1996.11 1389.82 L1992.04 1387.47 Q1994.06 1386.23 1995.65 1384.59 Q1997.25 1382.94 1998.48 1380.8 Q2000.49 1377.33 1999.83 1374.25 Q1999.18 1371.17 1996.05 1369.37 Q1992.92 1367.56 1989.93 1368.53 Q1986.93 1369.5 1984.93 1372.97 Q1983.99 1374.6 1983.42 1376.43 Q1982.85 1378.24 1982.64 1380.36 L1967.61 1371.68 Z" fill="#000000" fill-rule="evenodd" fill-opacity="1" /><path clip-path="url(#clip130)" d="M2151.07 1596.81 L2159.23 1582.67 L2162.64 1584.64 L2151.66 1603.64 L2148.26 1601.68 Q2147.2 1597.99 2145.48 1591.71 Q2143.76 1585.39 2143.19 1583.7 Q2142.12 1580.49 2141.06 1578.86 Q2139.99 1577.2 2138.52 1576.36 Q2136.14 1574.98 2133.66 1575.8 Q2131.2 1576.59 2129.65 1579.28 Q2128.55 1581.18 2127.98 1583.69 Q2127.43 1586.18 2127.38 1589.36 L2123.29 1587 Q2123.72 1583.98 2124.45 1581.57 Q2125.18 1579.16 2126.19 1577.39 Q2128.88 1572.74 2132.8 1571.32 Q2136.72 1569.89 2140.61 1572.14 Q2142.46 1573.2 2143.72 1574.87 Q2144.97 1576.5 2146.16 1579.62 Q2146.45 1580.45 2147.69 1584.75 Q2148.9 1589.03 2151.07 1596.81 Z" fill="#000000" fill-rule="evenodd" fill-opacity="1" /><path clip-path="url(#clip130)" d="M2145.28 1551.74 Q2143.48 1554.87 2145.65 1558.23 Q2147.81 1561.57 2153.99 1565.13 Q2160.14 1568.68 2164.13 1568.9 Q2168.11 1569.09 2169.92 1565.96 Q2171.74 1562.82 2169.57 1559.48 Q2167.4 1556.12 2161.24 1552.56 Q2155.07 1549 2151.09 1548.81 Q2147.1 1548.59 2145.28 1551.74 M2142.07 1549.89 Q2144.98 1544.86 2150.5 1544.51 Q2156 1544.14 2163.58 1548.51 Q2171.14 1552.88 2173.59 1557.85 Q2176.03 1562.78 2173.13 1567.82 Q2170.22 1572.85 2164.71 1573.22 Q2159.2 1573.56 2151.64 1569.2 Q2144.06 1564.83 2141.62 1559.89 Q2139.17 1554.92 2142.07 1549.89 Z" fill="#000000" fill-rule="evenodd" fill-opacity="1" /><path clip-path="url(#clip130)" d="M2181.23 1544.56 L2189.39 1530.43 L2192.8 1532.4 L2181.83 1551.4 L2178.42 1549.43 Q2177.36 1545.75 2175.65 1539.47 Q2173.92 1533.15 2173.35 1531.46 Q2172.29 1528.25 2171.22 1526.62 Q2170.15 1524.96 2168.69 1524.12 Q2166.3 1522.74 2163.83 1523.55 Q2161.36 1524.35 2159.81 1527.04 Q2158.71 1528.94 2158.15 1531.45 Q2157.59 1533.94 2157.55 1537.12 L2153.46 1534.76 Q2153.89 1531.74 2154.61 1529.33 Q2155.34 1526.91 2156.36 1525.15 Q2159.04 1520.5 2162.96 1519.07 Q2166.89 1517.65 2170.78 1519.9 Q2172.62 1520.96 2173.88 1522.62 Q2175.13 1524.25 2176.32 1527.37 Q2176.61 1528.21 2177.85 1532.51 Q2179.06 1536.79 2181.23 1544.56 Z" fill="#000000" fill-rule="evenodd" fill-opacity="1" /><path clip-path="url(#clip130)" d="M2194.7 1521.23 L2198.52 1514.61 L2175.69 1501.43 L2172.98 1509.46 L2169.29 1507.33 L2171.98 1499.34 L2174.32 1495.29 L2200.84 1510.6 L2204.66 1503.99 L2208.07 1505.96 L2198.11 1523.2 L2194.7 1521.23 Z" fill="#000000" fill-rule="evenodd" fill-opacity="1" /><path clip-path="url(#clip130)" d="M2198.52 1492.72 L2204.76 1481.92 L2208.05 1483.81 L2201.81 1494.62 L2198.52 1492.72 Z" fill="#000000" fill-rule="evenodd" fill-opacity="1" /><path clip-path="url(#clip130)" d="M2199.08 1458.56 Q2197.27 1461.69 2199.44 1465.06 Q2201.61 1468.39 2207.78 1471.95 Q2213.94 1475.51 2217.93 1475.73 Q2221.91 1475.91 2223.71 1472.79 Q2225.53 1469.64 2223.37 1466.3 Q2221.19 1462.94 2215.04 1459.39 Q2208.87 1455.82 2204.88 1455.63 Q2200.89 1455.41 2199.08 1458.56 M2195.87 1456.71 Q2198.77 1451.68 2204.29 1451.34 Q2209.8 1450.96 2217.38 1455.34 Q2224.94 1459.7 2227.39 1464.67 Q2229.83 1469.61 2226.92 1474.64 Q2224.02 1479.67 2218.51 1480.04 Q2212.99 1480.39 2205.43 1476.02 Q2197.86 1471.65 2195.41 1466.71 Q2192.96 1461.74 2195.87 1456.71 Z" fill="#000000" fill-rule="evenodd" fill-opacity="1" /><path clip-path="url(#clip130)" d="M2225.13 1438.11 Q2223.56 1440.83 2224.5 1443.52 Q2225.45 1446.18 2228.69 1448.05 Q2231.92 1449.91 2234.72 1449.42 Q2237.51 1448.89 2239.08 1446.16 Q2240.66 1443.44 2239.71 1440.78 Q2238.75 1438.09 2235.52 1436.22 Q2232.28 1434.35 2229.48 1434.87 Q2226.71 1435.38 2225.13 1438.11 M2217.08 1422.74 L2220.77 1424.87 Q2219.17 1425.98 2217.89 1427.32 Q2216.62 1428.65 2215.74 1430.17 Q2213.42 1434.18 2214.9 1437.87 Q2216.39 1441.54 2221.69 1445 Q2220.63 1442.81 2220.74 1440.49 Q2220.83 1438.16 2222.06 1436.02 Q2224.67 1431.51 2228.92 1430.49 Q2233.16 1429.43 2237.87 1432.15 Q2242.48 1434.82 2243.7 1439.15 Q2244.91 1443.49 2242.29 1448.02 Q2239.29 1453.21 2233.74 1453.66 Q2228.16 1454.11 2220.61 1449.74 Q2213.51 1445.65 2211.25 1439.85 Q2208.96 1434.04 2212.24 1428.36 Q2213.11 1426.84 2214.31 1425.47 Q2215.51 1424.08 2217.08 1422.74 Z" fill="#000000" fill-rule="evenodd" fill-opacity="1" /><path clip-path="url(#clip130)" d="M2237.24 1425.66 L2243.47 1414.86 L2246.76 1416.76 L2240.52 1427.56 L2237.24 1425.66 Z" fill="#000000" fill-rule="evenodd" fill-opacity="1" /><path clip-path="url(#clip130)" d="M2257.05 1413.24 L2260.87 1406.62 L2238.04 1393.44 L2235.33 1401.47 L2231.64 1399.34 L2234.33 1391.35 L2236.67 1387.3 L2263.19 1402.61 L2267.01 1396 L2270.41 1397.96 L2260.46 1415.2 L2257.05 1413.24 Z" fill="#000000" fill-rule="evenodd" fill-opacity="1" /><path clip-path="url(#clip130)" d="M2265.92 1372.92 Q2264.26 1375.81 2264.84 1378.36 Q2265.43 1380.9 2268.14 1382.46 Q2270.85 1384.02 2273.34 1383.27 Q2275.84 1382.5 2277.51 1379.61 Q2279.18 1376.72 2278.59 1374.17 Q2277.99 1371.6 2275.3 1370.05 Q2272.6 1368.49 2270.09 1369.26 Q2267.6 1370.01 2265.92 1372.92 M2261.86 1375.97 Q2259.72 1378.21 2257.09 1378.64 Q2254.47 1379.06 2251.9 1377.57 Q2248.31 1375.5 2247.7 1371.75 Q2247.1 1367.98 2249.67 1363.53 Q2252.25 1359.06 2255.8 1357.72 Q2259.36 1356.38 2262.94 1358.45 Q2265.51 1359.93 2266.45 1362.42 Q2267.4 1364.9 2266.55 1367.85 Q2268.92 1365.32 2271.84 1364.84 Q2274.78 1364.34 2277.64 1366 Q2281.99 1368.51 2282.78 1372.52 Q2283.58 1376.51 2280.72 1381.46 Q2277.86 1386.41 2273.99 1387.74 Q2270.14 1389.04 2265.79 1386.53 Q2262.92 1384.87 2261.89 1382.08 Q2260.85 1379.29 2261.86 1375.97 M2254.61 1373.76 Q2256.94 1375.11 2259.07 1374.42 Q2261.22 1373.7 2262.74 1371.08 Q2264.24 1368.47 2263.78 1366.26 Q2263.34 1364.02 2261.01 1362.68 Q2258.68 1361.34 2256.53 1362.07 Q2254.38 1362.78 2252.87 1365.38 Q2251.36 1368.01 2251.81 1370.23 Q2252.28 1372.42 2254.61 1373.76 Z" fill="#000000" fill-rule="evenodd" fill-opacity="1" /><polyline clip-path="url(#clip132)" style="stroke:#000000; stroke-linecap:butt; stroke-linejoin:round; stroke-width:2; stroke-opacity:0.1; fill:none" points="
  201.019,1137.05 2352.76,1137.05 
  "/>
<polyline clip-path="url(#clip132)" style="stroke:#000000; stroke-linecap:butt; stroke-linejoin:round; stroke-width:2; stroke-opacity:0.1; fill:none" points="
  201.019,921.109 2352.76,921.109 
  "/>
<polyline clip-path="url(#clip132)" style="stroke:#000000; stroke-linecap:butt; stroke-linejoin:round; stroke-width:2; stroke-opacity:0.1; fill:none" points="
  201.019,705.172 2352.76,705.172 
  "/>
<polyline clip-path="url(#clip132)" style="stroke:#000000; stroke-linecap:butt; stroke-linejoin:round; stroke-width:2; stroke-opacity:0.1; fill:none" points="
  201.019,489.234 2352.76,489.234 
  "/>
<polyline clip-path="url(#clip132)" style="stroke:#000000; stroke-linecap:butt; stroke-linejoin:round; stroke-width:2; stroke-opacity:0.1; fill:none" points="
  201.019,273.297 2352.76,273.297 
  "/>
<polyline clip-path="url(#clip132)" style="stroke:#000000; stroke-linecap:butt; stroke-linejoin:round; stroke-width:2; stroke-opacity:0.1; fill:none" points="
  201.019,57.3596 2352.76,57.3596 
  "/>
<polyline clip-path="url(#clip130)" style="stroke:#000000; stroke-linecap:butt; stroke-linejoin:round; stroke-width:4; stroke-opacity:1; fill:none" points="
  201.019,1330.92 201.019,47.2441 
  "/>
<polyline clip-path="url(#clip130)" style="stroke:#000000; stroke-linecap:butt; stroke-linejoin:round; stroke-width:4; stroke-opacity:1; fill:none" points="
  201.019,1137.05 226.84,1137.05 
  "/>
<polyline clip-path="url(#clip130)" style="stroke:#000000; stroke-linecap:butt; stroke-linejoin:round; stroke-width:4; stroke-opacity:1; fill:none" points="
  201.019,921.109 226.84,921.109 
  "/>
<polyline clip-path="url(#clip130)" style="stroke:#000000; stroke-linecap:butt; stroke-linejoin:round; stroke-width:4; stroke-opacity:1; fill:none" points="
  201.019,705.172 226.84,705.172 
  "/>
<polyline clip-path="url(#clip130)" style="stroke:#000000; stroke-linecap:butt; stroke-linejoin:round; stroke-width:4; stroke-opacity:1; fill:none" points="
  201.019,489.234 226.84,489.234 
  "/>
<polyline clip-path="url(#clip130)" style="stroke:#000000; stroke-linecap:butt; stroke-linejoin:round; stroke-width:4; stroke-opacity:1; fill:none" points="
  201.019,273.297 226.84,273.297 
  "/>
<polyline clip-path="url(#clip130)" style="stroke:#000000; stroke-linecap:butt; stroke-linejoin:round; stroke-width:4; stroke-opacity:1; fill:none" points="
  201.019,57.3596 226.84,57.3596 
  "/>
<path clip-path="url(#clip130)" d="M56.6171 1150.39 L72.9365 1150.39 L72.9365 1154.33 L50.9921 1154.33 L50.9921 1150.39 Q53.6541 1147.64 58.2375 1143.01 Q62.8439 1138.35 64.0245 1137.01 Q66.2698 1134.49 67.1494 1132.75 Q68.0522 1130.99 68.0522 1129.3 Q68.0522 1126.55 66.1078 1124.81 Q64.1865 1123.08 61.0847 1123.08 Q58.8856 1123.08 56.4319 1123.84 Q54.0014 1124.6 51.2236 1126.16 L51.2236 1121.43 Q54.0477 1120.3 56.5014 1119.72 Q58.955 1119.14 60.9921 1119.14 Q66.3624 1119.14 69.5568 1121.83 Q72.7513 1124.51 72.7513 1129 Q72.7513 1131.13 71.9411 1133.05 Q71.1541 1134.95 69.0476 1137.54 Q68.4689 1138.22 65.367 1141.43 Q62.2652 1144.63 56.6171 1150.39 Z" fill="#000000" fill-rule="evenodd" fill-opacity="1" /><path clip-path="url(#clip130)" d="M96.9178 1135.69 Q100.274 1136.41 102.149 1138.68 Q104.047 1140.95 104.047 1144.28 Q104.047 1149.4 100.529 1152.2 Q97.0104 1155 90.529 1155 Q88.353 1155 86.0382 1154.56 Q83.7466 1154.14 81.2929 1153.28 L81.2929 1148.77 Q83.2373 1149.91 85.5521 1150.48 Q87.8669 1151.06 90.3901 1151.06 Q94.7882 1151.06 97.0798 1149.33 Q99.3946 1147.59 99.3946 1144.28 Q99.3946 1141.22 97.2419 1139.51 Q95.1123 1137.78 91.2928 1137.78 L87.2651 1137.78 L87.2651 1133.93 L91.478 1133.93 Q94.9271 1133.93 96.7558 1132.57 Q98.5845 1131.18 98.5845 1128.59 Q98.5845 1125.92 96.6863 1124.51 Q94.8113 1123.08 91.2928 1123.08 Q89.3715 1123.08 87.1725 1123.49 Q84.9734 1123.91 82.3346 1124.79 L82.3346 1120.62 Q84.9966 1119.88 87.3114 1119.51 Q89.6493 1119.14 91.7095 1119.14 Q97.0335 1119.14 100.135 1121.57 Q103.237 1123.98 103.237 1128.1 Q103.237 1130.97 101.594 1132.96 Q99.9502 1134.93 96.9178 1135.69 Z" fill="#000000" fill-rule="evenodd" fill-opacity="1" /><path clip-path="url(#clip130)" d="M122.913 1122.85 Q119.302 1122.85 117.473 1126.41 Q115.668 1129.95 115.668 1137.08 Q115.668 1144.19 117.473 1147.75 Q119.302 1151.29 122.913 1151.29 Q126.547 1151.29 128.353 1147.75 Q130.182 1144.19 130.182 1137.08 Q130.182 1129.95 128.353 1126.41 Q126.547 1122.85 122.913 1122.85 M122.913 1119.14 Q128.723 1119.14 131.779 1123.75 Q134.857 1128.33 134.857 1137.08 Q134.857 1145.81 131.779 1150.41 Q128.723 1155 122.913 1155 Q117.103 1155 114.024 1150.41 Q110.969 1145.81 110.969 1137.08 Q110.969 1128.33 114.024 1123.75 Q117.103 1119.14 122.913 1119.14 Z" fill="#000000" fill-rule="evenodd" fill-opacity="1" /><path clip-path="url(#clip130)" d="M153.075 1122.85 Q149.464 1122.85 147.635 1126.41 Q145.83 1129.95 145.83 1137.08 Q145.83 1144.19 147.635 1147.75 Q149.464 1151.29 153.075 1151.29 Q156.709 1151.29 158.515 1147.75 Q160.343 1144.19 160.343 1137.08 Q160.343 1129.95 158.515 1126.41 Q156.709 1122.85 153.075 1122.85 M153.075 1119.14 Q158.885 1119.14 161.941 1123.75 Q165.019 1128.33 165.019 1137.08 Q165.019 1145.81 161.941 1150.41 Q158.885 1155 153.075 1155 Q147.265 1155 144.186 1150.41 Q141.131 1145.81 141.131 1137.08 Q141.131 1128.33 144.186 1123.75 Q147.265 1119.14 153.075 1119.14 Z" fill="#000000" fill-rule="evenodd" fill-opacity="1" /><path clip-path="url(#clip130)" d="M56.6171 934.454 L72.9365 934.454 L72.9365 938.389 L50.9921 938.389 L50.9921 934.454 Q53.6541 931.699 58.2375 927.07 Q62.8439 922.417 64.0245 921.074 Q66.2698 918.551 67.1494 916.815 Q68.0522 915.056 68.0522 913.366 Q68.0522 910.612 66.1078 908.875 Q64.1865 907.139 61.0847 907.139 Q58.8856 907.139 56.4319 907.903 Q54.0014 908.667 51.2236 910.218 L51.2236 905.496 Q54.0477 904.362 56.5014 903.783 Q58.955 903.204 60.9921 903.204 Q66.3624 903.204 69.5568 905.889 Q72.7513 908.575 72.7513 913.065 Q72.7513 915.195 71.9411 917.116 Q71.1541 919.014 69.0476 921.607 Q68.4689 922.278 65.367 925.496 Q62.2652 928.69 56.6171 934.454 Z" fill="#000000" fill-rule="evenodd" fill-opacity="1" /><path clip-path="url(#clip130)" d="M96.9178 919.755 Q100.274 920.473 102.149 922.741 Q104.047 925.01 104.047 928.343 Q104.047 933.459 100.529 936.26 Q97.0104 939.06 90.529 939.06 Q88.353 939.06 86.0382 938.621 Q83.7466 938.204 81.2929 937.347 L81.2929 932.834 Q83.2373 933.968 85.5521 934.547 Q87.8669 935.125 90.3901 935.125 Q94.7882 935.125 97.0798 933.389 Q99.3946 931.653 99.3946 928.343 Q99.3946 925.287 97.2419 923.574 Q95.1123 921.838 91.2928 921.838 L87.2651 921.838 L87.2651 917.996 L91.478 917.996 Q94.9271 917.996 96.7558 916.63 Q98.5845 915.241 98.5845 912.649 Q98.5845 909.987 96.6863 908.575 Q94.8113 907.139 91.2928 907.139 Q89.3715 907.139 87.1725 907.556 Q84.9734 907.973 82.3346 908.852 L82.3346 904.686 Q84.9966 903.945 87.3114 903.575 Q89.6493 903.204 91.7095 903.204 Q97.0335 903.204 100.135 905.635 Q103.237 908.042 103.237 912.162 Q103.237 915.033 101.594 917.024 Q99.9502 918.991 96.9178 919.755 Z" fill="#000000" fill-rule="evenodd" fill-opacity="1" /><path clip-path="url(#clip130)" d="M112.959 903.829 L131.316 903.829 L131.316 907.764 L117.242 907.764 L117.242 916.237 Q118.26 915.889 119.279 915.727 Q120.297 915.542 121.316 915.542 Q127.103 915.542 130.482 918.713 Q133.862 921.885 133.862 927.301 Q133.862 932.88 130.39 935.982 Q126.918 939.06 120.598 939.06 Q118.422 939.06 116.154 938.69 Q113.908 938.32 111.501 937.579 L111.501 932.88 Q113.584 934.014 115.807 934.57 Q118.029 935.125 120.506 935.125 Q124.51 935.125 126.848 933.019 Q129.186 930.912 129.186 927.301 Q129.186 923.69 126.848 921.584 Q124.51 919.477 120.506 919.477 Q118.631 919.477 116.756 919.894 Q114.904 920.311 112.959 921.19 L112.959 903.829 Z" fill="#000000" fill-rule="evenodd" fill-opacity="1" /><path clip-path="url(#clip130)" d="M153.075 906.908 Q149.464 906.908 147.635 910.473 Q145.83 914.014 145.83 921.144 Q145.83 928.25 147.635 931.815 Q149.464 935.357 153.075 935.357 Q156.709 935.357 158.515 931.815 Q160.343 928.25 160.343 921.144 Q160.343 914.014 158.515 910.473 Q156.709 906.908 153.075 906.908 M153.075 903.204 Q158.885 903.204 161.941 907.811 Q165.019 912.394 165.019 921.144 Q165.019 929.871 161.941 934.477 Q158.885 939.06 153.075 939.06 Q147.265 939.06 144.186 934.477 Q141.131 929.871 141.131 921.144 Q141.131 912.394 144.186 907.811 Q147.265 903.204 153.075 903.204 Z" fill="#000000" fill-rule="evenodd" fill-opacity="1" /><path clip-path="url(#clip130)" d="M56.6171 718.517 L72.9365 718.517 L72.9365 722.452 L50.9921 722.452 L50.9921 718.517 Q53.6541 715.762 58.2375 711.132 Q62.8439 706.48 64.0245 705.137 Q66.2698 702.614 67.1494 700.878 Q68.0522 699.119 68.0522 697.429 Q68.0522 694.674 66.1078 692.938 Q64.1865 691.202 61.0847 691.202 Q58.8856 691.202 56.4319 691.966 Q54.0014 692.73 51.2236 694.281 L51.2236 689.558 Q54.0477 688.424 56.5014 687.845 Q58.955 687.267 60.9921 687.267 Q66.3624 687.267 69.5568 689.952 Q72.7513 692.637 72.7513 697.128 Q72.7513 699.257 71.9411 701.179 Q71.1541 703.077 69.0476 705.669 Q68.4689 706.341 65.367 709.558 Q62.2652 712.753 56.6171 718.517 Z" fill="#000000" fill-rule="evenodd" fill-opacity="1" /><path clip-path="url(#clip130)" d="M95.5984 691.966 L83.7929 710.415 L95.5984 710.415 L95.5984 691.966 M94.3715 687.892 L100.251 687.892 L100.251 710.415 L105.182 710.415 L105.182 714.304 L100.251 714.304 L100.251 722.452 L95.5984 722.452 L95.5984 714.304 L79.9966 714.304 L79.9966 709.79 L94.3715 687.892 Z" fill="#000000" fill-rule="evenodd" fill-opacity="1" /><path clip-path="url(#clip130)" d="M122.913 690.97 Q119.302 690.97 117.473 694.535 Q115.668 698.077 115.668 705.206 Q115.668 712.313 117.473 715.878 Q119.302 719.419 122.913 719.419 Q126.547 719.419 128.353 715.878 Q130.182 712.313 130.182 705.206 Q130.182 698.077 128.353 694.535 Q126.547 690.97 122.913 690.97 M122.913 687.267 Q128.723 687.267 131.779 691.873 Q134.857 696.457 134.857 705.206 Q134.857 713.933 131.779 718.54 Q128.723 723.123 122.913 723.123 Q117.103 723.123 114.024 718.54 Q110.969 713.933 110.969 705.206 Q110.969 696.457 114.024 691.873 Q117.103 687.267 122.913 687.267 Z" fill="#000000" fill-rule="evenodd" fill-opacity="1" /><path clip-path="url(#clip130)" d="M153.075 690.97 Q149.464 690.97 147.635 694.535 Q145.83 698.077 145.83 705.206 Q145.83 712.313 147.635 715.878 Q149.464 719.419 153.075 719.419 Q156.709 719.419 158.515 715.878 Q160.343 712.313 160.343 705.206 Q160.343 698.077 158.515 694.535 Q156.709 690.97 153.075 690.97 M153.075 687.267 Q158.885 687.267 161.941 691.873 Q165.019 696.457 165.019 705.206 Q165.019 713.933 161.941 718.54 Q158.885 723.123 153.075 723.123 Q147.265 723.123 144.186 718.54 Q141.131 713.933 141.131 705.206 Q141.131 696.457 144.186 691.873 Q147.265 687.267 153.075 687.267 Z" fill="#000000" fill-rule="evenodd" fill-opacity="1" /><path clip-path="url(#clip130)" d="M56.6171 502.579 L72.9365 502.579 L72.9365 506.514 L50.9921 506.514 L50.9921 502.579 Q53.6541 499.825 58.2375 495.195 Q62.8439 490.542 64.0245 489.2 Q66.2698 486.677 67.1494 484.94 Q68.0522 483.181 68.0522 481.491 Q68.0522 478.737 66.1078 477.001 Q64.1865 475.265 61.0847 475.265 Q58.8856 475.265 56.4319 476.028 Q54.0014 476.792 51.2236 478.343 L51.2236 473.621 Q54.0477 472.487 56.5014 471.908 Q58.955 471.329 60.9921 471.329 Q66.3624 471.329 69.5568 474.015 Q72.7513 476.7 72.7513 481.19 Q72.7513 483.32 71.9411 485.241 Q71.1541 487.139 69.0476 489.732 Q68.4689 490.403 65.367 493.621 Q62.2652 496.815 56.6171 502.579 Z" fill="#000000" fill-rule="evenodd" fill-opacity="1" /><path clip-path="url(#clip130)" d="M95.5984 476.028 L83.7929 494.477 L95.5984 494.477 L95.5984 476.028 M94.3715 471.954 L100.251 471.954 L100.251 494.477 L105.182 494.477 L105.182 498.366 L100.251 498.366 L100.251 506.514 L95.5984 506.514 L95.5984 498.366 L79.9966 498.366 L79.9966 493.852 L94.3715 471.954 Z" fill="#000000" fill-rule="evenodd" fill-opacity="1" /><path clip-path="url(#clip130)" d="M112.959 471.954 L131.316 471.954 L131.316 475.89 L117.242 475.89 L117.242 484.362 Q118.26 484.014 119.279 483.852 Q120.297 483.667 121.316 483.667 Q127.103 483.667 130.482 486.839 Q133.862 490.01 133.862 495.426 Q133.862 501.005 130.39 504.107 Q126.918 507.186 120.598 507.186 Q118.422 507.186 116.154 506.815 Q113.908 506.445 111.501 505.704 L111.501 501.005 Q113.584 502.139 115.807 502.695 Q118.029 503.251 120.506 503.251 Q124.51 503.251 126.848 501.144 Q129.186 499.038 129.186 495.426 Q129.186 491.815 126.848 489.709 Q124.51 487.602 120.506 487.602 Q118.631 487.602 116.756 488.019 Q114.904 488.436 112.959 489.315 L112.959 471.954 Z" fill="#000000" fill-rule="evenodd" fill-opacity="1" /><path clip-path="url(#clip130)" d="M153.075 475.033 Q149.464 475.033 147.635 478.598 Q145.83 482.14 145.83 489.269 Q145.83 496.376 147.635 499.94 Q149.464 503.482 153.075 503.482 Q156.709 503.482 158.515 499.94 Q160.343 496.376 160.343 489.269 Q160.343 482.14 158.515 478.598 Q156.709 475.033 153.075 475.033 M153.075 471.329 Q158.885 471.329 161.941 475.936 Q165.019 480.519 165.019 489.269 Q165.019 497.996 161.941 502.602 Q158.885 507.186 153.075 507.186 Q147.265 507.186 144.186 502.602 Q141.131 497.996 141.131 489.269 Q141.131 480.519 144.186 475.936 Q147.265 471.329 153.075 471.329 Z" fill="#000000" fill-rule="evenodd" fill-opacity="1" /><path clip-path="url(#clip130)" d="M56.6171 286.642 L72.9365 286.642 L72.9365 290.577 L50.9921 290.577 L50.9921 286.642 Q53.6541 283.887 58.2375 279.258 Q62.8439 274.605 64.0245 273.262 Q66.2698 270.739 67.1494 269.003 Q68.0522 267.244 68.0522 265.554 Q68.0522 262.799 66.1078 261.063 Q64.1865 259.327 61.0847 259.327 Q58.8856 259.327 56.4319 260.091 Q54.0014 260.855 51.2236 262.406 L51.2236 257.684 Q54.0477 256.549 56.5014 255.971 Q58.955 255.392 60.9921 255.392 Q66.3624 255.392 69.5568 258.077 Q72.7513 260.762 72.7513 265.253 Q72.7513 267.383 71.9411 269.304 Q71.1541 271.202 69.0476 273.795 Q68.4689 274.466 65.367 277.684 Q62.2652 280.878 56.6171 286.642 Z" fill="#000000" fill-rule="evenodd" fill-opacity="1" /><path clip-path="url(#clip130)" d="M82.7975 256.017 L101.154 256.017 L101.154 259.952 L87.0799 259.952 L87.0799 268.424 Q88.0984 268.077 89.1169 267.915 Q90.1354 267.73 91.1539 267.73 Q96.941 267.73 100.321 270.901 Q103.7 274.072 103.7 279.489 Q103.7 285.068 100.228 288.17 Q96.7558 291.248 90.4364 291.248 Q88.2604 291.248 85.9919 290.878 Q83.7466 290.508 81.3392 289.767 L81.3392 285.068 Q83.4225 286.202 85.6447 286.758 Q87.8669 287.313 90.3438 287.313 Q94.3484 287.313 96.6863 285.207 Q99.0243 283.1 99.0243 279.489 Q99.0243 275.878 96.6863 273.772 Q94.3484 271.665 90.3438 271.665 Q88.4688 271.665 86.5938 272.082 Q84.7419 272.498 82.7975 273.378 L82.7975 256.017 Z" fill="#000000" fill-rule="evenodd" fill-opacity="1" /><path clip-path="url(#clip130)" d="M122.913 259.096 Q119.302 259.096 117.473 262.66 Q115.668 266.202 115.668 273.332 Q115.668 280.438 117.473 284.003 Q119.302 287.545 122.913 287.545 Q126.547 287.545 128.353 284.003 Q130.182 280.438 130.182 273.332 Q130.182 266.202 128.353 262.66 Q126.547 259.096 122.913 259.096 M122.913 255.392 Q128.723 255.392 131.779 259.998 Q134.857 264.582 134.857 273.332 Q134.857 282.059 131.779 286.665 Q128.723 291.248 122.913 291.248 Q117.103 291.248 114.024 286.665 Q110.969 282.059 110.969 273.332 Q110.969 264.582 114.024 259.998 Q117.103 255.392 122.913 255.392 Z" fill="#000000" fill-rule="evenodd" fill-opacity="1" /><path clip-path="url(#clip130)" d="M153.075 259.096 Q149.464 259.096 147.635 262.66 Q145.83 266.202 145.83 273.332 Q145.83 280.438 147.635 284.003 Q149.464 287.545 153.075 287.545 Q156.709 287.545 158.515 284.003 Q160.343 280.438 160.343 273.332 Q160.343 266.202 158.515 262.66 Q156.709 259.096 153.075 259.096 M153.075 255.392 Q158.885 255.392 161.941 259.998 Q165.019 264.582 165.019 273.332 Q165.019 282.059 161.941 286.665 Q158.885 291.248 153.075 291.248 Q147.265 291.248 144.186 286.665 Q141.131 282.059 141.131 273.332 Q141.131 264.582 144.186 259.998 Q147.265 255.392 153.075 255.392 Z" fill="#000000" fill-rule="evenodd" fill-opacity="1" /><path clip-path="url(#clip130)" d="M56.6171 70.7044 L72.9365 70.7044 L72.9365 74.6396 L50.9921 74.6396 L50.9921 70.7044 Q53.6541 67.9498 58.2375 63.3202 Q62.8439 58.6675 64.0245 57.3249 Q66.2698 54.8017 67.1494 53.0656 Q68.0522 51.3064 68.0522 49.6166 Q68.0522 46.862 66.1078 45.1259 Q64.1865 43.3898 61.0847 43.3898 Q58.8856 43.3898 56.4319 44.1536 Q54.0014 44.9175 51.2236 46.4684 L51.2236 41.7463 Q54.0477 40.612 56.5014 40.0333 Q58.955 39.4546 60.9921 39.4546 Q66.3624 39.4546 69.5568 42.1398 Q72.7513 44.8249 72.7513 49.3157 Q72.7513 51.4453 71.9411 53.3666 Q71.1541 55.2647 69.0476 57.8573 Q68.4689 58.5286 65.367 61.7461 Q62.2652 64.9406 56.6171 70.7044 Z" fill="#000000" fill-rule="evenodd" fill-opacity="1" /><path clip-path="url(#clip130)" d="M82.7975 40.0796 L101.154 40.0796 L101.154 44.0148 L87.0799 44.0148 L87.0799 52.4869 Q88.0984 52.1397 89.1169 51.9777 Q90.1354 51.7925 91.1539 51.7925 Q96.941 51.7925 100.321 54.9638 Q103.7 58.1351 103.7 63.5517 Q103.7 69.1304 100.228 72.2322 Q96.7558 75.3109 90.4364 75.3109 Q88.2604 75.3109 85.9919 74.9405 Q83.7466 74.5701 81.3392 73.8294 L81.3392 69.1304 Q83.4225 70.2646 85.6447 70.8202 Q87.8669 71.3757 90.3438 71.3757 Q94.3484 71.3757 96.6863 69.2693 Q99.0243 67.1628 99.0243 63.5517 Q99.0243 59.9406 96.6863 57.8341 Q94.3484 55.7277 90.3438 55.7277 Q88.4688 55.7277 86.5938 56.1443 Q84.7419 56.561 82.7975 57.4406 L82.7975 40.0796 Z" fill="#000000" fill-rule="evenodd" fill-opacity="1" /><path clip-path="url(#clip130)" d="M112.959 40.0796 L131.316 40.0796 L131.316 44.0148 L117.242 44.0148 L117.242 52.4869 Q118.26 52.1397 119.279 51.9777 Q120.297 51.7925 121.316 51.7925 Q127.103 51.7925 130.482 54.9638 Q133.862 58.1351 133.862 63.5517 Q133.862 69.1304 130.39 72.2322 Q126.918 75.3109 120.598 75.3109 Q118.422 75.3109 116.154 74.9405 Q113.908 74.5701 111.501 73.8294 L111.501 69.1304 Q113.584 70.2646 115.807 70.8202 Q118.029 71.3757 120.506 71.3757 Q124.51 71.3757 126.848 69.2693 Q129.186 67.1628 129.186 63.5517 Q129.186 59.9406 126.848 57.8341 Q124.51 55.7277 120.506 55.7277 Q118.631 55.7277 116.756 56.1443 Q114.904 56.561 112.959 57.4406 L112.959 40.0796 Z" fill="#000000" fill-rule="evenodd" fill-opacity="1" /><path clip-path="url(#clip130)" d="M153.075 43.1583 Q149.464 43.1583 147.635 46.7231 Q145.83 50.2647 145.83 57.3943 Q145.83 64.5008 147.635 68.0656 Q149.464 71.6072 153.075 71.6072 Q156.709 71.6072 158.515 68.0656 Q160.343 64.5008 160.343 57.3943 Q160.343 50.2647 158.515 46.7231 Q156.709 43.1583 153.075 43.1583 M153.075 39.4546 Q158.885 39.4546 161.941 44.0611 Q165.019 48.6444 165.019 57.3943 Q165.019 66.1211 161.941 70.7276 Q158.885 75.3109 153.075 75.3109 Q147.265 75.3109 144.186 70.7276 Q141.131 66.1211 141.131 57.3943 Q141.131 48.6444 144.186 44.0611 Q147.265 39.4546 153.075 39.4546 Z" fill="#000000" fill-rule="evenodd" fill-opacity="1" /><path clip-path="url(#clip132)" d="
M303.629 1294.59 L303.629 1290.79 L261.917 1290.79 L261.917 1099.43 L303.629 1099.43 L303.629 1064.66 L303.629 1099.43 L345.34 1099.43 L345.34 1290.79 L303.629 1290.79 
  L303.629 1294.59  Z
  " fill="#008000" fill-rule="evenodd" fill-opacity="1"/>
<polyline clip-path="url(#clip132)" style="stroke:#008000; stroke-linecap:butt; stroke-linejoin:round; stroke-width:2; stroke-opacity:1; fill:none" points="
  303.629,1294.59 303.629,1290.79 261.917,1290.79 261.917,1099.43 303.629,1099.43 303.629,1064.66 303.629,1099.43 345.34,1099.43 345.34,1290.79 303.629,1290.79 
  303.629,1294.59 
  "/>
<path clip-path="url(#clip132)" d="
M396.32 1045.96 L396.32 1015.95 L354.609 1015.95 L354.609 894.808 L396.32 894.808 L396.32 876.453 L396.32 894.808 L438.031 894.808 L438.031 1015.95 L396.32 1015.95 
  L396.32 1045.96  Z
  " fill="#008000" fill-rule="evenodd" fill-opacity="1"/>
<polyline clip-path="url(#clip132)" style="stroke:#008000; stroke-linecap:butt; stroke-linejoin:round; stroke-width:2; stroke-opacity:1; fill:none" points="
  396.32,1045.96 396.32,1015.95 354.609,1015.95 354.609,894.808 396.32,894.808 396.32,876.453 396.32,894.808 438.031,894.808 438.031,1015.95 396.32,1015.95 
  396.32,1045.96 
  "/>
<path clip-path="url(#clip132)" d="
M489.011 954.061 L489.011 942.271 L447.3 942.271 L447.3 852.052 L489.011 852.052 L489.011 839.053 L489.011 852.052 L530.722 852.052 L530.722 942.271 L489.011 942.271 
  L489.011 954.061  Z
  " fill="#ff0000" fill-rule="evenodd" fill-opacity="1"/>
<polyline clip-path="url(#clip132)" style="stroke:#ff0000; stroke-linecap:butt; stroke-linejoin:round; stroke-width:2; stroke-opacity:1; fill:none" points="
  489.011,954.061 489.011,942.271 447.3,942.271 447.3,852.052 489.011,852.052 489.011,839.053 489.011,852.052 530.722,852.052 530.722,942.271 489.011,942.271 
  489.011,954.061 
  "/>
<path clip-path="url(#clip132)" d="
M581.703 877.446 L581.703 847.69 L539.991 847.69 L539.991 676.366 L581.703 676.366 L581.703 625.361 L581.703 676.366 L623.414 676.366 L623.414 847.69 L581.703 847.69 
  L581.703 877.446  Z
  " fill="#008000" fill-rule="evenodd" fill-opacity="1"/>
<polyline clip-path="url(#clip132)" style="stroke:#008000; stroke-linecap:butt; stroke-linejoin:round; stroke-width:2; stroke-opacity:1; fill:none" points="
  581.703,877.446 581.703,847.69 539.991,847.69 539.991,676.366 581.703,676.366 581.703,625.361 581.703,676.366 623.414,676.366 623.414,847.69 581.703,847.69 
  581.703,877.446 
  "/>
<path clip-path="url(#clip132)" d="
M674.394 692.259 L674.394 666 L632.683 666 L632.683 618.797 L674.394 618.797 L674.394 563.129 L674.394 618.797 L716.105 618.797 L716.105 666 L674.394 666 
  L674.394 692.259  Z
  " fill="#ff0000" fill-rule="evenodd" fill-opacity="1"/>
<polyline clip-path="url(#clip132)" style="stroke:#ff0000; stroke-linecap:butt; stroke-linejoin:round; stroke-width:2; stroke-opacity:1; fill:none" points="
  674.394,692.259 674.394,666 632.683,666 632.683,618.797 674.394,618.797 674.394,563.129 674.394,618.797 716.105,618.797 716.105,666 674.394,666 
  674.394,692.259 
  "/>
<path clip-path="url(#clip132)" d="
M767.085 651.123 L767.085 649.741 L725.374 649.741 L725.374 560.364 L767.085 560.364 L767.085 519.707 L767.085 560.364 L808.796 560.364 L808.796 649.741 L767.085 649.741 
  L767.085 651.123  Z
  " fill="#008000" fill-rule="evenodd" fill-opacity="1"/>
<polyline clip-path="url(#clip132)" style="stroke:#008000; stroke-linecap:butt; stroke-linejoin:round; stroke-width:2; stroke-opacity:1; fill:none" points="
  767.085,651.123 767.085,649.741 725.374,649.741 725.374,560.364 767.085,560.364 767.085,519.707 767.085,560.364 808.796,560.364 808.796,649.741 767.085,649.741 
  767.085,651.123 
  "/>
<path clip-path="url(#clip132)" d="
M859.777 696.534 L859.777 694.332 L818.065 694.332 L818.065 545.637 L859.777 545.637 L859.777 532.422 L859.777 545.637 L901.488 545.637 L901.488 694.332 L859.777 694.332 
  L859.777 696.534  Z
  " fill="#ff0000" fill-rule="evenodd" fill-opacity="1"/>
<polyline clip-path="url(#clip132)" style="stroke:#ff0000; stroke-linecap:butt; stroke-linejoin:round; stroke-width:2; stroke-opacity:1; fill:none" points="
  859.777,696.534 859.777,694.332 818.065,694.332 818.065,545.637 859.777,545.637 859.777,532.422 859.777,545.637 901.488,545.637 901.488,694.332 859.777,694.332 
  859.777,696.534 
  "/>
<path clip-path="url(#clip132)" d="
M952.468 671.961 L952.468 655.247 L910.757 655.247 L910.757 610.332 L952.468 610.332 L952.468 583.643 L952.468 610.332 L994.179 610.332 L994.179 655.247 L952.468 655.247 
  L952.468 671.961  Z
  " fill="#ff0000" fill-rule="evenodd" fill-opacity="1"/>
<polyline clip-path="url(#clip132)" style="stroke:#ff0000; stroke-linecap:butt; stroke-linejoin:round; stroke-width:2; stroke-opacity:1; fill:none" points="
  952.468,671.961 952.468,655.247 910.757,655.247 910.757,610.332 952.468,610.332 952.468,583.643 952.468,610.332 994.179,610.332 994.179,655.247 952.468,655.247 
  952.468,671.961 
  "/>
<path clip-path="url(#clip132)" d="
M1045.16 684.097 L1045.16 610.159 L1003.45 610.159 L1003.45 576.43 L1045.16 576.43 L1045.16 541.185 L1045.16 576.43 L1086.87 576.43 L1086.87 610.159 L1045.16 610.159 
  L1045.16 684.097  Z
  " fill="#008000" fill-rule="evenodd" fill-opacity="1"/>
<polyline clip-path="url(#clip132)" style="stroke:#008000; stroke-linecap:butt; stroke-linejoin:round; stroke-width:2; stroke-opacity:1; fill:none" points="
  1045.16,684.097 1045.16,610.159 1003.45,610.159 1003.45,576.43 1045.16,576.43 1045.16,541.185 1045.16,576.43 1086.87,576.43 1086.87,610.159 1045.16,610.159 
  1045.16,684.097 
  "/>
<path clip-path="url(#clip132)" d="
M1137.85 687.033 L1137.85 613.269 L1096.14 613.269 L1096.14 552.677 L1137.85 552.677 L1137.85 523.784 L1137.85 552.677 L1179.56 552.677 L1179.56 613.269 L1137.85 613.269 
  L1137.85 687.033  Z
  " fill="#ff0000" fill-rule="evenodd" fill-opacity="1"/>
<polyline clip-path="url(#clip132)" style="stroke:#ff0000; stroke-linecap:butt; stroke-linejoin:round; stroke-width:2; stroke-opacity:1; fill:none" points="
  1137.85,687.033 1137.85,613.269 1096.14,613.269 1096.14,552.677 1137.85,552.677 1137.85,523.784 1137.85,552.677 1179.56,552.677 1179.56,613.269 1137.85,613.269 
  1137.85,687.033 
  "/>
<path clip-path="url(#clip132)" d="
M1230.54 779.324 L1230.54 726.679 L1188.83 726.679 L1188.83 685.262 L1230.54 685.262 L1230.54 663.085 L1230.54 685.262 L1272.25 685.262 L1272.25 726.679 L1230.54 726.679 
  L1230.54 779.324  Z
  " fill="#008000" fill-rule="evenodd" fill-opacity="1"/>
<polyline clip-path="url(#clip132)" style="stroke:#008000; stroke-linecap:butt; stroke-linejoin:round; stroke-width:2; stroke-opacity:1; fill:none" points="
  1230.54,779.324 1230.54,726.679 1188.83,726.679 1188.83,685.262 1230.54,685.262 1230.54,663.085 1230.54,685.262 1272.25,685.262 1272.25,726.679 1230.54,726.679 
  1230.54,779.324 
  "/>
<path clip-path="url(#clip132)" d="
M1323.23 628.428 L1323.23 607.913 L1281.52 607.913 L1281.52 481.633 L1323.23 481.633 L1323.23 472.569 L1323.23 481.633 L1364.94 481.633 L1364.94 607.913 L1323.23 607.913 
  L1323.23 628.428  Z
  " fill="#008000" fill-rule="evenodd" fill-opacity="1"/>
<polyline clip-path="url(#clip132)" style="stroke:#008000; stroke-linecap:butt; stroke-linejoin:round; stroke-width:2; stroke-opacity:1; fill:none" points="
  1323.23,628.428 1323.23,607.913 1281.52,607.913 1281.52,481.633 1323.23,481.633 1323.23,472.569 1323.23,481.633 1364.94,481.633 1364.94,607.913 1323.23,607.913 
  1323.23,628.428 
  "/>
<path clip-path="url(#clip132)" d="
M1415.92 527.788 L1415.92 483.533 L1374.21 483.533 L1374.21 419.745 L1415.92 419.745 L1415.92 411.497 L1415.92 419.745 L1457.64 419.745 L1457.64 483.533 L1415.92 483.533 
  L1415.92 527.788  Z
  " fill="#008000" fill-rule="evenodd" fill-opacity="1"/>
<polyline clip-path="url(#clip132)" style="stroke:#008000; stroke-linecap:butt; stroke-linejoin:round; stroke-width:2; stroke-opacity:1; fill:none" points="
  1415.92,527.788 1415.92,483.533 1374.21,483.533 1374.21,419.745 1415.92,419.745 1415.92,411.497 1415.92,419.745 1457.64,419.745 1457.64,483.533 1415.92,483.533 
  1415.92,527.788 
  "/>
<path clip-path="url(#clip132)" d="
M1508.62 410.46 L1508.62 360.104 L1466.9 360.104 L1466.9 347.363 L1508.62 347.363 L1508.62 297.071 L1508.62 347.363 L1550.33 347.363 L1550.33 360.104 L1508.62 360.104 
  L1508.62 410.46  Z
  " fill="#008000" fill-rule="evenodd" fill-opacity="1"/>
<polyline clip-path="url(#clip132)" style="stroke:#008000; stroke-linecap:butt; stroke-linejoin:round; stroke-width:2; stroke-opacity:1; fill:none" points="
  1508.62,410.46 1508.62,360.104 1466.9,360.104 1466.9,347.363 1508.62,347.363 1508.62,297.071 1508.62,347.363 1550.33,347.363 1550.33,360.104 1508.62,360.104 
  1508.62,410.46 
  "/>
<path clip-path="url(#clip132)" d="
M1601.31 328.015 L1601.31 310.439 L1559.6 310.439 L1559.6 275.456 L1601.31 275.456 L1601.31 251.703 L1601.31 275.456 L1643.02 275.456 L1643.02 310.439 L1601.31 310.439 
  L1601.31 328.015  Z
  " fill="#ff0000" fill-rule="evenodd" fill-opacity="1"/>
<polyline clip-path="url(#clip132)" style="stroke:#ff0000; stroke-linecap:butt; stroke-linejoin:round; stroke-width:2; stroke-opacity:1; fill:none" points="
  1601.31,328.015 1601.31,310.439 1559.6,310.439 1559.6,275.456 1601.31,275.456 1601.31,251.703 1601.31,275.456 1643.02,275.456 1643.02,310.439 1601.31,310.439 
  1601.31,328.015 
  "/>
<path clip-path="url(#clip132)" d="
M1694 299.209 L1694 299.166 L1652.29 299.166 L1652.29 180.012 L1694 180.012 L1694 172.843 L1694 180.012 L1735.71 180.012 L1735.71 299.166 L1694 299.166 
  L1694 299.209  Z
  " fill="#008000" fill-rule="evenodd" fill-opacity="1"/>
<polyline clip-path="url(#clip132)" style="stroke:#008000; stroke-linecap:butt; stroke-linejoin:round; stroke-width:2; stroke-opacity:1; fill:none" points="
  1694,299.209 1694,299.166 1652.29,299.166 1652.29,180.012 1694,180.012 1694,172.843 1694,180.012 1735.71,180.012 1735.71,299.166 1694,299.166 
  1694,299.209 
  "/>
<path clip-path="url(#clip132)" d="
M1786.69 280.682 L1786.69 213.137 L1744.98 213.137 L1744.98 165.674 L1786.69 165.674 L1786.69 156.734 L1786.69 165.674 L1828.4 165.674 L1828.4 213.137 L1786.69 213.137 
  L1786.69 280.682  Z
  " fill="#ff0000" fill-rule="evenodd" fill-opacity="1"/>
<polyline clip-path="url(#clip132)" style="stroke:#ff0000; stroke-linecap:butt; stroke-linejoin:round; stroke-width:2; stroke-opacity:1; fill:none" points="
  1786.69,280.682 1786.69,213.137 1744.98,213.137 1744.98,165.674 1786.69,165.674 1786.69,156.734 1786.69,165.674 1828.4,165.674 1828.4,213.137 1786.69,213.137 
  1786.69,280.682 
  "/>
<path clip-path="url(#clip132)" d="
M1879.38 269.238 L1879.38 215.469 L1837.67 215.469 L1837.67 156.518 L1879.38 156.518 L1879.38 151.379 L1879.38 156.518 L1921.09 156.518 L1921.09 215.469 L1879.38 215.469 
  L1879.38 269.238  Z
  " fill="#008000" fill-rule="evenodd" fill-opacity="1"/>
<polyline clip-path="url(#clip132)" style="stroke:#008000; stroke-linecap:butt; stroke-linejoin:round; stroke-width:2; stroke-opacity:1; fill:none" points="
  1879.38,269.238 1879.38,215.469 1837.67,215.469 1837.67,156.518 1879.38,156.518 1879.38,151.379 1879.38,156.518 1921.09,156.518 1921.09,215.469 1879.38,215.469 
  1879.38,269.238 
  "/>
<path clip-path="url(#clip132)" d="
M1972.07 217.283 L1972.07 184.072 L1930.36 184.072 L1930.36 141.835 L1972.07 141.835 L1972.07 112.467 L1972.07 141.835 L2013.78 141.835 L2013.78 184.072 L1972.07 184.072 
  L1972.07 217.283  Z
  " fill="#ff0000" fill-rule="evenodd" fill-opacity="1"/>
<polyline clip-path="url(#clip132)" style="stroke:#ff0000; stroke-linecap:butt; stroke-linejoin:round; stroke-width:2; stroke-opacity:1; fill:none" points="
  1972.07,217.283 1972.07,184.072 1930.36,184.072 1930.36,141.835 1972.07,141.835 1972.07,112.467 1972.07,141.835 2013.78,141.835 2013.78,184.072 1972.07,184.072 
  1972.07,217.283 
  "/>
<path clip-path="url(#clip132)" d="
M2064.76 346.72 L2064.76 213.137 L2023.05 213.137 L2023.05 165.544 L2064.76 165.544 L2064.76 141.705 L2064.76 165.544 L2106.48 165.544 L2106.48 213.137 L2064.76 213.137 
  L2064.76 346.72  Z
  " fill="#ff0000" fill-rule="evenodd" fill-opacity="1"/>
<polyline clip-path="url(#clip132)" style="stroke:#ff0000; stroke-linecap:butt; stroke-linejoin:round; stroke-width:2; stroke-opacity:1; fill:none" points="
  2064.76,346.72 2064.76,213.137 2023.05,213.137 2023.05,165.544 2064.76,165.544 2064.76,141.705 2064.76,165.544 2106.48,165.544 2106.48,213.137 2064.76,213.137 
  2064.76,346.72 
  "/>
<path clip-path="url(#clip132)" d="
M2157.46 228.814 L2157.46 228.123 L2115.74 228.123 L2115.74 154.877 L2157.46 154.877 L2157.46 83.5747 L2157.46 154.877 L2199.17 154.877 L2199.17 228.123 L2157.46 228.123 
  L2157.46 228.814  Z
  " fill="#008000" fill-rule="evenodd" fill-opacity="1"/>
<polyline clip-path="url(#clip132)" style="stroke:#008000; stroke-linecap:butt; stroke-linejoin:round; stroke-width:2; stroke-opacity:1; fill:none" points="
  2157.46,228.814 2157.46,228.123 2115.74,228.123 2115.74,154.877 2157.46,154.877 2157.46,83.5747 2157.46,154.877 2199.17,154.877 2199.17,228.123 2157.46,228.123 
  2157.46,228.814 
  "/>
<path clip-path="url(#clip132)" d="
M2250.15 307.415 L2250.15 224.279 L2208.44 224.279 L2208.44 212.359 L2250.15 212.359 L2250.15 165.328 L2250.15 212.359 L2291.86 212.359 L2291.86 224.279 L2250.15 224.279 
  L2250.15 307.415  Z
  " fill="#ff0000" fill-rule="evenodd" fill-opacity="1"/>
<polyline clip-path="url(#clip132)" style="stroke:#ff0000; stroke-linecap:butt; stroke-linejoin:round; stroke-width:2; stroke-opacity:1; fill:none" points="
  2250.15,307.415 2250.15,224.279 2208.44,224.279 2208.44,212.359 2250.15,212.359 2250.15,165.328 2250.15,212.359 2291.86,212.359 2291.86,224.279 2250.15,224.279 
  2250.15,307.415 
  "/>
<circle clip-path="url(#clip132)" cx="303.629" cy="1195.11" r="3" fill="#008000" fill-rule="evenodd" fill-opacity="1" stroke="#000000" stroke-opacity="1" stroke-width="0"/>
<circle clip-path="url(#clip132)" cx="396.32" cy="955.378" r="3" fill="#008000" fill-rule="evenodd" fill-opacity="1" stroke="#000000" stroke-opacity="1" stroke-width="0"/>
<circle clip-path="url(#clip132)" cx="489.011" cy="897.162" r="3" fill="#ff0000" fill-rule="evenodd" fill-opacity="1" stroke="#000000" stroke-opacity="1" stroke-width="0"/>
<circle clip-path="url(#clip132)" cx="581.703" cy="762.028" r="3" fill="#008000" fill-rule="evenodd" fill-opacity="1" stroke="#000000" stroke-opacity="1" stroke-width="0"/>
<circle clip-path="url(#clip132)" cx="674.394" cy="642.399" r="3" fill="#ff0000" fill-rule="evenodd" fill-opacity="1" stroke="#000000" stroke-opacity="1" stroke-width="0"/>
<circle clip-path="url(#clip132)" cx="767.085" cy="605.052" r="3" fill="#008000" fill-rule="evenodd" fill-opacity="1" stroke="#000000" stroke-opacity="1" stroke-width="0"/>
<circle clip-path="url(#clip132)" cx="859.777" cy="619.985" r="3" fill="#ff0000" fill-rule="evenodd" fill-opacity="1" stroke="#000000" stroke-opacity="1" stroke-width="0"/>
<circle clip-path="url(#clip132)" cx="952.468" cy="632.79" r="3" fill="#ff0000" fill-rule="evenodd" fill-opacity="1" stroke="#000000" stroke-opacity="1" stroke-width="0"/>
<circle clip-path="url(#clip132)" cx="1045.16" cy="593.294" r="3" fill="#008000" fill-rule="evenodd" fill-opacity="1" stroke="#000000" stroke-opacity="1" stroke-width="0"/>
<circle clip-path="url(#clip132)" cx="1137.85" cy="582.973" r="3" fill="#ff0000" fill-rule="evenodd" fill-opacity="1" stroke="#000000" stroke-opacity="1" stroke-width="0"/>
<circle clip-path="url(#clip132)" cx="1230.54" cy="705.97" r="3" fill="#008000" fill-rule="evenodd" fill-opacity="1" stroke="#000000" stroke-opacity="1" stroke-width="0"/>
<circle clip-path="url(#clip132)" cx="1323.23" cy="544.773" r="3" fill="#008000" fill-rule="evenodd" fill-opacity="1" stroke="#000000" stroke-opacity="1" stroke-width="0"/>
<circle clip-path="url(#clip132)" cx="1415.92" cy="451.639" r="3" fill="#008000" fill-rule="evenodd" fill-opacity="1" stroke="#000000" stroke-opacity="1" stroke-width="0"/>
<circle clip-path="url(#clip132)" cx="1508.62" cy="353.734" r="3" fill="#008000" fill-rule="evenodd" fill-opacity="1" stroke="#000000" stroke-opacity="1" stroke-width="0"/>
<circle clip-path="url(#clip132)" cx="1601.31" cy="292.947" r="3" fill="#ff0000" fill-rule="evenodd" fill-opacity="1" stroke="#000000" stroke-opacity="1" stroke-width="0"/>
<circle clip-path="url(#clip132)" cx="1694" cy="239.589" r="3" fill="#008000" fill-rule="evenodd" fill-opacity="1" stroke="#000000" stroke-opacity="1" stroke-width="0"/>
<circle clip-path="url(#clip132)" cx="1786.69" cy="189.406" r="3" fill="#ff0000" fill-rule="evenodd" fill-opacity="1" stroke="#000000" stroke-opacity="1" stroke-width="0"/>
<circle clip-path="url(#clip132)" cx="1879.38" cy="185.994" r="3" fill="#008000" fill-rule="evenodd" fill-opacity="1" stroke="#000000" stroke-opacity="1" stroke-width="0"/>
<circle clip-path="url(#clip132)" cx="1972.07" cy="162.953" r="3" fill="#ff0000" fill-rule="evenodd" fill-opacity="1" stroke="#000000" stroke-opacity="1" stroke-width="0"/>
<circle clip-path="url(#clip132)" cx="2064.76" cy="189.341" r="3" fill="#ff0000" fill-rule="evenodd" fill-opacity="1" stroke="#000000" stroke-opacity="1" stroke-width="0"/>
<circle clip-path="url(#clip132)" cx="2157.46" cy="191.5" r="3" fill="#008000" fill-rule="evenodd" fill-opacity="1" stroke="#000000" stroke-opacity="1" stroke-width="0"/>
<circle clip-path="url(#clip132)" cx="2250.15" cy="218.319" r="3" fill="#ff0000" fill-rule="evenodd" fill-opacity="1" stroke="#000000" stroke-opacity="1" stroke-width="0"/>
</svg>
